<svg width="32" height="32" viewBox="0 0 32 32" fill="none" xmlns="http://www.w3.org/2000/svg">
<circle cx="16" cy="16" r="15" fill="#F2A952" stroke="white" stroke-width="2"/>
<path d="M13.0117 15.2402C13.0352 11.6895 13.0762 9.65039 13.1348 9.12305C13.1699 9.07617 13.5684 9.04102 14.3301 9.01758C14.6113 9.01172 14.8428 9.00586 15.0244 9C15.335 9 15.4961 9.01172 15.5078 9.03516C15.5195 9.12891 15.5254 9.50977 15.5254 10.1777C15.5254 11.0098 15.5166 12.293 15.499 14.0273C15.4697 17.1562 15.4434 19.0137 15.4199 19.5996C16.293 19.582 17.3271 19.5674 18.5225 19.5557C19.0029 19.5498 19.4072 19.5469 19.7354 19.5469C20.2334 19.5469 20.5703 19.5527 20.7461 19.5645C20.8164 19.752 20.8574 20.1328 20.8691 20.707C20.875 20.8594 20.875 20.9941 20.8691 21.1113C20.8691 21.4395 20.8545 21.6387 20.8252 21.709C20.8193 21.7324 20.1953 21.75 18.9531 21.7617C18.1797 21.7734 17.3975 21.7793 16.6064 21.7793C16.1318 21.7793 15.6484 21.7793 15.1562 21.7793C13.8672 21.7676 13.1582 21.7441 13.0293 21.709C13.0117 21.2754 13.0029 20.3848 13.0029 19.0371C12.9971 18.0293 13 16.7637 13.0117 15.2402Z" fill="white"/>
</svg>
