<svg width="32" height="32" viewBox="0 0 32 32" fill="none" xmlns="http://www.w3.org/2000/svg">
<path d="M16.3225 5.03304C16.7498 4.63308 17.2345 4.40887 17.8436 4.4119C22.0644 4.42402 26.2821 4.43008 30.5029 4.4119C30.9392 4.4119 31.1028 4.53916 31.0816 4.95123C31.2513 5.32998 31.2695 5.73297 31.2664 6.13899C31.2574 12.0354 31.2452 17.9317 31.2604 23.8281C31.2604 24.228 31.324 24.6492 31.0604 25.0068C30.7816 25.2704 30.4302 25.2219 30.0969 25.2219C26.2609 25.2431 22.4249 25.2219 18.589 25.2158C17.7042 25.2158 16.8679 25.237 16.2771 26.0248C16.2225 26.0975 16.1225 26.1157 16.0316 26.1157C15.6923 25.84 15.8074 25.4522 15.8044 25.1098C15.7741 21.2344 15.8135 17.3621 15.7892 13.4867C15.7771 11.3475 15.7802 9.20534 15.7892 7.06617C15.7892 6.61773 15.7802 6.16323 15.9074 5.72388C15.9438 5.433 16.0741 5.19666 16.3225 5.03304Z" fill="#F6F7E0"/>
<path d="M14.5778 4.90594C14.5142 8.83583 14.5657 12.7657 14.5475 16.6956C14.5384 19.159 14.5869 21.6194 14.5475 24.0797C14.5384 24.4464 14.5263 24.81 14.2021 25.0645C13.9415 25.2372 13.6446 25.2251 13.3507 25.2251C9.55711 25.2342 5.76053 25.216 1.96395 25.2039C1.57308 25.2039 1.13373 25.3038 0.851945 24.8827C0.636816 24.1979 0.748926 23.4949 0.748926 22.8011C0.748926 17.2016 0.736806 11.6022 0.754986 6.00582C0.754986 5.62101 0.730746 5.23317 0.945875 4.88776C1.00042 4.68172 0.867095 4.3969 1.30038 4.39993C4.6758 4.43326 8.04515 4.43932 11.4145 4.45447C12.0447 4.38478 12.6719 4.39387 13.2992 4.45144C13.687 4.38781 14.0779 4.39084 14.4657 4.46053C14.5839 4.58779 14.5808 4.74535 14.5778 4.90594Z" fill="#F6F7E0"/>
<path d="M0.942464 4.88464C0.951554 9.1842 0.960644 13.4838 0.966704 17.7833C0.969734 20.1255 0.966704 22.4677 0.966704 24.8099C1.02427 25.3492 1.43635 25.3401 1.82116 25.3492C3.13012 25.3825 4.43907 25.3583 5.74803 25.3613C8.18414 25.3613 10.6233 25.3613 13.0594 25.3613C13.8411 25.3613 14.5138 25.5613 15.0865 26.1219C15.5743 26.6006 16.5075 26.5824 16.9802 26.0764C17.468 25.5552 18.0346 25.3644 18.7315 25.3644C22.4554 25.3553 26.1793 25.3795 29.9031 25.3553C30.3182 25.3553 30.7879 25.4613 31.0182 24.9432C31.0273 19.6043 31.0333 14.2655 31.0454 8.92968C31.0485 7.60254 31.0727 6.27844 31.0848 4.9513C31.7787 4.86646 32.0059 5.1634 31.9999 5.86636C31.9696 12.3445 31.9696 18.8196 31.9605 25.2977C31.9605 26.134 31.8969 26.2006 31.0242 26.1976C27.1883 26.1946 23.3553 26.1946 19.5193 26.1673C18.9436 26.1643 18.5619 26.2521 18.3407 26.8733C18.1316 27.4611 17.6317 27.7914 16.9651 27.7914C16.2894 27.7914 15.6107 27.8217 14.935 27.7944C14.3078 27.7702 13.6139 27.2187 13.526 26.6157C13.4654 26.2006 13.2776 26.1703 12.9473 26.1703C10.6233 26.1794 8.29928 26.1825 5.97528 26.1794C4.28151 26.1794 2.59078 26.134 0.900044 26.1673C0.206176 26.1825 0.00619648 25.934 0.0152865 25.2644C0.0425564 22.7586 0.0213464 20.2528 0.0183164 17.75C0.0152865 13.8171 0.0334664 9.89322 0.000136498 5.96635C-0.00592349 5.23915 0.187996 4.86343 0.942464 4.88464Z" fill="#B0D178"/>
<path d="M14.1143 24.9704C14.3082 24.7552 14.3324 24.5038 14.3354 24.2189C14.3567 20.9587 14.2961 17.6984 14.3506 14.4381C14.3991 11.5808 14.3203 8.72356 14.3021 5.86628C14.2991 5.39057 14.3354 4.92092 14.4688 4.46036C14.9839 4.40279 15.3202 4.72397 15.6626 5.02697C16.0595 5.06636 15.9838 5.4239 16.0868 5.66327C15.9959 7.52671 16.0383 9.39016 16.0322 11.2536C16.0232 13.2746 16.0413 15.2956 16.0201 17.3166C15.9929 19.983 16.0201 22.6524 16.0201 25.3188C16.0201 25.5885 16.0353 25.8551 16.0444 26.1248C15.9959 26.3824 15.8323 26.2339 15.7868 26.1642C15.4141 25.5915 14.8627 25.3037 14.2294 25.1279C14.1688 25.1098 14.1355 25.0401 14.1143 24.9764V24.9704Z" fill="#E0E3CD"/>
<path d="M16.0834 5.66038C15.7864 5.5513 15.8349 5.21497 15.6592 5.02408C15.8834 4.88167 16.1016 5.02105 16.3227 5.03317C16.244 5.24224 16.1652 5.45131 16.0834 5.65735V5.66038Z" fill="#B0D178"/>
<path d="M14.1137 24.9706C14.95 25.01 15.6075 25.3282 15.9439 26.1463C15.9499 26.1584 15.9802 26.1675 15.9954 26.1645C16.0135 26.1584 16.0287 26.1372 16.0438 26.122C16.465 25.2736 17.1437 24.9828 18.0861 24.9919C22.1947 25.0252 26.3034 25.007 30.4151 25.004C30.6151 25.004 30.8151 24.9646 31.015 24.9434C31.1665 25.5585 30.7969 25.5918 30.3333 25.5918C26.4095 25.5827 22.4826 25.5918 18.5587 25.5797C17.9376 25.5797 17.471 25.7948 17.0983 26.2705C16.665 26.8189 15.3651 26.8311 14.9349 26.2978C14.541 25.81 14.035 25.5827 13.4017 25.5827C9.49907 25.5827 5.59644 25.5554 1.69381 25.5827C1.05145 25.5888 0.824199 25.4312 0.966609 24.8101C1.06963 25.0706 1.30597 24.9949 1.4908 24.9949C5.6328 25.004 9.77479 25.004 13.9138 25.004C13.9804 25.004 14.0471 24.9828 14.1137 24.9706Z" fill="#E0E3CD"/>
<path d="M3.09418 7.14811C5.46363 7.14811 7.83006 7.15114 10.1995 7.17235C10.7358 7.17841 10.6298 6.85421 10.6116 6.58151C10.5237 6.31487 10.3268 6.32093 10.151 6.32093C7.80582 6.3179 5.4606 6.32093 3.11539 6.32093C2.84269 6.32093 2.63665 6.36941 2.63968 6.73301C2.63968 7.07842 2.79724 7.14811 3.09721 7.14811H3.09418Z" fill="#E0E3CD"/>
<path d="M3.20053 22.0011C5.11548 22.0163 7.03044 22.0163 8.94539 22.0193C10.3422 22.0193 11.739 22.0132 13.1389 22.0102C13.3843 22.0102 13.6601 22.0708 13.654 21.6739C13.4692 21.4921 13.2298 21.5315 13.0177 21.5315C9.75137 21.5254 6.48201 21.5224 3.21568 21.5315C3.03388 21.5315 2.69755 21.3981 2.69149 21.7678C2.68543 22.1556 3.01873 21.9981 3.20356 21.9981L3.20053 22.0011Z" fill="#E0E3CD"/>
<path d="M13.1659 20.0589C10.5571 20.0438 7.94526 20.0256 5.33644 20.0195C4.52743 20.0195 3.71842 20.0407 2.85185 20.0498C2.7458 20.068 2.67611 20.1741 2.69429 20.3286C2.7155 20.5165 2.87609 20.5074 3.00335 20.5104C3.47602 20.5195 3.9487 20.5195 4.42138 20.5195C7.34835 20.5195 10.2723 20.5225 13.1993 20.5195C13.378 20.5195 13.6598 20.5952 13.6386 20.2619C13.6174 19.9317 13.3508 20.062 13.169 20.0589H13.1659Z" fill="#E0E3CD"/>
<path d="M13.1442 23.0464C9.87181 23.0313 6.60245 23.0282 3.33006 23.0313C3.10584 23.0313 2.73921 22.9313 2.75436 23.2979C2.76648 23.61 3.10584 23.4918 3.30885 23.4948C5.27228 23.507 7.23572 23.51 9.19612 23.5161C10.5051 23.5191 11.814 23.5251 13.12 23.5221C13.3412 23.5221 13.6563 23.6342 13.6563 23.2009C13.5623 22.9282 13.3109 23.0525 13.1412 23.0494L13.1442 23.0464Z" fill="#E0E3CD"/>
<path d="M3.11264 17.1955C5.02759 17.2106 6.94255 17.2106 8.8575 17.2136C10.2543 17.2136 11.6512 17.2076 13.051 17.2045C13.2964 17.2045 13.5722 17.2651 13.5661 16.8682C13.3813 16.6864 13.1419 16.7258 12.9298 16.7258C9.66348 16.7197 6.39412 16.7167 3.12779 16.7258C2.94599 16.7258 2.60966 16.5925 2.6036 16.9621C2.59754 17.35 2.93084 17.1924 3.11567 17.1924L3.11264 17.1955Z" fill="#E0E3CD"/>
<path d="M13.078 15.2533C10.4692 15.2381 7.85737 15.2199 5.24855 15.2139C4.43954 15.2139 3.63053 15.2351 2.76396 15.2442C2.65791 15.2623 2.58822 15.3684 2.6064 15.5229C2.62761 15.7108 2.7882 15.7017 2.91546 15.7047C3.38813 15.7138 3.86081 15.7138 4.33349 15.7138C7.26046 15.7138 10.1844 15.7168 13.1114 15.7138C13.2901 15.7138 13.5719 15.7896 13.5507 15.4563C13.5295 15.126 13.2629 15.2563 13.0811 15.2533H13.078Z" fill="#E0E3CD"/>
<path d="M3.22399 18.6893C5.18742 18.7014 7.15086 18.7045 9.11126 18.7105C10.4202 18.7136 11.7292 18.7196 13.0351 18.7166C13.2563 18.7166 13.5714 18.8287 13.5714 18.3954C13.4775 18.1227 13.226 18.2469 13.0563 18.2439C9.78392 18.2288 6.51456 18.2257 3.24217 18.2288C3.01795 18.2288 2.65132 18.1288 2.66647 18.4954C2.67859 18.8075 3.01795 18.6893 3.22096 18.6924L3.22399 18.6893Z" fill="#E0E3CD"/>
<path d="M3.02767 12.4628C4.94263 12.4779 6.85759 12.4779 8.77254 12.481C10.1694 12.481 11.5662 12.4749 12.9661 12.4719C13.2115 12.4719 13.4872 12.5325 13.4811 12.1355C13.2963 11.9537 13.0569 11.9931 12.8448 11.9931C9.57852 11.9871 6.30916 11.984 3.04282 11.9931C2.86103 11.9931 2.5247 11.8598 2.51864 12.2295C2.51258 12.6173 2.84588 12.4598 3.0307 12.4598L3.02767 12.4628Z" fill="#E0E3CD"/>
<path d="M12.9931 10.5206C10.3843 10.5054 7.77241 10.4873 5.16359 10.4812C4.35458 10.4812 3.54557 10.4994 2.679 10.5115C2.57295 10.5297 2.50326 10.6357 2.52144 10.7903C2.54265 10.9781 2.70324 10.969 2.83049 10.9721C3.30317 10.9812 3.77585 10.9811 4.24853 10.9811C7.1755 10.9811 10.0994 10.9842 13.0264 10.9811C13.2052 10.9811 13.487 11.0569 13.4658 10.7236C13.4446 10.3933 13.1779 10.5236 12.9961 10.5206H12.9931Z" fill="#E0E3CD"/>
<path d="M2.79719 9.34779C3.26987 9.35688 3.74255 9.35688 4.21523 9.35688C7.1422 9.35688 10.0661 9.35991 12.9931 9.35688C13.1719 9.35688 13.4537 9.43263 13.4325 9.09933C13.4113 8.76906 13.1446 8.89935 12.9628 8.89632C10.354 8.88117 7.74214 8.86299 5.13332 8.85693C4.32431 8.85693 3.5153 8.87814 2.64872 8.88723C2.54267 8.90541 2.47298 9.01146 2.49116 9.16599C2.51237 9.35385 2.67296 9.34476 2.80022 9.34779H2.79719Z" fill="#E0E3CD"/>
<path d="M3.1361 13.9564C5.09953 13.9685 7.06297 13.9716 9.02337 13.9776C10.3323 13.9807 11.6413 13.9867 12.9472 13.9837C13.1684 13.9837 13.4835 14.0958 13.4835 13.6625C13.3896 13.3898 13.1381 13.514 12.9684 13.511C9.69603 13.4959 6.42667 13.4928 3.15428 13.4959C2.93006 13.4959 2.56343 13.3959 2.57858 13.7625C2.5907 14.0746 2.93006 13.9564 3.13307 13.9594L3.1361 13.9564Z" fill="#E0E3CD"/>
<path d="M18.7797 7.14811C21.1492 7.14811 23.5156 7.15114 25.8851 7.17235C26.4214 7.17841 26.3153 6.85421 26.2971 6.58151C26.2093 6.31487 26.0123 6.32093 25.8366 6.32093C23.4914 6.3179 21.1462 6.32093 18.8009 6.32093C18.5282 6.32093 18.3222 6.36941 18.3252 6.73301C18.3252 7.07842 18.4828 7.14811 18.7828 7.14811H18.7797Z" fill="#E0E3CD"/>
<path d="M18.8861 22.0011C20.801 22.0163 22.716 22.0163 24.6309 22.0193C26.0278 22.0193 27.4246 22.0132 28.8244 22.0102C29.0699 22.0102 29.3456 22.0708 29.3395 21.6739C29.1547 21.4921 28.9153 21.5315 28.7032 21.5315C25.4369 21.5254 22.1676 21.5224 18.9012 21.5315C18.7194 21.5315 18.3831 21.3981 18.377 21.7678C18.371 22.1556 18.7043 21.9981 18.8891 21.9981L18.8861 22.0011Z" fill="#E0E3CD"/>
<path d="M28.8486 20.0589C26.2397 20.0438 23.6279 20.0256 21.0191 20.0195C20.21 20.0195 19.401 20.0407 18.5345 20.0498C18.4284 20.068 18.3587 20.1741 18.3769 20.3286C18.3981 20.5165 18.5587 20.5074 18.686 20.5104C19.1586 20.5195 19.6313 20.5195 20.104 20.5195C23.031 20.5195 25.9549 20.5225 28.8819 20.5195C29.0607 20.5195 29.3424 20.5952 29.3212 20.2619C29.3 19.9317 29.0334 20.062 28.8516 20.0589H28.8486Z" fill="#E0E3CD"/>
<path d="M28.8268 23.0464C25.5544 23.0313 22.2851 23.0282 19.0127 23.0313C18.7885 23.0313 18.4218 22.9313 18.437 23.2979C18.4491 23.61 18.7885 23.4918 18.9915 23.4948C20.9549 23.507 22.9183 23.51 24.8787 23.5161C26.1877 23.5191 27.4967 23.5251 28.8026 23.5221C29.0238 23.5221 29.3389 23.6342 29.3389 23.2009C29.245 22.9282 28.9935 23.0525 28.8238 23.0494L28.8268 23.0464Z" fill="#E0E3CD"/>
<path d="M18.7982 17.1955C20.7131 17.2106 22.6281 17.2106 24.543 17.2136C25.9399 17.2136 27.3367 17.2076 28.7366 17.2045C28.982 17.2045 29.2577 17.2651 29.2517 16.8682C29.0668 16.6864 28.8275 16.7258 28.6154 16.7258C25.349 16.7197 22.0797 16.7167 18.8133 16.7258C18.6315 16.7258 18.2952 16.5925 18.2891 16.9621C18.2831 17.35 18.6164 17.1924 18.8012 17.1924L18.7982 17.1955Z" fill="#E0E3CD"/>
<path d="M28.7607 15.2533C26.1518 15.2381 23.54 15.2199 20.9312 15.2139C20.1222 15.2139 19.3132 15.2351 18.4466 15.2442C18.3405 15.2623 18.2708 15.3684 18.289 15.5229C18.3102 15.7108 18.4708 15.7017 18.5981 15.7047C19.0708 15.7138 19.5434 15.7138 20.0161 15.7138C22.9431 15.7138 25.867 15.7168 28.794 15.7138C28.9728 15.7138 29.2546 15.7896 29.2333 15.4563C29.2121 15.126 28.9455 15.2563 28.7637 15.2533H28.7607Z" fill="#E0E3CD"/>
<path d="M18.9066 18.6893C20.87 18.7014 22.8335 18.7045 24.7939 18.7105C26.1028 18.7136 27.4118 18.7196 28.7177 18.7166C28.9389 18.7166 29.254 18.8287 29.254 18.3954C29.1601 18.1227 28.9086 18.2469 28.7389 18.2439C25.4665 18.2288 22.1972 18.2257 18.9248 18.2288C18.7006 18.2288 18.3339 18.1288 18.3491 18.4954C18.3612 18.8075 18.7006 18.6893 18.9036 18.6924L18.9066 18.6893Z" fill="#E0E3CD"/>
<path d="M18.7132 12.4628C20.6282 12.4779 22.5431 12.4779 24.4581 12.481C25.8549 12.481 27.2517 12.4749 28.6516 12.4719C28.897 12.4719 29.1728 12.5325 29.1667 12.1355C28.9819 11.9537 28.7425 11.9931 28.5304 11.9931C25.2641 11.9871 21.9947 11.984 18.7284 11.9931C18.5466 11.9931 18.2102 11.8598 18.2042 12.2295C18.1981 12.6173 18.5314 12.4598 18.7163 12.4598L18.7132 12.4628Z" fill="#E0E3CD"/>
<path d="M28.6757 10.5206C26.0669 10.5054 23.455 10.4873 20.8462 10.4812C20.0372 10.4812 19.2282 10.4994 18.3616 10.5115C18.2556 10.5297 18.1859 10.6357 18.2041 10.7903C18.2253 10.9781 18.3859 10.969 18.5131 10.9721C18.9858 10.9812 19.4585 10.9811 19.9311 10.9811C22.8581 10.9811 25.7821 10.9842 28.709 10.9811C28.8878 10.9811 29.1696 11.0569 29.1484 10.7236C29.1272 10.3933 28.8605 10.5236 28.6787 10.5206H28.6757Z" fill="#E0E3CD"/>
<path d="M18.4798 9.34779C18.9525 9.35688 19.4252 9.35688 19.8978 9.35688C22.8248 9.35688 25.7488 9.35991 28.6757 9.35688C28.8545 9.35688 29.1363 9.43263 29.1151 9.09933C29.0939 8.76906 28.8272 8.89935 28.6454 8.89632C26.0366 8.88117 23.4248 8.86299 20.8159 8.85693C20.0069 8.85693 19.1979 8.87814 18.3313 8.88723C18.2253 8.90541 18.1556 9.01146 18.1738 9.16599C18.195 9.35385 18.3556 9.34476 18.4828 9.34779H18.4798Z" fill="#E0E3CD"/>
<path d="M18.8226 13.9564C20.7861 13.9685 22.7495 13.9716 24.7099 13.9776C26.0189 13.9807 27.3278 13.9867 28.6337 13.9837C28.8549 13.9837 29.17 14.0958 29.17 13.6625C29.0761 13.3898 28.8246 13.514 28.6549 13.511C25.3826 13.4959 22.1132 13.4928 18.8408 13.4959C18.6166 13.4959 18.25 13.3959 18.2651 13.7625C18.2772 14.0746 18.6166 13.9564 18.8196 13.9594L18.8226 13.9564Z" fill="#E0E3CD"/>
</svg>
