<svg width="60" height="41" viewBox="0 0 60 41" fill="none" xmlns="http://www.w3.org/2000/svg">
<path d="M57.5658 13.0705L57.2641 13.7897L56.8631 14.757L48.0584 35.8841L47.674 36.8059L47.6285 36.9175H12.5214L12.4511 36.7646L12.0295 35.7973L2.90239 14.7694L2.46836 13.7732L1.79871 12.2355L1.58789 11.7477L2.31541 12.4256L3.64645 13.674L4.35331 14.3312L17.8208 26.9058L28.283 7.50245L29.085 6.01847L29.5479 5.1504L29.5769 5.1008L29.7422 4.79077L29.9406 5.18347L30.4201 6.12594L33.5824 12.3306L36.9513 18.9485L38.9933 22.9582L41.0064 26.9058L55.8959 14.4677L56.7391 13.7608L57.5658 13.0705Z" fill="#FDBE11"/>
<g style="mix-blend-mode:multiply" opacity="0.67">
<path d="M48.0624 35.8841L47.6779 36.81L47.6325 36.9216H12.5212L12.4509 36.7645L12.0293 35.7973C12.2318 35.7063 12.4509 35.6526 12.6824 35.6526H47.2439C47.5374 35.6526 47.8144 35.7394 48.0582 35.8841H48.0624Z" fill="#F99B1C"/>
</g>
<g style="mix-blend-mode:soft-light" opacity="0.53">
<path d="M33.5829 12.3306L29.5774 22.8631L24.7121 35.6485L24.2987 36.7439L24.2326 36.9175H17.0938L17.1599 36.7439L17.5774 35.6485L28.2836 7.50245L29.0855 6.01847L29.5485 5.1504L29.5774 5.1008L29.7427 4.79077L29.9412 5.18347L30.4207 6.12594L33.5829 12.3306Z" fill="white"/>
</g>
<g style="mix-blend-mode:soft-light" opacity="0.53">
<path d="M38.9921 22.9581L34.164 35.6485L33.7507 36.7439L33.6845 36.9175H30.1172L30.1833 36.7439L30.5967 35.6485L36.9501 18.9485L38.9921 22.9581Z" fill="white"/>
</g>
<path d="M48.9922 38.7446C48.9922 39.8483 48.2109 40.7453 47.2436 40.7453H12.6821C11.719 40.7453 10.9336 39.8524 10.9336 38.7446C10.9336 37.7318 11.5908 36.8927 12.4465 36.7646C12.5251 36.7522 12.5995 36.7439 12.678 36.7439H47.2436C47.3924 36.7439 47.5371 36.7646 47.6735 36.8059C48.43 37.025 48.9922 37.8104 48.9922 38.7405V38.7446Z" fill="#FFBB33"/>
<g style="mix-blend-mode:soft-light" opacity="0.51">
<path d="M32.6442 36.7439L32.578 36.9175L31.123 40.7411H23.9883L25.4433 36.9175L25.5095 36.7439H32.6442Z" fill="white"/>
</g>
<g style="mix-blend-mode:soft-light" opacity="0.51">
<path d="M42.0983 36.7439L42.0322 36.9175L40.5771 40.7411H37.0098L38.4648 36.9175L38.531 36.7439H42.0983Z" fill="white"/>
</g>
<path d="M32.7969 3.33155C32.7969 3.40183 32.7969 3.46383 32.7886 3.52997C32.6977 4.8486 31.7015 5.91509 30.42 6.1259C30.2712 6.14657 30.1183 6.16311 29.9653 6.16311C29.8331 6.16311 29.7049 6.15484 29.5726 6.13417C29.4032 6.1135 29.2378 6.07217 29.0807 6.01843C28.0101 5.66707 27.2206 4.69979 27.1379 3.52997C27.1379 3.46383 27.1338 3.39769 27.1338 3.33155C27.1338 1.89718 28.1961 0.719084 29.5726 0.528936C29.7008 0.508267 29.8331 0.5 29.9653 0.5C31.5279 0.5 32.7969 1.7649 32.7969 3.33155V3.33155Z" fill="#FDBE11"/>
<path d="M32.7884 3.52996C32.6975 4.84859 31.7012 5.91508 30.4198 6.12589C30.271 6.14656 30.1181 6.1631 29.9651 6.1631C29.8328 6.1631 29.7047 6.15483 29.5724 6.13416C29.4029 6.11349 29.2376 6.07216 29.0805 6.01842C28.0099 5.66706 27.2204 4.69978 27.1377 3.52996C27.1501 3.36048 27.1749 3.19513 27.2162 3.03392C27.4891 4.1376 28.4026 4.985 29.5435 5.15035C29.5517 5.15035 29.56 5.15448 29.5724 5.15035C29.6923 5.17102 29.8122 5.17929 29.9403 5.17929H29.9651C31.292 5.17929 32.3998 4.26161 32.7057 3.02979C32.7471 3.191 32.776 3.35634 32.7843 3.52582L32.7884 3.52996Z" fill="#F99B1C"/>
<g style="mix-blend-mode:soft-light">
<path d="M31.028 2.46347C31.028 2.49654 31.028 2.52961 31.028 2.55855C30.9784 3.26953 30.3873 3.82758 29.6639 3.82758C28.9405 3.82758 28.3494 3.26953 28.2998 2.55855C28.2998 2.52548 28.2998 2.49654 28.2998 2.46347C28.2998 1.70701 28.9116 1.09937 29.6639 1.09937C30.4162 1.09937 31.028 1.71115 31.028 2.46347Z" fill="white"/>
</g>
<path d="M59.9998 11.9419C59.9998 12.0122 59.9998 12.0742 59.9915 12.1403C59.8923 13.6119 58.6646 14.7693 57.1682 14.7693C57.0649 14.7693 56.9616 14.7652 56.8582 14.7528C56.511 14.7156 56.1844 14.6164 55.8909 14.4634C55.0229 14.0294 54.4152 13.1572 54.345 12.1403C54.345 12.0742 54.3408 12.008 54.3408 11.9419C54.3408 10.3794 55.6057 9.11035 57.1724 9.11035C58.739 9.11035 60.0039 10.3753 60.0039 11.9419H59.9998Z" fill="#FDBE11"/>
<path d="M59.9913 12.1403C59.8921 13.6119 58.6644 14.7693 57.168 14.7693C57.0647 14.7693 56.9613 14.7652 56.858 14.7528C56.5108 14.7156 56.1842 14.6164 55.8907 14.4634C55.0226 14.0294 54.415 13.1572 54.3447 12.1403C54.3571 11.9708 54.3819 11.8055 54.4233 11.6443C54.6961 12.7397 55.6055 13.5871 56.7381 13.7566C56.8787 13.7814 57.0233 13.7938 57.1721 13.7938C57.2011 13.7938 57.2342 13.7938 57.2631 13.7897C58.5487 13.7525 59.6151 12.8472 59.9128 11.6443C59.9541 11.8055 59.983 11.9708 59.9913 12.1403V12.1403Z" fill="#F99B1C"/>
<g style="mix-blend-mode:soft-light">
<path d="M58.2358 11.078C58.2358 11.111 58.2358 11.1441 58.2358 11.173C58.1862 11.884 57.5951 12.4421 56.8758 12.4421C56.1566 12.4421 55.5613 11.884 55.5117 11.173C55.5117 11.14 55.5117 11.111 55.5117 11.078C55.5117 10.3215 56.1235 9.71387 56.8758 9.71387C57.6282 9.71387 58.2399 10.3256 58.2399 11.078H58.2358Z" fill="white"/>
</g>
<path d="M5.65897 11.9419C5.65897 12.0122 5.65897 12.0742 5.65071 12.1403C5.5515 13.6119 4.3238 14.7693 2.82742 14.7693C1.33104 14.7693 0.107475 13.6119 0.00413366 12.1403C0.00413366 12.0742 0 12.008 0 11.9419C0 10.3794 1.2649 9.11035 2.83155 9.11035C4.39821 9.11035 5.66311 10.3753 5.66311 11.9419H5.65897Z" fill="#FDBE11"/>
<path d="M5.65048 12.1403C5.55127 13.6119 4.32358 14.7693 2.82719 14.7693C1.33081 14.7693 0.107248 13.6119 0.00390625 12.1403C0.0163072 11.9708 0.0411091 11.8055 0.0824457 11.6443C0.388336 12.8761 1.50029 13.7938 2.82719 13.7938C4.1541 13.7938 5.26192 12.8761 5.56781 11.6443C5.60914 11.8055 5.63808 11.9708 5.64634 12.1403H5.65048Z" fill="#F99B1C"/>
<g style="mix-blend-mode:soft-light">
<path d="M3.89423 11.078C3.89423 11.111 3.89423 11.1441 3.89423 11.173C3.84462 11.884 3.25351 12.4421 2.53012 12.4421C1.80673 12.4421 1.21562 11.884 1.16602 11.173C1.16602 11.14 1.16602 11.111 1.16602 11.078C1.16602 10.3215 1.7778 9.71387 2.53012 9.71387C3.28245 9.71387 3.89423 10.3256 3.89423 11.078Z" fill="white"/>
</g>
<g style="mix-blend-mode:multiply" opacity="0.55">
<path d="M60.0001 11.942C60.0001 12.0122 60.0001 12.0742 59.9918 12.1404C59.8926 13.612 58.6649 14.7694 57.1685 14.7694C57.0652 14.7694 56.9619 14.7652 56.8585 14.7528L48.0538 35.88L47.6694 36.8059C48.4259 37.025 48.988 37.8104 48.988 38.7404C48.988 39.8441 48.2068 40.7411 47.2395 40.7411H29.5723V0.528936C29.7004 0.508267 29.8327 0.5 29.965 0.5C31.5275 0.5 32.7965 1.7649 32.7965 3.33155C32.7965 3.40183 32.7965 3.46383 32.7882 3.52997C32.6973 4.84861 31.7011 5.91509 30.4197 6.1259L33.5819 12.3305L36.955 18.9485L38.9929 22.9581L41.006 26.9058L55.8954 14.4635C55.0273 14.0295 54.4197 13.1573 54.3494 12.1404C54.3494 12.0742 54.3453 12.0081 54.3453 11.942C54.3453 10.3794 55.6102 9.1104 57.1768 9.1104C58.7435 9.1104 60.0084 10.3753 60.0084 11.942H60.0001Z" fill="#F99B1C"/>
</g>
</svg>
