<svg width="60" height="60" viewBox="0 0 60 60" fill="none" xmlns="http://www.w3.org/2000/svg">
<g clip-path="url(#clip0_723_11459)">
<path d="M57.5658 23.0705L57.2641 23.7897L56.8631 24.757L48.0584 45.8841L47.674 46.8059L47.6285 46.9175H12.5214L12.4511 46.7646L12.0295 45.7973L2.90239 24.7694L2.46836 23.7732L1.79871 22.2355L1.58789 21.7477L2.31541 22.4256L3.64645 23.674L4.35331 24.3312L17.8208 36.9058L28.283 17.5024L29.085 16.0185L29.5479 15.1504L29.5769 15.1008L29.7422 14.7908L29.9406 15.1835L30.4201 16.1259L33.5824 22.3306L36.9513 28.9485L38.9933 32.9582L41.0064 36.9058L55.8959 24.4677L56.7391 23.7608L57.5658 23.0705Z" fill="#FDBE11"/>
<g style="mix-blend-mode:multiply" opacity="0.67">
<path d="M48.0624 45.8841L47.6779 46.81L47.6325 46.9216H12.5212L12.4509 46.7645L12.0293 45.7973C12.2318 45.7063 12.4509 45.6526 12.6824 45.6526H47.2439C47.5374 45.6526 47.8144 45.7394 48.0582 45.8841H48.0624Z" fill="#F99B1C"/>
</g>
<g style="mix-blend-mode:soft-light" opacity="0.53">
<path d="M33.5829 22.3306L29.5774 32.8631L24.7121 45.6485L24.2987 46.7439L24.2326 46.9175H17.0938L17.1599 46.7439L17.5774 45.6485L28.2836 17.5024L29.0855 16.0185L29.5485 15.1504L29.5774 15.1008L29.7427 14.7908L29.9412 15.1835L30.4207 16.1259L33.5829 22.3306Z" fill="white"/>
</g>
<g style="mix-blend-mode:soft-light" opacity="0.53">
<path d="M38.9921 32.9581L34.164 45.6485L33.7507 46.7439L33.6845 46.9175H30.1172L30.1833 46.7439L30.5967 45.6485L36.9501 28.9485L38.9921 32.9581Z" fill="white"/>
</g>
<path d="M48.9922 48.7446C48.9922 49.8483 48.2109 50.7453 47.2436 50.7453H12.6821C11.719 50.7453 10.9336 49.8524 10.9336 48.7446C10.9336 47.7318 11.5908 46.8927 12.4465 46.7646C12.5251 46.7522 12.5995 46.7439 12.678 46.7439H47.2436C47.3924 46.7439 47.5371 46.7646 47.6735 46.8059C48.43 47.025 48.9922 47.8104 48.9922 48.7405V48.7446Z" fill="#FFBB33"/>
<g style="mix-blend-mode:soft-light" opacity="0.51">
<path d="M32.6442 46.7439L32.578 46.9175L31.123 50.7411H23.9883L25.4433 46.9175L25.5095 46.7439H32.6442Z" fill="white"/>
</g>
<g style="mix-blend-mode:soft-light" opacity="0.51">
<path d="M42.0983 46.7439L42.0322 46.9175L40.5771 50.7411H37.0098L38.4648 46.9175L38.531 46.7439H42.0983Z" fill="white"/>
</g>
<path d="M32.7969 13.3316C32.7969 13.4018 32.7969 13.4638 32.7886 13.53C32.6977 14.8486 31.7015 15.9151 30.42 16.1259C30.2712 16.1466 30.1183 16.1631 29.9653 16.1631C29.8331 16.1631 29.7049 16.1548 29.5726 16.1342C29.4032 16.1135 29.2378 16.0722 29.0807 16.0184C28.0101 15.6671 27.2206 14.6998 27.1379 13.53C27.1379 13.4638 27.1338 13.3977 27.1338 13.3316C27.1338 11.8972 28.1961 10.7191 29.5726 10.5289C29.7008 10.5083 29.8331 10.5 29.9653 10.5C31.5279 10.5 32.7969 11.7649 32.7969 13.3316Z" fill="#FDBE11"/>
<path d="M32.7884 13.53C32.6975 14.8486 31.7012 15.9151 30.4198 16.1259C30.271 16.1466 30.1181 16.1631 29.9651 16.1631C29.8328 16.1631 29.7047 16.1548 29.5724 16.1342C29.4029 16.1135 29.2376 16.0722 29.0805 16.0184C28.0099 15.6671 27.2204 14.6998 27.1377 13.53C27.1501 13.3605 27.1749 13.1951 27.2162 13.0339C27.4891 14.1376 28.4026 14.985 29.5435 15.1504C29.5517 15.1504 29.56 15.1545 29.5724 15.1504C29.6923 15.171 29.8122 15.1793 29.9403 15.1793H29.9651C31.292 15.1793 32.3998 14.2616 32.7057 13.0298C32.7471 13.191 32.776 13.3563 32.7843 13.5258L32.7884 13.53Z" fill="#F99B1C"/>
<g style="mix-blend-mode:soft-light">
<path d="M31.028 12.4635C31.028 12.4965 31.028 12.5296 31.028 12.5585C30.9784 13.2695 30.3873 13.8276 29.6639 13.8276C28.9405 13.8276 28.3494 13.2695 28.2998 12.5585C28.2998 12.5255 28.2998 12.4965 28.2998 12.4635C28.2998 11.707 28.9116 11.0994 29.6639 11.0994C30.4162 11.0994 31.028 11.7111 31.028 12.4635Z" fill="white"/>
</g>
<path d="M59.9998 21.9419C59.9998 22.0122 59.9998 22.0742 59.9915 22.1403C59.8923 23.6119 58.6646 24.7693 57.1682 24.7693C57.0649 24.7693 56.9616 24.7652 56.8582 24.7528C56.511 24.7156 56.1844 24.6164 55.8909 24.4634C55.0229 24.0294 54.4152 23.1572 54.345 22.1403C54.345 22.0742 54.3408 22.008 54.3408 21.9419C54.3408 20.3794 55.6057 19.1104 57.1724 19.1104C58.739 19.1104 60.0039 20.3753 60.0039 21.9419H59.9998Z" fill="#FDBE11"/>
<path d="M59.9913 22.1403C59.8921 23.6119 58.6644 24.7693 57.168 24.7693C57.0647 24.7693 56.9613 24.7652 56.858 24.7528C56.5108 24.7156 56.1842 24.6164 55.8907 24.4634C55.0226 24.0294 54.415 23.1572 54.3447 22.1403C54.3571 21.9708 54.3819 21.8055 54.4233 21.6443C54.6961 22.7397 55.6055 23.5871 56.7381 23.7566C56.8787 23.7814 57.0233 23.7938 57.1721 23.7938C57.2011 23.7938 57.2342 23.7938 57.2631 23.7897C58.5487 23.7525 59.6151 22.8472 59.9128 21.6443C59.9541 21.8055 59.983 21.9708 59.9913 22.1403Z" fill="#F99B1C"/>
<g style="mix-blend-mode:soft-light">
<path d="M58.2358 21.078C58.2358 21.111 58.2358 21.1441 58.2358 21.173C58.1862 21.884 57.5951 22.4421 56.8758 22.4421C56.1566 22.4421 55.5613 21.884 55.5117 21.173C55.5117 21.14 55.5117 21.111 55.5117 21.078C55.5117 20.3215 56.1235 19.7139 56.8758 19.7139C57.6282 19.7139 58.2399 20.3256 58.2399 21.078H58.2358Z" fill="white"/>
</g>
<path d="M5.65897 21.9419C5.65897 22.0122 5.65897 22.0742 5.65071 22.1403C5.5515 23.6119 4.3238 24.7693 2.82742 24.7693C1.33104 24.7693 0.107475 23.6119 0.00413366 22.1403C0.00413366 22.0742 0 22.008 0 21.9419C0 20.3794 1.2649 19.1104 2.83155 19.1104C4.39821 19.1104 5.66311 20.3753 5.66311 21.9419H5.65897Z" fill="#FDBE11"/>
<path d="M5.65048 22.1403C5.55127 23.6119 4.32358 24.7693 2.82719 24.7693C1.33081 24.7693 0.107248 23.6119 0.00390625 22.1403C0.0163072 21.9708 0.0411091 21.8055 0.0824457 21.6443C0.388336 22.8761 1.50029 23.7938 2.82719 23.7938C4.1541 23.7938 5.26192 22.8761 5.56781 21.6443C5.60914 21.8055 5.63808 21.9708 5.64635 22.1403H5.65048Z" fill="#F99B1C"/>
<g style="mix-blend-mode:soft-light">
<path d="M3.89423 21.078C3.89423 21.111 3.89423 21.1441 3.89423 21.173C3.84462 21.884 3.25351 22.4421 2.53012 22.4421C1.80673 22.4421 1.21562 21.884 1.16602 21.173C1.16602 21.14 1.16602 21.111 1.16602 21.078C1.16602 20.3215 1.7778 19.7139 2.53012 19.7139C3.28245 19.7139 3.89423 20.3256 3.89423 21.078Z" fill="white"/>
</g>
<g style="mix-blend-mode:multiply" opacity="0.55">
<path d="M60.0001 21.942C60.0001 22.0122 60.0001 22.0742 59.9918 22.1404C59.8926 23.612 58.6649 24.7694 57.1685 24.7694C57.0652 24.7694 56.9619 24.7652 56.8585 24.7528L48.0538 45.88L47.6694 46.8059C48.4259 47.025 48.988 47.8104 48.988 48.7404C48.988 49.8441 48.2068 50.7411 47.2395 50.7411H29.5723V10.5289C29.7004 10.5083 29.8327 10.5 29.965 10.5C31.5275 10.5 32.7965 11.7649 32.7965 13.3316C32.7965 13.4018 32.7965 13.4638 32.7882 13.53C32.6973 14.8486 31.7011 15.9151 30.4197 16.1259L33.5819 22.3305L36.955 28.9485L38.9929 32.9581L41.006 36.9058L55.8954 24.4635C55.0273 24.0295 54.4197 23.1573 54.3494 22.1404C54.3494 22.0742 54.3453 22.0081 54.3453 21.942C54.3453 20.3794 55.6102 19.1104 57.1768 19.1104C58.7435 19.1104 60.0084 20.3753 60.0084 21.942H60.0001Z" fill="#F99B1C"/>
</g>
</g>
<defs>
<clipPath id="clip0_723_11459">
<rect width="60" height="60" fill="white"/>
</clipPath>
</defs>
</svg>
