<svg width="60" height="63" viewBox="0 0 60 63" fill="none" xmlns="http://www.w3.org/2000/svg">
<g filter="url(#filter0_d_995_11155)">
<path d="M30 60C46.5685 60 60 46.5685 60 30C60 13.4315 46.5685 0 30 0C13.4315 0 0 13.4315 0 30C0 46.5685 13.4315 60 30 60Z" fill="#9885F7"/>
</g>
<g filter="url(#filter1_d_995_11155)">
<path d="M26.1469 17.3048C23.5786 15.8529 20.3999 17.7062 20.3999 20.6551V39.3448C20.3999 42.2947 23.5808 44.1481 26.148 42.694L42.6434 33.347C45.2469 31.872 45.2458 28.1213 42.6434 26.6474L26.1458 17.3048H26.1469Z" fill="white"/>
</g>
<defs>
<filter id="filter0_d_995_11155" x="0" y="0" width="60" height="63" filterUnits="userSpaceOnUse" color-interpolation-filters="sRGB">
<feFlood flood-opacity="0" result="BackgroundImageFix"/>
<feColorMatrix in="SourceAlpha" type="matrix" values="0 0 0 0 0 0 0 0 0 0 0 0 0 0 0 0 0 0 127 0" result="hardAlpha"/>
<feOffset dy="3"/>
<feComposite in2="hardAlpha" operator="out"/>
<feColorMatrix type="matrix" values="0 0 0 0 0 0 0 0 0 0 0 0 0 0 0 0 0 0 0.15 0"/>
<feBlend mode="normal" in2="BackgroundImageFix" result="effect1_dropShadow_995_11155"/>
<feBlend mode="normal" in="SourceGraphic" in2="effect1_dropShadow_995_11155" result="shape"/>
</filter>
<filter id="filter1_d_995_11155" x="20.3999" y="16.8" width="24.1958" height="29.4" filterUnits="userSpaceOnUse" color-interpolation-filters="sRGB">
<feFlood flood-opacity="0" result="BackgroundImageFix"/>
<feColorMatrix in="SourceAlpha" type="matrix" values="0 0 0 0 0 0 0 0 0 0 0 0 0 0 0 0 0 0 127 0" result="hardAlpha"/>
<feOffset dy="3"/>
<feComposite in2="hardAlpha" operator="out"/>
<feColorMatrix type="matrix" values="0 0 0 0 0 0 0 0 0 0 0 0 0 0 0 0 0 0 0.15 0"/>
<feBlend mode="normal" in2="BackgroundImageFix" result="effect1_dropShadow_995_11155"/>
<feBlend mode="normal" in="SourceGraphic" in2="effect1_dropShadow_995_11155" result="shape"/>
</filter>
</defs>
</svg>
