<svg width="60" height="63" viewBox="0 0 60 63" fill="none" xmlns="http://www.w3.org/2000/svg">
<g filter="url(#filter0_d_995_11707)">
<path d="M30 60C13.4315 60 0 46.5685 0 30C0 13.4315 13.4315 0 30 0C46.5685 0 60 13.4315 60 30C60 46.5685 46.5685 60 30 60Z" fill="#9885F7"/>
</g>
<g filter="url(#filter1_d_995_11707)">
<path d="M33.8531 17.3048C36.4214 15.8529 39.6001 17.7062 39.6001 20.6551V39.3448C39.6001 42.2947 36.4192 44.1481 33.852 42.694L17.3566 33.347C14.7531 31.872 14.7542 28.1213 17.3566 26.6474L33.8542 17.3048H33.8531Z" fill="white"/>
</g>
<defs>
<filter id="filter0_d_995_11707" x="0" y="0" width="60" height="63" filterUnits="userSpaceOnUse" color-interpolation-filters="sRGB">
<feFlood flood-opacity="0" result="BackgroundImageFix"/>
<feColorMatrix in="SourceAlpha" type="matrix" values="0 0 0 0 0 0 0 0 0 0 0 0 0 0 0 0 0 0 127 0" result="hardAlpha"/>
<feOffset dy="3"/>
<feComposite in2="hardAlpha" operator="out"/>
<feColorMatrix type="matrix" values="0 0 0 0 0 0 0 0 0 0 0 0 0 0 0 0 0 0 0.15 0"/>
<feBlend mode="normal" in2="BackgroundImageFix" result="effect1_dropShadow_995_11707"/>
<feBlend mode="normal" in="SourceGraphic" in2="effect1_dropShadow_995_11707" result="shape"/>
</filter>
<filter id="filter1_d_995_11707" x="15.4043" y="16.8" width="24.1958" height="29.4" filterUnits="userSpaceOnUse" color-interpolation-filters="sRGB">
<feFlood flood-opacity="0" result="BackgroundImageFix"/>
<feColorMatrix in="SourceAlpha" type="matrix" values="0 0 0 0 0 0 0 0 0 0 0 0 0 0 0 0 0 0 127 0" result="hardAlpha"/>
<feOffset dy="3"/>
<feComposite in2="hardAlpha" operator="out"/>
<feColorMatrix type="matrix" values="0 0 0 0 0 0 0 0 0 0 0 0 0 0 0 0 0 0 0.15 0"/>
<feBlend mode="normal" in2="BackgroundImageFix" result="effect1_dropShadow_995_11707"/>
<feBlend mode="normal" in="SourceGraphic" in2="effect1_dropShadow_995_11707" result="shape"/>
</filter>
</defs>
</svg>
