<svg width="17" height="18" viewBox="0 0 17 18" fill="none" xmlns="http://www.w3.org/2000/svg">
<path d="M8.532 1L5.31072 8.24787V16.9999L14.439 16.9999C14.7093 17.003 14.9716 16.9083 15.1776 16.7332C15.3835 16.5581 15.5193 16.3145 15.5598 16.0473L16.7496 8.28762C16.774 8.12707 16.7631 7.96315 16.7178 7.8072C16.6725 7.65117 16.5939 7.50685 16.4873 7.38425C16.3806 7.26165 16.2487 7.16369 16.1004 7.09716C15.9522 7.03063 15.7913 6.99713 15.6288 6.99897L15.622 6.99901H10.7422C10.4089 6.99901 10.1387 6.72881 10.1387 6.39551V2.94693C10.1387 2.42102 9.92982 1.91666 9.55795 1.54478C9.27601 1.26284 8.9179 1.07457 8.532 1Z" fill="#5D53C0"/>
<path d="M4.10372 8.7233V16.9999H2.12079C1.82354 16.9999 1.53846 16.8818 1.32827 16.6716C1.11808 16.4614 1 16.1764 1 15.8791V9.84409C1 9.54684 1.11808 9.26176 1.32827 9.05157C1.53846 8.84138 1.82354 8.7233 2.12079 8.7233H4.10372Z" fill="#5D53C0"/>
<path d="M8.532 1L5.31072 8.24787V16.9999L14.439 16.9999C14.7093 17.003 14.9716 16.9083 15.1776 16.7332C15.3835 16.5581 15.5193 16.3145 15.5598 16.0473L16.7496 8.28762C16.774 8.12707 16.7631 7.96315 16.7178 7.8072C16.6725 7.65117 16.5939 7.50685 16.4873 7.38425C16.3806 7.26165 16.2487 7.16369 16.1004 7.09716C15.9522 7.03063 15.7913 6.99713 15.6288 6.99897L15.622 6.99901H10.7422C10.4089 6.99901 10.1387 6.72881 10.1387 6.39551V2.94693C10.1387 2.42102 9.92982 1.91666 9.55795 1.54478C9.27601 1.26284 8.9179 1.07457 8.532 1Z" stroke="#5D53C0" stroke-width="0.4" stroke-linecap="round" stroke-linejoin="round"/>
<path d="M4.10372 8.7233V16.9999H2.12079C1.82354 16.9999 1.53846 16.8818 1.32827 16.6716C1.11808 16.4614 1 16.1764 1 15.8791V9.84409C1 9.54684 1.11808 9.26176 1.32827 9.05157C1.53846 8.84138 1.82354 8.7233 2.12079 8.7233H4.10372Z" stroke="#5D53C0" stroke-width="0.4" stroke-linecap="round" stroke-linejoin="round"/>
</svg>
