<svg width="101" height="100" viewBox="0 0 101 100" fill="none" xmlns="http://www.w3.org/2000/svg">
<path d="M51.5089 15.7288C52.8439 14.4789 54.3589 13.7782 56.2622 13.7877C69.4521 13.8256 82.6326 13.8445 95.8225 13.7877C97.186 13.7877 97.6973 14.1854 97.631 15.4731C98.1613 16.6567 98.2181 17.9161 98.2086 19.1849C98.1802 37.611 98.1423 56.0371 98.1897 74.4633C98.1897 75.7132 98.3885 77.0293 97.5647 78.1466C96.6936 78.9704 95.5952 78.8189 94.5537 78.8189C82.5663 78.8852 70.5789 78.8189 58.5915 78.8C55.8266 78.8 53.2132 78.8662 51.3668 81.3281C51.1964 81.5554 50.8839 81.6122 50.5999 81.6122C49.5394 80.7505 49.8992 79.5385 49.8897 78.4686C49.795 66.3581 49.9181 54.257 49.8424 42.1465C49.8045 35.4616 49.814 28.7672 49.8424 22.0823C49.8424 20.6809 49.814 19.2606 50.2116 17.8877C50.3253 16.9787 50.7324 16.2401 51.5089 15.7288Z" fill="#F6F7E0"/>
<path d="M46.0546 15.3314C45.8557 27.6123 46.0167 39.8932 45.9599 52.1742C45.9315 59.8722 46.083 67.5608 45.9599 75.2494C45.9315 76.3952 45.8936 77.5314 44.8804 78.3268C44.0661 78.8665 43.1382 78.8286 42.2197 78.8286C30.3649 78.857 18.5006 78.8002 6.63625 78.7623C5.41479 78.7623 4.04182 79.0748 3.16123 77.7587C2.48895 75.6187 2.83929 73.422 2.83929 71.2536C2.83929 53.7554 2.80142 36.2572 2.85823 18.7685C2.85823 17.566 2.78248 16.354 3.45476 15.2745C3.6252 14.6307 3.20857 13.7406 4.5626 13.7501C15.1108 13.8542 25.64 13.8732 36.1692 13.9205C38.1387 13.7027 40.0987 13.7311 42.0588 13.911C43.2707 13.7122 44.4922 13.7217 45.7042 13.9394C46.0735 14.3371 46.064 14.8295 46.0546 15.3314Z" fill="#F6F7E0"/>
<path d="M3.4452 15.2654C3.47361 28.7015 3.50201 42.1376 3.52095 55.5737C3.53042 62.893 3.52095 70.2124 3.52095 77.5317C3.70086 79.2171 4.9886 79.1887 6.19113 79.2171C10.2816 79.3213 14.3721 79.2455 18.4626 79.255C26.0755 79.255 33.6978 79.255 41.3106 79.255C43.7536 79.255 45.8556 79.8799 47.6452 81.6317C49.1697 83.1277 52.086 83.0709 53.5632 81.4896C55.0876 79.861 56.8583 79.2645 59.0361 79.2645C70.6731 79.2361 82.3102 79.3118 93.9473 79.2361C95.2445 79.2361 96.7121 79.5675 97.4318 77.9483C97.4602 61.2644 97.4791 44.5805 97.517 27.9061C97.5265 23.7588 97.6022 19.621 97.6401 15.4737C99.8084 15.2085 100.519 16.1365 100.5 18.3332C100.405 38.5774 100.405 58.812 100.377 79.0562C100.377 81.6695 100.178 81.8778 97.4507 81.8684C85.4633 81.8589 73.4854 81.8589 61.4979 81.7737C59.6989 81.7642 58.5058 82.0388 57.8146 83.9799C57.1613 85.8168 55.5989 86.8489 53.5158 86.8489C51.4043 86.8489 49.2833 86.9436 47.1718 86.8584C45.2117 86.7826 43.0434 85.0593 42.7688 83.1751C42.5794 81.8778 41.9924 81.7831 40.9603 81.7831C33.6978 81.8116 26.4353 81.821 19.1728 81.8116C13.8797 81.8116 8.59619 81.6695 3.31264 81.7737C1.1443 81.821 0.519364 81.0446 0.54777 78.952C0.632989 71.1214 0.566708 63.2907 0.557239 55.4696C0.54777 43.1792 0.604583 30.9172 0.500427 18.6457C0.481489 16.3732 1.08749 15.1991 3.4452 15.2654Z" fill="#B0D178"/>
<path d="M44.6055 78.0329C45.2115 77.3606 45.2872 76.5747 45.2967 75.6846C45.363 65.4963 45.1736 55.3079 45.344 45.1196C45.4955 36.1906 45.2493 27.2616 45.1925 18.3325C45.1831 16.846 45.2967 15.3783 45.7133 13.9391C47.323 13.7592 48.374 14.7628 49.444 15.7097C50.6844 15.8328 50.4477 16.9501 50.7696 17.6981C50.4855 23.5214 50.6181 29.3447 50.5992 35.1679C50.5708 41.4836 50.6276 47.7992 50.5613 54.1149C50.4761 62.4473 50.5613 70.7893 50.5613 79.1218C50.5613 79.9645 50.6086 80.7977 50.637 81.6404C50.4855 82.4453 49.9742 81.9813 49.8322 81.7635C48.6675 79.9739 46.9442 79.0744 44.9653 78.5252C44.7759 78.4684 44.6717 78.2506 44.6055 78.0518V78.0329Z" fill="#E0E3CD"/>
<path d="M50.7602 17.6892C49.8323 17.3484 49.9838 16.2973 49.4346 15.7008C50.1353 15.2558 50.817 15.6913 51.5082 15.7292C51.262 16.3825 51.0158 17.0359 50.7602 17.6798V17.6892Z" fill="#B0D178"/>
<path d="M44.6059 78.0331C47.2193 78.1562 49.274 79.1504 50.325 81.707C50.344 81.7448 50.4387 81.7732 50.486 81.7638C50.5428 81.7448 50.5902 81.6786 50.6375 81.6312C51.9537 78.98 54.0747 78.071 57.0194 78.0994C69.859 78.2035 82.6986 78.1467 95.5477 78.1372C96.1726 78.1372 96.7976 78.0142 97.4225 77.9479C97.8959 79.87 96.7407 79.9742 95.292 79.9742C83.03 79.9458 70.7586 79.9742 58.4966 79.9363C56.5555 79.9363 55.0973 80.6086 53.9326 82.0952C52.5786 83.809 48.5165 83.8469 47.172 82.1804C45.941 80.6559 44.3597 79.9458 42.3808 79.9458C30.1851 79.9458 17.9894 79.8606 5.79364 79.9458C3.78627 79.9647 3.07611 79.4723 3.52114 77.5312C3.84308 78.3456 4.58164 78.1088 5.15923 78.1088C18.103 78.1372 31.0467 78.1372 43.981 78.1372C44.1893 78.1372 44.3976 78.071 44.6059 78.0331Z" fill="#E0E3CD"/>
<path d="M10.1675 22.3382C17.572 22.3382 24.9671 22.3477 32.3716 22.4139C34.0476 22.4329 33.7162 21.4197 33.6594 20.5675C33.3848 19.7343 32.7693 19.7532 32.2201 19.7532C24.8913 19.7438 17.5626 19.7532 10.2338 19.7532C9.38158 19.7532 8.7377 19.9047 8.74717 21.041C8.74717 22.1204 9.23955 22.3382 10.177 22.3382H10.1675Z" fill="#E0E3CD"/>
<path d="M10.4992 68.7537C16.4834 68.801 22.4677 68.801 28.4519 68.8105C32.817 68.8105 37.1821 68.7916 41.5566 68.7821C42.3236 68.7821 43.1852 68.9715 43.1663 67.7311C42.5887 67.163 41.8407 67.2861 41.1779 67.2861C30.9706 67.2671 20.7538 67.2576 10.5465 67.2861C9.97842 67.2861 8.9274 66.8694 8.90846 68.0246C8.88952 69.2366 9.93108 68.7442 10.5087 68.7442L10.4992 68.7537Z" fill="#E0E3CD"/>
<path d="M41.6421 62.6846C33.4895 62.6373 25.3275 62.5805 17.1749 62.5615C14.6468 62.5615 12.1186 62.6278 9.41056 62.6562C9.07915 62.713 8.86137 63.0444 8.91818 63.5273C8.98446 64.1144 9.48631 64.086 9.88399 64.0955C11.3611 64.1239 12.8382 64.1239 14.3154 64.1239C23.4621 64.1239 32.5995 64.1333 41.7463 64.1239C42.3049 64.1239 43.1855 64.3606 43.1192 63.319C43.0529 62.2869 42.2197 62.6941 41.6516 62.6846H41.6421Z" fill="#E0E3CD"/>
<path d="M41.5752 72.0208C31.3489 71.9735 21.1322 71.964 10.9059 71.9735C10.2053 71.9735 9.05955 71.661 9.10689 72.8067C9.14477 73.782 10.2053 73.4127 10.8397 73.4222C16.9754 73.4601 23.1111 73.4696 29.2374 73.4885C33.3279 73.498 37.4184 73.5169 41.4994 73.5074C42.1906 73.5074 43.1754 73.8578 43.1754 72.5037C42.8818 71.6516 42.0959 72.0398 41.5657 72.0303L41.5752 72.0208Z" fill="#E0E3CD"/>
<path d="M10.2248 53.7366C16.209 53.784 22.1933 53.784 28.1775 53.7934C32.5426 53.7934 36.9077 53.7745 41.2822 53.765C42.0492 53.765 42.9108 53.9544 42.8919 52.714C42.3143 52.1459 41.5663 52.269 40.9035 52.269C30.6962 52.25 20.4794 52.2406 10.2721 52.269C9.70401 52.269 8.65298 51.8523 8.63404 53.0075C8.61511 54.2195 9.65667 53.7271 10.2343 53.7271L10.2248 53.7366Z" fill="#E0E3CD"/>
<path d="M41.3667 47.667C33.2141 47.6197 25.0521 47.5629 16.8995 47.5439C14.3714 47.5439 11.8432 47.6102 9.13516 47.6386C8.80376 47.6954 8.58598 48.0269 8.64279 48.5098C8.70907 49.0968 9.21091 49.0684 9.6086 49.0779C11.0857 49.1063 12.5628 49.1063 14.04 49.1063C23.1868 49.1063 32.3241 49.1158 41.4709 49.1063C42.0295 49.1063 42.9101 49.343 42.8438 48.3014C42.7775 47.2694 41.9443 47.6765 41.3762 47.667H41.3667Z" fill="#E0E3CD"/>
<path d="M10.5747 58.4044C16.7105 58.4423 22.8462 58.4518 28.9725 58.4707C33.0629 58.4802 37.1534 58.4991 41.2345 58.4897C41.9257 58.4897 42.9104 58.84 42.9104 57.486C42.6169 56.6338 41.831 57.022 41.3007 57.0125C31.0745 56.9652 20.8578 56.9557 10.6315 56.9652C9.93085 56.9652 8.78513 56.6527 8.83248 57.7984C8.87035 58.7737 9.93085 58.4044 10.5653 58.4139L10.5747 58.4044Z" fill="#E0E3CD"/>
<path d="M9.95916 38.9466C15.9434 38.9939 21.9276 38.9939 27.9119 39.0034C32.277 39.0034 36.642 38.9844 41.0166 38.975C41.7836 38.975 42.6452 39.1644 42.6263 37.924C42.0487 37.3558 41.3006 37.4789 40.6378 37.4789C30.4305 37.46 20.2138 37.4505 10.0065 37.4789C9.43838 37.4789 8.38736 37.0623 8.36842 38.2175C8.34948 39.4295 9.39104 38.9371 9.96863 38.9371L9.95916 38.9466Z" fill="#E0E3CD"/>
<path d="M41.1021 32.877C32.9495 32.8297 24.7874 32.7728 16.6349 32.7539C14.1067 32.7539 11.5786 32.8107 8.87052 32.8486C8.53911 32.9054 8.32133 33.2368 8.37814 33.7197C8.44442 34.3068 8.94627 34.2784 9.34395 34.2878C10.8211 34.3162 12.2982 34.3162 13.7753 34.3162C22.9221 34.3162 32.0594 34.3257 41.2062 34.3162C41.7649 34.3162 42.6455 34.553 42.5792 33.5114C42.5129 32.4793 41.6796 32.8865 41.1115 32.877H41.1021Z" fill="#E0E3CD"/>
<path d="M9.23976 29.2126C10.7169 29.2411 12.194 29.2411 13.6711 29.2411C22.8179 29.2411 31.9552 29.2505 41.102 29.2411C41.6607 29.2411 42.5413 29.4778 42.475 28.4362C42.4087 27.4041 41.5755 27.8113 41.0073 27.8018C32.8548 27.7545 24.6927 27.6976 16.5401 27.6787C14.012 27.6787 11.4838 27.745 8.77579 27.7734C8.44438 27.8302 8.2266 28.1616 8.28342 28.6445C8.3497 29.2316 8.85154 29.2032 9.24923 29.2126H9.23976Z" fill="#E0E3CD"/>
<path d="M10.3003 43.6144C16.436 43.6523 22.5718 43.6617 28.698 43.6807C32.7885 43.6902 36.879 43.7091 40.96 43.6996C41.6513 43.6996 42.636 44.05 42.636 42.6959C42.3425 41.8437 41.5566 42.232 41.0263 42.2225C30.8001 42.1752 20.5833 42.1657 10.3571 42.1752C9.65643 42.1752 8.51072 41.8627 8.55806 43.0084C8.59594 43.9837 9.65643 43.6144 10.2908 43.6239L10.3003 43.6144Z" fill="#E0E3CD"/>
<path d="M59.188 22.3382C66.5925 22.3382 73.9876 22.3477 81.3921 22.4139C83.0681 22.4329 82.7367 21.4197 82.6799 20.5675C82.4053 19.7343 81.7898 19.7532 81.2406 19.7532C73.9119 19.7438 66.5831 19.7532 59.2543 19.7532C58.4021 19.7532 57.7582 19.9047 57.7677 21.041C57.7677 22.1204 58.2601 22.3382 59.1975 22.3382H59.188Z" fill="#E0E3CD"/>
<path d="M59.5197 68.7537C65.5039 68.801 71.4882 68.801 77.4724 68.8105C81.8375 68.8105 86.2026 68.7916 90.5771 68.7821C91.3441 68.7821 92.2057 68.9715 92.1868 67.7311C91.6092 67.163 90.8612 67.2861 90.1984 67.2861C79.9911 67.2671 69.7743 67.2576 59.5671 67.2861C58.9989 67.2861 57.9479 66.8694 57.929 68.0246C57.91 69.2366 58.9516 68.7442 59.5292 68.7442L59.5197 68.7537Z" fill="#E0E3CD"/>
<path d="M90.6528 62.6846C82.5003 62.6373 74.3382 62.5805 66.1857 62.5615C63.6575 62.5615 61.1294 62.6278 58.4213 62.6562C58.0899 62.713 57.8721 63.0444 57.9289 63.5273C57.9952 64.1144 58.497 64.086 58.8947 64.0955C60.3719 64.1239 61.849 64.1239 63.3261 64.1239C72.4729 64.1239 81.6102 64.1333 90.757 64.1239C91.3156 64.1239 92.1962 64.3606 92.13 63.319C92.0637 62.2869 91.2304 62.6941 90.6623 62.6846H90.6528Z" fill="#E0E3CD"/>
<path d="M90.5859 72.0208C80.3597 71.9735 70.1429 71.964 59.9167 71.9735C59.216 71.9735 58.0703 71.661 58.1176 72.8067C58.1555 73.782 59.216 73.4127 59.8504 73.4222C65.9861 73.4601 72.1219 73.4696 78.2481 73.4885C82.3386 73.498 86.4291 73.5169 90.5101 73.5074C91.2014 73.5074 92.1861 73.8578 92.1861 72.5037C91.8926 71.6516 91.1067 72.0398 90.5764 72.0303L90.5859 72.0208Z" fill="#E0E3CD"/>
<path d="M59.2443 53.7366C65.2286 53.784 71.2128 53.784 77.197 53.7934C81.5621 53.7934 85.9272 53.7745 90.3017 53.765C91.0687 53.765 91.9304 53.9544 91.9114 52.714C91.3338 52.1459 90.5858 52.269 89.923 52.269C79.7157 52.25 69.499 52.2406 59.2917 52.269C58.7235 52.269 57.6725 51.8523 57.6536 53.0075C57.6346 54.2195 58.6762 53.7271 59.2538 53.7271L59.2443 53.7366Z" fill="#E0E3CD"/>
<path d="M90.3774 47.667C82.2249 47.6197 74.0628 47.5629 65.9103 47.5439C63.3821 47.5439 60.854 47.6102 58.1459 47.6386C57.8145 47.6954 57.5967 48.0269 57.6535 48.5098C57.7198 49.0968 58.2217 49.0684 58.6193 49.0779C60.0965 49.1063 61.5736 49.1063 63.0507 49.1063C72.1975 49.1063 81.3348 49.1158 90.4816 49.1063C91.0403 49.1063 91.9208 49.343 91.8546 48.3014C91.7883 47.2694 90.955 47.6765 90.3869 47.667H90.3774Z" fill="#E0E3CD"/>
<path d="M59.5855 58.4044C65.7212 58.4423 71.8569 58.4518 77.9832 58.4707C82.0737 58.4802 86.1642 58.4991 90.2452 58.4897C90.9364 58.4897 91.9212 58.84 91.9212 57.486C91.6276 56.6338 90.8417 57.022 90.3115 57.0125C80.0853 56.9652 69.8685 56.9557 59.6423 56.9652C58.9416 56.9652 57.7959 56.6527 57.8432 57.7984C57.8811 58.7737 58.9416 58.4044 59.576 58.4139L59.5855 58.4044Z" fill="#E0E3CD"/>
<path d="M58.9797 38.9466C64.9639 38.9939 70.9481 38.9939 76.9324 39.0034C81.2975 39.0034 85.6625 38.9844 90.0371 38.975C90.8041 38.975 91.6657 39.1644 91.6468 37.924C91.0692 37.3558 90.3212 37.4789 89.6583 37.4789C79.4511 37.46 69.2343 37.4505 59.027 37.4789C58.4589 37.4789 57.4079 37.0623 57.3889 38.2175C57.37 39.4295 58.4115 38.9371 58.9891 38.9371L58.9797 38.9466Z" fill="#E0E3CD"/>
<path d="M90.1128 32.877C81.9602 32.8297 73.7982 32.7728 65.6456 32.7539C63.1175 32.7539 60.5893 32.8107 57.8813 32.8486C57.5499 32.9054 57.3321 33.2368 57.3889 33.7197C57.4552 34.3068 57.957 34.2784 58.3547 34.2878C59.8318 34.3162 61.3089 34.3162 62.7861 34.3162C71.9328 34.3162 81.0702 34.3257 90.2169 34.3162C90.7756 34.3162 91.6562 34.553 91.5899 33.5114C91.5236 32.4793 90.6904 32.8865 90.1223 32.877H90.1128Z" fill="#E0E3CD"/>
<path d="M58.2505 29.2126C59.7276 29.2411 61.2047 29.2411 62.6819 29.2411C71.8287 29.2411 80.966 29.2505 90.1128 29.2411C90.6714 29.2411 91.552 29.4778 91.4857 28.4362C91.4194 27.4041 90.5862 27.8113 90.0181 27.8018C81.8655 27.7545 73.7035 27.6976 65.5509 27.6787C63.0227 27.6787 60.4946 27.745 57.7865 27.7734C57.4551 27.8302 57.2373 28.1616 57.2942 28.6445C57.3604 29.2316 57.8623 29.2032 58.26 29.2126H58.2505Z" fill="#E0E3CD"/>
<path d="M59.3208 43.6144C65.4565 43.6523 71.5923 43.6617 77.7186 43.6807C81.809 43.6902 85.8995 43.7091 89.9805 43.6996C90.6718 43.6996 91.6565 44.05 91.6565 42.6959C91.363 41.8437 90.5771 42.232 90.0468 42.2225C79.8206 42.1752 69.6039 42.1657 59.3776 42.1752C58.6769 42.1752 57.5312 41.8627 57.5786 43.0084C57.6164 43.9837 58.6769 43.6144 59.3113 43.6239L59.3208 43.6144Z" fill="#E0E3CD"/>
</svg>
