<svg width="32" height="32" viewBox="0 0 32 32" fill="none" xmlns="http://www.w3.org/2000/svg">
<path d="M16.3225 5.03304C16.7498 4.63308 17.2345 4.40887 17.8436 4.4119C22.0644 4.42402 26.2821 4.43008 30.5029 4.4119C30.9392 4.4119 31.1028 4.53916 31.0816 4.95123C31.2513 5.32998 31.2695 5.73297 31.2664 6.13899C31.2574 12.0354 31.2452 17.9317 31.2604 23.8281C31.2604 24.228 31.324 24.6492 31.0604 25.0068C30.7816 25.2704 30.4302 25.2219 30.0969 25.2219C26.2609 25.2431 22.4249 25.2219 18.589 25.2158C17.7042 25.2158 16.8679 25.237 16.2771 26.0248C16.2225 26.0975 16.1225 26.1157 16.0316 26.1157C15.6923 25.84 15.8074 25.4522 15.8044 25.1098C15.7741 21.2344 15.8135 17.3621 15.7892 13.4867C15.7771 11.3475 15.7802 9.20534 15.7892 7.06617C15.7892 6.61773 15.7802 6.16323 15.9074 5.72388C15.9438 5.433 16.0741 5.19666 16.3225 5.03304Z" fill="#F6F7E0"/>
<path d="M14.5773 4.90594C14.5137 8.83583 14.5652 12.7657 14.547 16.6956C14.5379 19.159 14.5864 21.6194 14.547 24.0797C14.5379 24.4464 14.5258 24.81 14.2016 25.0645C13.941 25.2372 13.6441 25.2251 13.3502 25.2251C9.55662 25.2342 5.76004 25.216 1.96346 25.2039C1.5726 25.2039 1.13325 25.3038 0.851457 24.8827C0.636328 24.1979 0.748437 23.4949 0.748437 22.8011C0.748437 17.2016 0.736317 11.6022 0.754497 6.00582C0.754497 5.62101 0.730257 5.23317 0.945387 4.88776C0.999927 4.68172 0.866607 4.3969 1.2999 4.39993C4.67531 4.43326 8.04466 4.43932 11.414 4.45447C12.0442 4.38478 12.6715 4.39387 13.2987 4.45144C13.6865 4.38781 14.0774 4.39084 14.4652 4.46053C14.5834 4.58779 14.5804 4.74535 14.5773 4.90594Z" fill="#F6F7E0"/>
<path d="M0.942464 4.88464C0.951554 9.1842 0.960644 13.4838 0.966704 17.7833C0.969734 20.1255 0.966704 22.4677 0.966704 24.8099C1.02427 25.3492 1.43635 25.3401 1.82116 25.3492C3.13012 25.3825 4.43907 25.3583 5.74803 25.3613C8.18414 25.3613 10.6233 25.3613 13.0594 25.3613C13.8411 25.3613 14.5138 25.5613 15.0865 26.1219C15.5743 26.6006 16.5075 26.5824 16.9802 26.0764C17.468 25.5552 18.0346 25.3644 18.7315 25.3644C22.4554 25.3553 26.1793 25.3795 29.9031 25.3553C30.3182 25.3553 30.7879 25.4613 31.0182 24.9432C31.0273 19.6043 31.0333 14.2655 31.0454 8.92968C31.0485 7.60254 31.0727 6.27844 31.0848 4.9513C31.7787 4.86646 32.0059 5.1634 31.9999 5.86636C31.9696 12.3445 31.9696 18.8196 31.9605 25.2977C31.9605 26.134 31.8969 26.2006 31.0242 26.1976C27.1883 26.1946 23.3553 26.1946 19.5193 26.1673C18.9436 26.1643 18.5619 26.2521 18.3407 26.8733C18.1316 27.4611 17.6317 27.7914 16.9651 27.7914C16.2894 27.7914 15.6107 27.8217 14.935 27.7944C14.3078 27.7702 13.6139 27.2187 13.526 26.6157C13.4654 26.2006 13.2776 26.1703 12.9473 26.1703C10.6233 26.1794 8.29928 26.1825 5.97528 26.1794C4.28151 26.1794 2.59078 26.134 0.900044 26.1673C0.206176 26.1825 0.00619648 25.934 0.0152865 25.2644C0.0425564 22.7586 0.0213464 20.2528 0.0183164 17.75C0.0152865 13.8171 0.0334664 9.89322 0.000136498 5.96635C-0.00592349 5.23915 0.187996 4.86343 0.942464 4.88464Z" fill="#B0D178"/>
<path d="M14.1138 24.9704C14.3077 24.7552 14.3319 24.5038 14.335 24.2189C14.3562 20.9587 14.2956 17.6984 14.3501 14.4381C14.3986 11.5808 14.3198 8.72356 14.3016 5.86628C14.2986 5.39057 14.335 4.92092 14.4683 4.46036C14.9834 4.40279 15.3197 4.72397 15.6621 5.02697C16.059 5.06636 15.9833 5.4239 16.0863 5.66327C15.9954 7.52671 16.0378 9.39016 16.0318 11.2536C16.0227 13.2746 16.0408 15.2956 16.0196 17.3166C15.9924 19.983 16.0196 22.6524 16.0196 25.3188C16.0196 25.5885 16.0348 25.8551 16.0439 26.1248C15.9954 26.3824 15.8318 26.2339 15.7863 26.1642C15.4136 25.5915 14.8622 25.3037 14.2289 25.1279C14.1683 25.1098 14.135 25.0401 14.1138 24.9764V24.9704Z" fill="#E0E3CD"/>
<path d="M16.0834 5.66038C15.7864 5.5513 15.8349 5.21497 15.6592 5.02408C15.8834 4.88167 16.1016 5.02105 16.3227 5.03317C16.244 5.24224 16.1652 5.45131 16.0834 5.65735V5.66038Z" fill="#B0D178"/>
<path d="M14.1137 24.9706C14.95 25.01 15.6075 25.3282 15.9439 26.1463C15.9499 26.1584 15.9802 26.1675 15.9954 26.1645C16.0135 26.1584 16.0287 26.1372 16.0438 26.122C16.465 25.2736 17.1437 24.9828 18.0861 24.9919C22.1947 25.0252 26.3034 25.007 30.4151 25.004C30.6151 25.004 30.8151 24.9646 31.015 24.9434C31.1665 25.5585 30.7969 25.5918 30.3333 25.5918C26.4095 25.5827 22.4826 25.5918 18.5587 25.5797C17.9376 25.5797 17.471 25.7948 17.0983 26.2705C16.665 26.8189 15.3651 26.8311 14.9349 26.2978C14.541 25.81 14.035 25.5827 13.4017 25.5827C9.49907 25.5827 5.59644 25.5554 1.69381 25.5827C1.05145 25.5888 0.824199 25.4312 0.966609 24.8101C1.06963 25.0706 1.30597 24.9949 1.4908 24.9949C5.6328 25.004 9.77479 25.004 13.9138 25.004C13.9804 25.004 14.0471 24.9828 14.1137 24.9706Z" fill="#E0E3CD"/>
<path d="M3.09369 7.14811C5.46315 7.14811 7.82957 7.15114 10.199 7.17235C10.7353 7.17841 10.6293 6.85421 10.6111 6.58151C10.5232 6.31487 10.3263 6.32093 10.1505 6.32093C7.80533 6.3179 5.46012 6.32093 3.1149 6.32093C2.8422 6.32093 2.63616 6.36941 2.63919 6.73301C2.63919 7.07842 2.79675 7.14811 3.09672 7.14811H3.09369Z" fill="#E0E3CD"/>
<path d="M3.19955 22.0011C5.11451 22.0163 7.02946 22.0163 8.94442 22.0193C10.3412 22.0193 11.7381 22.0132 13.1379 22.0102C13.3834 22.0102 13.6591 22.0708 13.653 21.6739C13.4682 21.4921 13.2288 21.5315 13.0167 21.5315C9.75039 21.5254 6.48103 21.5224 3.2147 21.5315C3.0329 21.5315 2.69657 21.3981 2.69051 21.7678C2.68445 22.1556 3.01775 21.9981 3.20258 21.9981L3.19955 22.0011Z" fill="#E0E3CD"/>
<path d="M13.1655 20.0589C10.5566 20.0438 7.94478 20.0256 5.33595 20.0195C4.52694 20.0195 3.71794 20.0407 2.85136 20.0498C2.74531 20.068 2.67562 20.1741 2.6938 20.3286C2.71501 20.5165 2.8756 20.5074 3.00286 20.5104C3.47554 20.5195 3.94822 20.5195 4.42089 20.5195C7.34787 20.5195 10.2718 20.5225 13.1988 20.5195C13.3776 20.5195 13.6593 20.5952 13.6381 20.2619C13.6169 19.9317 13.3503 20.062 13.1685 20.0589H13.1655Z" fill="#E0E3CD"/>
<path d="M13.1442 23.0464C9.87181 23.0313 6.60245 23.0282 3.33006 23.0313C3.10584 23.0313 2.73921 22.9313 2.75436 23.2979C2.76648 23.61 3.10584 23.4918 3.30885 23.4948C5.27228 23.507 7.23572 23.51 9.19612 23.5161C10.5051 23.5191 11.814 23.5251 13.12 23.5221C13.3412 23.5221 13.6563 23.6342 13.6563 23.2009C13.5623 22.9282 13.3109 23.0525 13.1412 23.0494L13.1442 23.0464Z" fill="#E0E3CD"/>
<path d="M3.11166 17.1955C5.02661 17.2106 6.94157 17.2106 8.85652 17.2136C10.2534 17.2136 11.6502 17.2076 13.05 17.2045C13.2955 17.2045 13.5712 17.2651 13.5651 16.8682C13.3803 16.6864 13.1409 16.7258 12.9288 16.7258C9.6625 16.7197 6.39314 16.7167 3.12681 16.7258C2.94501 16.7258 2.60868 16.5925 2.60262 16.9621C2.59656 17.35 2.92986 17.1924 3.11469 17.1924L3.11166 17.1955Z" fill="#E0E3CD"/>
<path d="M13.0776 15.2533C10.4687 15.2381 7.85688 15.2199 5.24806 15.2139C4.43905 15.2139 3.63005 15.2351 2.76347 15.2442C2.65742 15.2623 2.58773 15.3684 2.60591 15.5229C2.62712 15.7108 2.78771 15.7017 2.91497 15.7047C3.38765 15.7138 3.86032 15.7138 4.333 15.7138C7.25998 15.7138 10.1839 15.7168 13.1109 15.7138C13.2897 15.7138 13.5714 15.7896 13.5502 15.4563C13.529 15.126 13.2624 15.2563 13.0806 15.2533H13.0776Z" fill="#E0E3CD"/>
<path d="M3.22399 18.6893C5.18742 18.7014 7.15086 18.7045 9.11126 18.7105C10.4202 18.7136 11.7292 18.7196 13.0351 18.7166C13.2563 18.7166 13.5714 18.8287 13.5714 18.3954C13.4775 18.1227 13.226 18.2469 13.0563 18.2439C9.78392 18.2288 6.51456 18.2257 3.24217 18.2288C3.01795 18.2288 2.65132 18.1288 2.66647 18.4954C2.67859 18.8075 3.01795 18.6893 3.22096 18.6924L3.22399 18.6893Z" fill="#E0E3CD"/>
<path d="M3.02719 12.4628C4.94214 12.4779 6.8571 12.4779 8.77205 12.481C10.1689 12.481 11.5657 12.4749 12.9656 12.4719C13.211 12.4719 13.4867 12.5325 13.4807 12.1355C13.2958 11.9537 13.0565 11.9931 12.8444 11.9931C9.57803 11.9871 6.30867 11.984 3.04234 11.9931C2.86054 11.9931 2.52421 11.8598 2.51815 12.2295C2.51209 12.6173 2.84539 12.4598 3.03022 12.4598L3.02719 12.4628Z" fill="#E0E3CD"/>
<path d="M12.9926 10.5206C10.3838 10.5054 7.77192 10.4873 5.1631 10.4812C4.35409 10.4812 3.54508 10.4994 2.67851 10.5115C2.57246 10.5297 2.50277 10.6357 2.52095 10.7903C2.54216 10.9781 2.70275 10.969 2.83001 10.9721C3.30269 10.9812 3.77536 10.9811 4.24804 10.9811C7.17501 10.9811 10.099 10.9842 13.0259 10.9811C13.2047 10.9811 13.4865 11.0569 13.4653 10.7236C13.4441 10.3933 13.1774 10.5236 12.9956 10.5206H12.9926Z" fill="#E0E3CD"/>
<path d="M2.7967 9.34779C3.26938 9.35688 3.74206 9.35688 4.21474 9.35688C7.14171 9.35688 10.0657 9.35991 12.9926 9.35688C13.1714 9.35688 13.4532 9.43263 13.432 9.09933C13.4108 8.76906 13.1441 8.89935 12.9623 8.89632C10.3535 8.88117 7.74165 8.86299 5.13283 8.85693C4.32382 8.85693 3.51481 8.87814 2.64823 8.88723C2.54218 8.90541 2.47249 9.01146 2.49067 9.16599C2.51188 9.35385 2.67247 9.34476 2.79973 9.34779H2.7967Z" fill="#E0E3CD"/>
<path d="M3.1361 13.9564C5.09953 13.9685 7.06297 13.9716 9.02337 13.9776C10.3323 13.9807 11.6413 13.9867 12.9472 13.9837C13.1684 13.9837 13.4835 14.0958 13.4835 13.6625C13.3896 13.3898 13.1381 13.514 12.9684 13.511C9.69603 13.4959 6.42667 13.4928 3.15428 13.4959C2.93006 13.4959 2.56343 13.3959 2.57858 13.7625C2.5907 14.0746 2.93006 13.9564 3.13307 13.9594L3.1361 13.9564Z" fill="#E0E3CD"/>
<path d="M18.7802 7.14811C21.1497 7.14811 23.5161 7.15114 25.8855 7.17235C26.4219 7.17841 26.3158 6.85421 26.2976 6.58151C26.2098 6.31487 26.0128 6.32093 25.8371 6.32093C23.4919 6.3179 21.1466 6.32093 18.8014 6.32093C18.5287 6.32093 18.3227 6.36941 18.3257 6.73301C18.3257 7.07842 18.4833 7.14811 18.7832 7.14811H18.7802Z" fill="#E0E3CD"/>
<path d="M18.8861 22.0011C20.801 22.0163 22.716 22.0163 24.6309 22.0193C26.0278 22.0193 27.4246 22.0132 28.8244 22.0102C29.0699 22.0102 29.3456 22.0708 29.3395 21.6739C29.1547 21.4921 28.9153 21.5315 28.7032 21.5315C25.4369 21.5254 22.1676 21.5224 18.9012 21.5315C18.7194 21.5315 18.3831 21.3981 18.377 21.7678C18.371 22.1556 18.7043 21.9981 18.8891 21.9981L18.8861 22.0011Z" fill="#E0E3CD"/>
<path d="M28.849 20.0589C26.2402 20.0438 23.6284 20.0256 21.0195 20.0195C20.2105 20.0195 19.4015 20.0407 18.535 20.0498C18.4289 20.068 18.3592 20.1741 18.3774 20.3286C18.3986 20.5165 18.5592 20.5074 18.6865 20.5104C19.1591 20.5195 19.6318 20.5195 20.1045 20.5195C23.0315 20.5195 25.9554 20.5225 28.8824 20.5195C29.0611 20.5195 29.3429 20.5952 29.3217 20.2619C29.3005 19.9317 29.0339 20.062 28.8521 20.0589H28.849Z" fill="#E0E3CD"/>
<path d="M28.8278 23.0464C25.5554 23.0313 22.286 23.0282 19.0137 23.0313C18.7894 23.0313 18.4228 22.9313 18.438 23.2979C18.4501 23.61 18.7894 23.4918 18.9924 23.4948C20.9559 23.507 22.9193 23.51 24.8797 23.5161C26.1887 23.5191 27.4976 23.5251 28.8036 23.5221C29.0247 23.5221 29.3399 23.6342 29.3399 23.2009C29.2459 22.9282 28.9944 23.0525 28.8248 23.0494L28.8278 23.0464Z" fill="#E0E3CD"/>
<path d="M18.7987 17.1955C20.7136 17.2106 22.6286 17.2106 24.5435 17.2136C25.9404 17.2136 27.3372 17.2076 28.737 17.2045C28.9825 17.2045 29.2582 17.2651 29.2521 16.8682C29.0673 16.6864 28.8279 16.7258 28.6158 16.7258C25.3495 16.7197 22.0802 16.7167 18.8138 16.7258C18.632 16.7258 18.2957 16.5925 18.2896 16.9621C18.2836 17.35 18.6169 17.1924 18.8017 17.1924L18.7987 17.1955Z" fill="#E0E3CD"/>
<path d="M28.7612 15.2533C26.1523 15.2381 23.5405 15.2199 20.9317 15.2139C20.1226 15.2139 19.3136 15.2351 18.4471 15.2442C18.341 15.2623 18.2713 15.3684 18.2895 15.5229C18.3107 15.7108 18.4713 15.7017 18.5986 15.7047C19.0712 15.7138 19.5439 15.7138 20.0166 15.7138C22.9436 15.7138 25.8675 15.7168 28.7945 15.7138C28.9733 15.7138 29.255 15.7896 29.2338 15.4563C29.2126 15.126 28.946 15.2563 28.7642 15.2533H28.7612Z" fill="#E0E3CD"/>
<path d="M18.9076 18.6893C20.871 18.7014 22.8345 18.7045 24.7949 18.7105C26.1038 18.7136 27.4128 18.7196 28.7187 18.7166C28.9399 18.7166 29.255 18.8287 29.255 18.3954C29.1611 18.1227 28.9096 18.2469 28.7399 18.2439C25.4675 18.2288 22.1982 18.2257 18.9258 18.2288C18.7015 18.2288 18.3349 18.1288 18.3501 18.4954C18.3622 18.8075 18.7015 18.6893 18.9046 18.6924L18.9076 18.6893Z" fill="#E0E3CD"/>
<path d="M18.7137 12.4628C20.6287 12.4779 22.5436 12.4779 24.4586 12.481C25.8554 12.481 27.2522 12.4749 28.6521 12.4719C28.8975 12.4719 29.1732 12.5325 29.1672 12.1355C28.9824 11.9537 28.743 11.9931 28.5309 11.9931C25.2646 11.9871 21.9952 11.984 18.7289 11.9931C18.5471 11.9931 18.2107 11.8598 18.2047 12.2295C18.1986 12.6173 18.5319 12.4598 18.7167 12.4598L18.7137 12.4628Z" fill="#E0E3CD"/>
<path d="M28.6762 10.5206C26.0674 10.5054 23.4555 10.4873 20.8467 10.4812C20.0377 10.4812 19.2287 10.4994 18.3621 10.5115C18.256 10.5297 18.1864 10.6357 18.2045 10.7903C18.2258 10.9781 18.3863 10.969 18.5136 10.9721C18.9863 10.9812 19.459 10.9811 19.9316 10.9811C22.8586 10.9811 25.7825 10.9842 28.7095 10.9811C28.8883 10.9811 29.1701 11.0569 29.1489 10.7236C29.1277 10.3933 28.861 10.5236 28.6792 10.5206H28.6762Z" fill="#E0E3CD"/>
<path d="M18.4803 9.34779C18.953 9.35688 19.4257 9.35688 19.8983 9.35688C22.8253 9.35688 25.7492 9.35991 28.6762 9.35688C28.855 9.35688 29.1368 9.43263 29.1156 9.09933C29.0944 8.76906 28.8277 8.89935 28.6459 8.89632C26.0371 8.88117 23.4252 8.86299 20.8164 8.85693C20.0074 8.85693 19.1984 8.87814 18.3318 8.88723C18.2258 8.90541 18.1561 9.01146 18.1743 9.16599C18.1955 9.35385 18.3561 9.34476 18.4833 9.34779H18.4803Z" fill="#E0E3CD"/>
<path d="M18.8226 13.9564C20.7861 13.9685 22.7495 13.9716 24.7099 13.9776C26.0189 13.9807 27.3278 13.9867 28.6337 13.9837C28.8549 13.9837 29.17 14.0958 29.17 13.6625C29.0761 13.3898 28.8246 13.514 28.6549 13.511C25.3826 13.4959 22.1132 13.4928 18.8408 13.4959C18.6166 13.4959 18.25 13.3959 18.2651 13.7625C18.2772 14.0746 18.6166 13.9564 18.8196 13.9594L18.8226 13.9564Z" fill="#E0E3CD"/>
</svg>
