<svg width="32" height="32" viewBox="0 0 32 32" fill="none" xmlns="http://www.w3.org/2000/svg">
<path d="M5.65858 9.01212C5.17222 9.01212 4.71772 8.92067 4.29579 8.73569C3.87386 8.55278 3.50388 8.30128 3.1928 7.98119C2.87895 7.66111 2.62953 7.29114 2.44455 6.8699C2.26164 6.44796 2.16811 5.99347 2.16811 5.5071C2.16811 5.02074 2.26164 4.56347 2.44455 4.14223C2.62953 3.72029 2.87895 3.35102 3.1928 3.03093C3.50458 2.71084 3.87455 2.45935 4.29579 2.27644C4.71772 2.09145 5.17222 2 5.65858 2H12.6541V12.3072L5.65858 9.01212Z" fill="#B0D178"/>
<path d="M11.5019 9.01212C11.0155 9.01212 10.561 8.92067 10.1391 8.73569C9.71718 8.55278 9.34513 8.30128 9.02781 7.98119C8.70773 7.66111 8.45623 7.29114 8.27124 6.8699C8.08834 6.44796 7.99688 5.99347 7.99688 5.5071C7.99688 5.02074 8.08834 4.56347 8.27124 4.14223C8.45623 3.72029 8.70773 3.35102 9.02781 3.03093C9.34582 2.71084 9.71787 2.45935 10.1391 2.27644C10.561 2.09145 11.0162 2 11.5019 2H29V3.16742H27.8305L26.0936 5.49047L27.8305 7.84471H29V10.3444H11.5996L11.5019 9.01212Z" fill="#90B454"/>
<path d="M1 17.1764C1 16.6901 1.09145 16.2356 1.27644 15.8136C1.45935 15.3917 1.70876 15.0196 2.02262 14.7023C2.33647 14.3822 2.70436 14.1307 3.1256 13.9458C3.54961 13.7629 4.00203 13.6714 4.49047 13.6714H5.67452L9.16499 10.9908V23.6689L5.70777 20.6669H4.49047C4.00203 20.6669 3.54961 20.5734 3.1256 20.3905C2.70367 20.2055 2.33577 19.9561 2.02262 19.6422C1.70876 19.3304 1.45935 18.9605 1.27644 18.5392C1.09145 18.1173 1 17.6628 1 17.1764Z" fill="#5F94F7"/>
<path d="M9.16499 20.6662C8.67863 20.6662 8.22413 20.5748 7.8022 20.3898C7.38026 20.2069 7.00821 19.9574 6.6909 19.6436C6.37081 19.3297 6.11932 18.9618 5.93433 18.5406C5.75142 18.1166 5.65997 17.6635 5.65997 17.1757C5.65997 16.688 5.75142 16.2349 5.93433 15.8129C6.11932 15.391 6.37081 15.0217 6.6909 14.7016C7.00891 14.3815 7.38096 14.1301 7.8022 13.9471C8.22413 13.7622 8.67932 13.6707 9.16499 13.6707V12.2102H27.8305V14.8381H26.6631L25.4936 16.0076V18.2475L26.6465 19.5126H27.8305V21.9812H9.19755L9.16499 20.6662Z" fill="#3969C2"/>
<path d="M5.65858 9.01212H11.5033V13.67H5.65858C5.33434 13.67 5.03088 13.6077 4.75028 13.483C4.46761 13.3582 4.22235 13.192 4.01034 12.98C3.79834 12.77 3.63206 12.5227 3.50735 12.2421C3.38264 11.9594 3.32029 11.656 3.32029 11.3317C3.32029 11.0075 3.38264 10.704 3.50735 10.4241C3.63206 10.1414 3.79834 9.89617 4.01034 9.68417C4.22235 9.47424 4.46761 9.30796 4.75028 9.18949C5.03088 9.07101 5.33434 9.01074 5.65858 9.01074" fill="#F2A952"/>
<path d="M11.5019 13.6707C11.1777 13.6707 10.8721 13.6104 10.5853 13.492C10.2964 13.3735 10.049 13.2072 9.83704 12.9973C9.62711 12.7853 9.46083 12.5379 9.34236 12.249C9.22388 11.9622 9.16361 11.6567 9.16361 11.3324C9.16361 11.0082 9.22596 10.7047 9.35067 10.4248C9.47538 10.1421 9.64166 9.89687 9.85366 9.68486C10.0657 9.47286 10.3109 9.30866 10.5936 9.19018C10.8742 9.07171 11.1777 9.01212 11.5019 9.01212L31.321 9.01143V10.1788H30.1681L29.0007 11.3317L30.1681 12.5012H31.321V13.6686H11.5019V13.6707Z" fill="#EBA300"/>
<path d="M5.65858 20.6662H14.9917V29.9993H5.65858C5.0101 29.9993 4.40387 29.8788 3.8406 29.6335C3.27733 29.3903 2.78542 29.0578 2.36349 28.6365C1.94155 28.2146 1.609 27.7227 1.36651 27.1594C1.12125 26.5961 1 25.9913 1 25.3414C1 24.6915 1.12055 24.0846 1.36581 23.5151C1.609 22.9477 1.94155 22.4516 2.36279 22.0297C2.78473 21.6078 3.27664 21.2752 3.83991 21.0327C4.40318 20.7895 5.0101 20.6662 5.65858 20.6662Z" fill="#EF746F"/>
<path d="M13.8229 30C13.1848 30 12.5806 29.8774 12.0132 29.6342C11.4437 29.391 10.9497 29.0584 10.5278 28.6372C10.1059 28.2153 9.7733 27.7185 9.53081 27.1518C9.28554 26.5823 9.16499 25.9802 9.16499 25.3421C9.16499 24.704 9.2897 24.1165 9.53704 23.5491C9.78646 22.9796 10.1232 22.4814 10.5444 22.0553C10.9663 21.6272 11.4583 21.2884 12.0215 21.0417C12.5848 20.7923 13.1848 20.6676 13.8229 20.6676H31.321V21.835H30.1515L29.0007 22.9234V27.5335L30.1515 28.8464H31.321V29.9993L13.8229 30Z" fill="#D05752"/>
<path d="M26.6617 19.5133H9.16568C8.83936 19.5133 8.5359 19.4531 8.256 19.3263C7.9754 19.2016 7.72806 19.0353 7.51814 18.8233C7.30613 18.6134 7.13777 18.366 7.01306 18.0854C6.88836 17.8048 6.82808 17.5014 6.82808 17.175C6.82808 16.8487 6.88628 16.5473 7.00475 16.2674C7.1253 15.9868 7.2895 15.7395 7.50151 15.5275C7.71144 15.3176 7.96086 15.1492 8.24769 15.0245C8.53452 14.8998 8.84005 14.8374 9.16568 14.8374H26.6617V19.5133ZM11.5012 7.84332C11.177 7.84332 10.8735 7.78097 10.5936 7.65626C10.313 7.53155 10.0657 7.36527 9.85574 7.15326C9.64374 6.94334 9.47538 6.696 9.35067 6.4154C9.22596 6.13273 9.16568 5.82927 9.16568 5.50502C9.16568 5.18078 9.22596 4.87732 9.35067 4.59742C9.47538 4.31474 9.64374 4.06948 9.85574 3.85748C10.0657 3.64755 10.313 3.47919 10.5936 3.35448C10.8742 3.22977 11.1777 3.16742 11.5012 3.16742H27.8319V7.84332H11.5012ZM11.5012 10.1809H30.1688L30.1681 12.5012L11.5012 12.5019C11.177 12.5019 10.9005 12.3897 10.674 12.161C10.4474 11.9345 10.3331 11.658 10.3331 11.3345C10.3331 11.0109 10.4495 10.7504 10.6823 10.5218C10.9151 10.2952 11.1894 10.1809 11.5012 10.1809ZM10.3338 25.3414C10.3338 24.855 10.4252 24.4006 10.6102 23.9786C10.7931 23.5567 11.0426 23.1846 11.3564 22.8673C11.6703 22.5472 12.0382 22.2957 12.4594 22.1108C12.8834 21.9278 13.3358 21.8364 13.8243 21.8364H30.1695V28.8464H13.8236C13.3351 28.8464 12.8827 28.755 12.4587 28.5721C12.0368 28.3871 11.6689 28.1356 11.3557 27.8155C11.0419 27.4975 10.7924 27.1255 10.6095 26.7042C10.4246 26.2823 10.3338 25.8278 10.3338 25.3414Z" fill="#F2F2F2"/>
</svg>
