<svg width="29" height="32" viewBox="0 0 29 32" fill="none" xmlns="http://www.w3.org/2000/svg">
<g clip-path="url(#clip0_840_16498)">
<path d="M3.00652 31.5057H25.115C26.5083 31.5057 27.6396 30.3474 27.6396 28.9184V9.58398H0.481934V28.9164C0.481934 30.3454 1.61125 31.5037 3.00652 31.5037V31.5057Z" fill="white"/>
<path d="M27.6396 6.24206C27.6396 4.81105 26.5083 3.65479 25.115 3.65479H3.00652C1.61125 3.65479 0.481934 4.81303 0.481934 6.24206V9.58437H27.6396V6.24206Z" fill="#B0D178"/>
<path d="M27.6394 10.0785H0.481792C0.215843 10.0785 0 9.85712 0 9.58436V6.24205C0 4.54224 1.34902 3.16064 3.00638 3.16064H25.1148C26.7722 3.16064 28.1212 4.54421 28.1212 6.24205V9.58634C28.1212 9.8591 27.9054 10.0805 27.6394 10.0805V10.0785ZM0.963583 9.09023H27.1576V6.24008C27.1576 5.08578 26.2422 4.14693 25.1148 4.14693H3.00638C1.88091 4.14693 0.963583 5.08578 0.963583 6.24008V9.09023Z" fill="#37394A"/>
<path d="M19.3721 5.30501C19.3721 5.96913 19.8943 6.50279 20.5419 6.50279C21.1894 6.50279 21.7097 5.96715 21.7097 5.30501V1.69192C21.7097 1.03176 21.1875 0.494141 20.5419 0.494141C19.8963 0.494141 19.3721 1.03176 19.3721 1.69192V5.30501Z" fill="#F8F7FF"/>
<path d="M20.5417 6.99889C19.6321 6.99889 18.8901 6.2399 18.8901 5.30698V1.69191C18.8901 0.758987 19.6302 0 20.5417 0C21.4533 0 22.1914 0.758987 22.1914 1.69191V5.305C22.1914 6.23792 21.4513 6.99691 20.5417 6.99691V6.99889ZM20.5417 0.988264C20.1621 0.988264 19.8537 1.30451 19.8537 1.69191V5.305C19.8537 5.6924 20.1621 6.00865 20.5417 6.00865C20.9214 6.00865 21.2278 5.6924 21.2278 5.305V1.69191C21.2278 1.30451 20.9194 0.988264 20.5417 0.988264Z" fill="#37394A"/>
<path d="M12.8911 5.30501C12.8911 5.96913 13.4153 6.50279 14.0609 6.50279C14.7065 6.50279 15.2288 5.96715 15.2288 5.30501V1.69192C15.2288 1.03176 14.7065 0.494141 14.0609 0.494141C13.4153 0.494141 12.8911 1.03176 12.8911 1.69192V5.30501Z" fill="#F8F7FF"/>
<path d="M14.0608 6.99889C13.1511 6.99889 12.4092 6.2399 12.4092 5.30698V1.69191C12.4092 0.758987 13.1492 0 14.0608 0C14.9723 0 15.7104 0.758987 15.7104 1.69191V5.305C15.7104 6.23792 14.9704 6.99691 14.0608 6.99691V6.99889ZM14.0608 0.988264C13.6811 0.988264 13.3728 1.30451 13.3728 1.69191V5.305C13.3728 5.6924 13.6811 6.00865 14.0608 6.00865C14.4404 6.00865 14.7468 5.6924 14.7468 5.305V1.69191C14.7468 1.30451 14.4385 0.988264 14.0608 0.988264Z" fill="#37394A"/>
<path d="M6.41357 5.30501C6.41357 5.96913 6.93584 6.50279 7.58144 6.50279C8.22704 6.50279 8.75123 5.96715 8.75123 5.30501V1.69192C8.75123 1.03176 8.22897 0.494141 7.58144 0.494141C6.93391 0.494141 6.41357 1.03176 6.41357 1.69192V5.30501Z" fill="#F8F7FF"/>
<path d="M7.5813 6.99889C6.67167 6.99889 5.93164 6.2399 5.93164 5.30698V1.69191C5.93164 0.758987 6.67167 0 7.5813 0C8.49092 0 9.23288 0.758987 9.23288 1.69191V5.305C9.23288 6.23792 8.49284 6.99691 7.5813 6.99691V6.99889ZM7.5813 0.988264C7.20357 0.988264 6.89522 1.30451 6.89522 1.69191V5.305C6.89522 5.6924 7.20357 6.00865 7.5813 6.00865C7.95902 6.00865 8.26929 5.6924 8.26929 5.305V1.69191C8.26929 1.30451 7.96095 0.988264 7.5813 0.988264Z" fill="#37394A"/>
<path d="M6.47708 16.4666H2.75572C2.48977 16.4666 2.27393 16.2452 2.27393 15.9724V12.1558C2.27393 11.883 2.48977 11.6616 2.75572 11.6616H6.47708C6.74302 11.6616 6.95887 11.883 6.95887 12.1558V15.9724C6.95887 16.2452 6.74302 16.4666 6.47708 16.4666ZM3.23751 15.4783H5.99528V12.6499H3.23751V15.4783Z" fill="#37394A"/>
<path d="M12.9063 16.4666H9.18492C8.91897 16.4666 8.70312 16.2452 8.70312 15.9724V12.1558C8.70312 11.883 8.91897 11.6616 9.18492 11.6616H12.9063C13.1722 11.6616 13.3881 11.883 13.3881 12.1558V15.9724C13.3881 16.2452 13.1722 16.4666 12.9063 16.4666ZM9.66671 15.4783H12.4245V12.6499H9.66671V15.4783Z" fill="#37394A"/>
<path d="M19.3355 16.4666H15.6141C15.3482 16.4666 15.1323 16.2452 15.1323 15.9724V12.1558C15.1323 11.883 15.3482 11.6616 15.6141 11.6616H19.3355C19.6014 11.6616 19.8173 11.883 19.8173 12.1558V15.9724C19.8173 16.2452 19.6014 16.4666 19.3355 16.4666ZM16.0959 15.4783H18.8537V12.6499H16.0959V15.4783Z" fill="#37394A"/>
<path d="M25.7642 16.4666H22.0428C21.7769 16.4666 21.561 16.2452 21.561 15.9724V12.1558C21.561 11.883 21.7769 11.6616 22.0428 11.6616H25.7642C26.0301 11.6616 26.246 11.883 26.246 12.1558V15.9724C26.246 16.2452 26.0301 16.4666 25.7642 16.4666ZM22.5246 15.4783H25.2824V12.6499H22.5246V15.4783Z" fill="#37394A"/>
<path d="M6.47708 29.6541H2.75572C2.48977 29.6541 2.27393 29.4327 2.27393 29.1599V25.3433C2.27393 25.0705 2.48977 24.8491 2.75572 24.8491H6.47515C6.7411 24.8491 6.95694 25.0705 6.95694 25.3433V29.1599C6.95694 29.4327 6.7411 29.6541 6.47515 29.6541H6.47708ZM3.23944 28.6658H5.99528V25.8374H3.23944V28.6658Z" fill="#37394A"/>
<path d="M6.47708 23.0623H2.75572C2.48977 23.0623 2.27393 22.8409 2.27393 22.5681V18.7515C2.27393 18.4787 2.48977 18.2573 2.75572 18.2573H6.47515C6.7411 18.2573 6.95694 18.4787 6.95694 18.7515V22.5681C6.95694 22.8409 6.7411 23.0623 6.47515 23.0623H6.47708ZM3.23944 22.074H5.99528V19.2456H3.23944V22.074Z" fill="#37394A"/>
<path d="M12.9063 29.6541H9.18492C8.91897 29.6541 8.70312 29.4327 8.70312 29.1599V25.3433C8.70312 25.0705 8.91897 24.8491 9.18492 24.8491H12.9063C13.1722 24.8491 13.3881 25.0705 13.3881 25.3433V29.1599C13.3881 29.4327 13.1722 29.6541 12.9063 29.6541ZM9.66671 28.6658H12.4245V25.8374H9.66671V28.6658Z" fill="#37394A"/>
<path d="M12.9063 23.0623H9.18492C8.91897 23.0623 8.70312 22.8409 8.70312 22.5681V18.7515C8.70312 18.4787 8.91897 18.2573 9.18492 18.2573H12.9063C13.1722 18.2573 13.3881 18.4787 13.3881 18.7515V22.5681C13.3881 22.8409 13.1722 23.0623 12.9063 23.0623ZM9.66671 22.074H12.4245V19.2456H9.66671V22.074Z" fill="#37394A"/>
<path d="M19.3355 29.6541H15.6161C15.3501 29.6541 15.1343 29.4327 15.1343 29.1599V25.3433C15.1343 25.0705 15.3501 24.8491 15.6161 24.8491H19.3355C19.6014 24.8491 19.8173 25.0705 19.8173 25.3433V29.1599C19.8173 29.4327 19.6014 29.6541 19.3355 29.6541ZM16.0979 28.6658H18.8537V25.8374H16.0979V28.6658Z" fill="#37394A"/>
<path d="M25.7623 29.6541H22.0428C21.7769 29.6541 21.561 29.4327 21.561 29.1599V25.3433C21.561 25.0705 21.7769 24.8491 22.0428 24.8491H25.7623C26.0282 24.8491 26.244 25.0705 26.244 25.3433V29.1599C26.244 29.4327 26.0282 29.6541 25.7623 29.6541ZM22.5246 28.6658H25.2805V25.8374H22.5246V28.6658Z" fill="#37394A"/>
<path d="M19.3355 23.0623H15.6161C15.3501 23.0623 15.1343 22.8409 15.1343 22.5681V18.7515C15.1343 18.4787 15.3501 18.2573 15.6161 18.2573H19.3355C19.6014 18.2573 19.8173 18.4787 19.8173 18.7515V22.5681C19.8173 22.8409 19.6014 23.0623 19.3355 23.0623ZM16.0979 22.074H18.8537V19.2456H16.0979V22.074Z" fill="#37394A"/>
<path d="M25.7623 23.0623H22.0428C21.7769 23.0623 21.561 22.8409 21.561 22.5681V18.7515C21.561 18.4787 21.7769 18.2573 22.0428 18.2573H25.7623C26.0282 18.2573 26.244 18.4787 26.244 18.7515V22.5681C26.244 22.8409 26.0282 23.0623 25.7623 23.0623ZM22.5246 22.074H25.2805V19.2456H22.5246V22.074Z" fill="#37394A"/>
<path d="M25.1148 31.9998H3.00638C1.34902 31.9998 0 30.6182 0 28.9184V9.58398C0 9.31121 0.215843 9.08984 0.481792 9.08984H27.6394C27.9054 9.08984 28.1212 9.31121 28.1212 9.58398V28.9164C28.1212 30.6162 26.7722 31.9978 25.1148 31.9978V31.9998ZM0.963583 10.0781V28.9164C0.963583 30.0707 1.87899 31.0095 3.00638 31.0095H25.1148C26.2403 31.0095 27.1576 30.0707 27.1576 28.9164V10.0781H0.963583Z" fill="#37394A"/>
</g>
<defs>
<clipPath id="clip0_840_16498">
<rect width="28.1212" height="32" fill="white"/>
</clipPath>
</defs>
</svg>
