<svg width="30" height="32" viewBox="0 0 30 32" fill="none" xmlns="http://www.w3.org/2000/svg">
<path d="M27.4354 7.99988C27.7534 7.99988 28.05 8.06079 28.3262 8.1826C28.6019 8.30441 28.8432 8.46899 29.0501 8.67541C29.257 8.8823 29.4183 9.1236 29.535 9.39929C29.6517 9.67499 29.7098 9.97208 29.7098 10.2901V23.4273C29.7098 24.6147 29.4843 25.7282 29.0338 26.7673C28.5828 27.8064 27.9705 28.713 27.1969 29.4871C26.4228 30.2612 25.5162 30.8735 24.4771 31.324C23.438 31.7745 22.3245 32 21.1371 32C20.6387 32 20.1324 31.9549 19.6182 31.8647C19.104 31.7745 18.6029 31.6392 18.1152 31.4593C17.6275 31.2789 17.1583 31.0562 16.7074 30.7912C16.2564 30.5262 15.851 30.2184 15.4907 29.8688L2.94248 17.7655C2.60309 17.4261 2.43339 17.0235 2.43339 16.5567C2.43339 16.3238 2.47849 16.1034 2.56868 15.8966C2.65841 15.6897 2.78348 15.5097 2.94248 15.3559C3.10148 15.2024 3.28466 15.0802 3.49109 14.99C3.69798 14.9002 3.91788 14.8547 4.15127 14.8547C4.40558 14.8547 4.62549 14.897 4.81146 14.9821C4.99696 15.0671 5.18526 15.1889 5.37587 15.348C6.30897 16.122 7.19929 16.9519 8.04777 17.8371C8.89579 18.7223 9.76007 19.5843 10.6402 20.4216C10.6932 20.4746 10.7462 20.5197 10.7992 20.5569C10.8522 20.5941 10.9159 20.6127 10.9903 20.6127C11.0749 20.6127 11.1679 20.5676 11.2687 20.4774C11.3692 20.3872 11.4198 20.2998 11.4198 20.2152C11.4198 20.1306 11.3933 20.059 11.3403 20.0004C11.2873 19.9423 11.2343 19.8865 11.1813 19.8335C9.68615 18.3174 8.20445 16.8064 6.73577 15.3005C5.26708 13.7951 3.80677 12.2683 2.35389 10.7201C2.49151 10.211 2.76488 9.80052 3.17308 9.48763C3.58128 9.1752 4.04527 9.01852 4.56459 9.01852C4.89329 9.01852 5.18479 9.07711 5.43957 9.19334C5.69388 9.31003 5.94308 9.47461 6.18716 9.68615C6.85525 10.2696 7.51265 10.8736 8.15935 11.4993C8.80606 12.1251 9.44765 12.7583 10.0837 13.3999C10.7197 14.0415 11.3561 14.6859 11.9922 15.3321C12.6282 15.9788 13.2646 16.6153 13.9007 17.2406C13.9537 17.2936 14.0067 17.3415 14.0597 17.3838C14.1127 17.4261 14.1763 17.4475 14.2507 17.4475C14.3354 17.4475 14.4283 17.4052 14.5292 17.3201C14.6296 17.2355 14.6803 17.1504 14.6803 17.0658C14.6803 17.0449 14.6696 17.0235 14.6487 17.0021C14.6273 16.9812 14.6064 16.9598 14.585 16.9384C14.0336 16.2917 13.4608 15.6636 12.8671 15.0537C12.273 14.4441 11.6848 13.8318 11.1018 13.2168C10.1897 12.252 9.28074 11.2897 8.37414 10.3301C7.46755 9.37047 6.54236 8.41924 5.59857 7.47499C5.74688 6.97659 6.01746 6.57118 6.40986 6.25829C6.80178 5.94587 7.26345 5.78919 7.79346 5.78919C8.12216 5.78919 8.41366 5.84777 8.66844 5.964C8.92275 6.08069 9.17195 6.24528 9.41603 6.45681C9.69173 6.71113 9.95906 6.97659 10.2194 7.25183C10.4793 7.52753 10.7466 7.79811 11.0228 8.06311C12.0512 9.04921 13.0796 10.0195 14.1085 10.9735C15.1369 11.928 16.1546 12.9034 17.1621 13.9002C17.2151 13.9532 17.2681 14.009 17.3211 14.0671C17.3741 14.1257 17.4429 14.1545 17.528 14.1545C17.613 14.1545 17.6977 14.1122 17.7823 14.0271C17.8669 13.9425 17.9097 13.8574 17.9097 13.7728C17.9097 13.7412 17.8144 13.6138 17.6233 13.3911C17.4322 13.1684 17.1751 12.882 16.852 12.5324C16.5284 12.1823 16.1602 11.7904 15.7464 11.3557C15.3331 10.921 14.9058 10.4728 14.466 10.0116C14.0257 9.55039 13.5859 9.09477 13.1461 8.6438C12.7058 8.19329 12.3004 7.77719 11.9294 7.39549C11.5579 7.01379 11.2399 6.68788 10.9749 6.4173C10.7099 6.14671 10.5295 5.964 10.4342 5.86869C10.5825 5.3596 10.8531 4.94908 11.2455 4.63619C11.6374 4.32376 12.1042 4.16708 12.6449 4.16708C12.9522 4.16708 13.2465 4.22566 13.5278 4.34189C13.8086 4.45859 14.055 4.62317 14.2675 4.83517L24.4148 14.9825C24.4678 15.0355 24.5101 15.0992 24.5422 15.1736C24.5738 15.248 24.611 15.3168 24.6533 15.3805L25.1461 15.7143V10.291C25.1461 9.97301 25.2043 9.67639 25.321 9.40022C25.4377 9.12453 25.5994 8.88323 25.8059 8.67634C26.0128 8.46945 26.2564 8.30534 26.5377 8.18353C26.8185 8.06172 27.1183 8.00081 27.4363 8.00081L27.4354 7.99988Z" fill="#FFC83D"/>
<path d="M2.27439 11.2762C2.27439 11.0958 2.30089 10.9108 2.35389 10.7201L11.4356 19.7852C11.5523 19.9018 11.6105 20.0395 11.6105 20.1985C11.6105 20.3575 11.5496 20.4928 11.4277 20.6039C11.3059 20.715 11.1706 20.7708 11.0223 20.7708C10.874 20.7708 10.7411 20.7127 10.6248 20.596L2.94248 12.9304C2.73048 12.7184 2.5659 12.4668 2.44967 12.1749C2.33297 11.8834 2.27439 11.584 2.27439 11.2762ZM5.5028 8.09519C5.5028 7.88319 5.53441 7.68188 5.59811 7.4908L14.6636 16.5563C14.7803 16.673 14.8384 16.8106 14.8384 16.9696C14.8384 17.1286 14.7775 17.2639 14.6557 17.375C14.5339 17.4861 14.3986 17.5419 14.2503 17.5419C14.102 17.5419 13.969 17.4838 13.8528 17.3671L6.17089 9.68615C5.96911 9.48484 5.80779 9.24076 5.68598 8.95437C5.56417 8.66798 5.50326 8.38158 5.50326 8.09566L5.5028 8.09519ZM10.4491 5.86869L17.8925 13.3279C18.0092 13.4446 18.0673 13.5822 18.0673 13.7412C18.0673 13.89 18.0087 14.0225 17.8925 14.1387C17.7758 14.2554 17.6433 14.3135 17.495 14.3135C17.3466 14.3135 17.2137 14.2554 17.0974 14.1387L11.0219 8.06358C10.8099 7.85158 10.6481 7.60517 10.537 7.32389C10.4258 7.04308 10.37 6.74878 10.37 6.44101C10.37 6.3457 10.3752 6.24992 10.3859 6.15462C10.3961 6.05931 10.4175 5.96353 10.4495 5.86822L10.4491 5.86869ZM20.5964 22.3301C20.5964 22.9243 20.6838 23.4464 20.8586 23.8969C21.0335 24.3479 21.2269 24.7375 21.4393 25.0657C21.6513 25.3944 21.8447 25.6678 22.02 25.8849C22.1948 26.1025 22.2822 26.2643 22.2822 26.3698C22.2822 26.5186 22.2237 26.6511 22.1074 26.7673C21.9907 26.884 21.8582 26.9421 21.7099 26.9421C21.6146 26.9421 21.5402 26.9263 21.4872 26.8942C21.4342 26.8626 21.3761 26.8203 21.3124 26.7669C21.026 26.5125 20.7689 26.2076 20.5411 25.8524C20.3128 25.4972 20.1194 25.1206 19.9604 24.7231C19.8014 24.3256 19.6791 23.9174 19.5945 23.4985C19.5094 23.0796 19.4671 22.6849 19.4671 22.3134C19.4671 21.4863 19.6234 20.6834 19.9362 19.9037C20.2487 19.1245 20.7075 18.4485 21.3119 17.8757L24.3655 14.9332L25.1448 15.7124L22.107 18.6865C21.6193 19.1636 21.2455 19.7205 20.9856 20.3565C20.7257 20.9925 20.596 21.6504 20.596 22.3287L20.5964 22.3301Z" fill="#FFAF00"/>
<path d="M7.99988 29.1533C7.99988 29.3016 7.9413 29.4341 7.82507 29.5508C7.70838 29.6675 7.57588 29.7256 7.42757 29.7256C6.39916 29.7256 5.43399 29.5294 4.53297 29.137C3.63149 28.7446 2.84438 28.2118 2.17118 27.5386C1.49751 26.8654 0.967499 26.0783 0.580686 25.1768C0.193407 24.2758 0 23.3106 0 22.2822C0 22.1232 0.0557904 21.9879 0.166906 21.8768C0.278022 21.7657 0.413314 21.7099 0.572317 21.7099C0.73132 21.7099 0.866612 21.7657 0.977727 21.8768C1.08884 21.9879 1.14463 22.1232 1.14463 22.2822C1.14463 23.1516 1.30875 23.968 1.63745 24.7314C1.96615 25.4948 2.41387 26.1629 2.98153 26.7352C3.54874 27.308 4.21404 27.7585 4.97744 28.0872C5.74084 28.4159 6.55724 28.58 7.42664 28.58C7.58564 28.58 7.72093 28.6358 7.83205 28.747C7.94316 28.8581 7.99895 28.9934 7.99895 29.1524L7.99988 29.1533ZM7.99988 25.718C7.99988 25.877 7.94409 26.0123 7.83298 26.1234C7.72186 26.2345 7.58657 26.2903 7.42757 26.2903C6.87617 26.2903 6.35639 26.1843 5.86869 25.9723C5.38099 25.7603 4.95652 25.4739 4.5962 25.1136C4.23542 24.7533 3.9495 24.3293 3.73749 23.8411C3.52549 23.3534 3.41949 22.8341 3.41949 22.2822C3.41949 22.1232 3.47528 21.9879 3.5864 21.8768C3.69751 21.7657 3.8328 21.7099 3.99181 21.7099C4.15081 21.7099 4.2861 21.7657 4.39722 21.8768C4.50833 21.9879 4.56412 22.1232 4.56412 22.2822C4.56412 22.6853 4.63805 23.0591 4.78682 23.4036C4.93513 23.7481 5.13923 24.0503 5.39912 24.3102C5.65901 24.5701 5.96121 24.7742 6.30571 24.9225C6.65022 25.0713 7.02402 25.1452 7.4271 25.1452C7.58611 25.1452 7.7214 25.201 7.83251 25.3121C7.94363 25.4232 7.99942 25.5585 7.99942 25.7175L7.99988 25.718ZM17.7177 0C18.7354 0 19.695 0.196196 20.5964 0.588589C21.4975 0.980982 22.285 1.51378 22.9582 2.18699C23.6314 2.86065 24.1642 3.64776 24.5566 4.54878C24.9486 5.45026 25.1452 6.40986 25.1452 7.42757C25.1452 7.58657 25.0894 7.72186 24.9783 7.83298C24.8672 7.94409 24.7319 7.99988 24.5729 7.99988C24.4139 7.99988 24.2786 7.94409 24.1675 7.83298C24.0564 7.72186 24.0006 7.58657 24.0006 7.42757C24.0006 6.55817 23.836 5.74177 23.5078 4.97837C23.1791 4.21497 22.7309 3.54967 22.1637 2.98246C21.5965 2.41526 20.9312 1.96708 20.1678 1.63838C19.4044 1.30968 18.588 1.14556 17.7186 1.14556C17.5596 1.14556 17.4243 1.08977 17.3132 0.978657C17.2021 0.867541 17.1463 0.73225 17.1463 0.573247C17.1463 0.414244 17.2021 0.278952 17.3132 0.167836C17.4243 0.0567203 17.5596 0.000929841 17.7186 0.000929841L17.7177 0ZM17.7177 3.41949C18.269 3.41949 18.7856 3.52549 19.2682 3.73749C19.7507 3.9495 20.172 4.23868 20.5327 4.60411C20.8931 4.97 21.1794 5.39401 21.3915 5.87659C21.6035 6.35918 21.7095 6.87617 21.7095 7.4271C21.7095 7.58611 21.6537 7.7214 21.5425 7.83251C21.4314 7.94363 21.2961 7.99942 21.1371 7.99942C20.9884 7.99942 20.8559 7.9413 20.7396 7.82461C20.6229 7.70791 20.5648 7.57541 20.5648 7.4271C20.5648 7.03517 20.4904 6.6637 20.3421 6.31362C20.1934 5.96353 19.9897 5.65901 19.7298 5.39912C19.4699 5.13923 19.1677 4.93559 18.8232 4.78682C18.4787 4.63851 18.11 4.56412 17.7177 4.56412C17.5586 4.56412 17.4234 4.50833 17.3122 4.39722C17.2011 4.2861 17.1453 4.15081 17.1453 3.99181C17.1453 3.8328 17.2011 3.69751 17.3122 3.5864C17.4234 3.47528 17.5586 3.41949 17.7177 3.41949Z" fill="#76B9E3"/>
</svg>
