<svg width="24" height="24" viewBox="0 0 24 24" fill="none" xmlns="http://www.w3.org/2000/svg">
<path d="M16.2482 10.3359C16.5284 10.2958 16.8151 10.2741 17.1074 10.2741C20.363 10.2741 23 12.848 23 16.032V21.4724C23 21.5786 22.9548 21.6751 22.8842 21.7444C22.8136 21.8138 22.7166 21.8571 22.6085 21.8571H17.9786M6.06768 21.8571H1.39042C1.17536 21.8561 1 21.6848 1 21.4724V16.032C1 14.44 1.65841 13.0008 2.72488 11.9593C3.79136 10.9178 5.26479 10.2741 6.89262 10.2741C7.18378 10.2741 7.46942 10.2958 7.74845 10.3359M12.284 21.8561H19.4653C19.6826 21.8561 19.8579 21.6816 19.8568 21.4681V21.0834C19.8568 18.5246 17.7492 16.4503 15.1443 16.4503C14.2201 16.4503 13.3609 16.7159 12.633 17.1667M17.1063 3C18.8367 3 20.2494 4.38502 20.2494 6.08759C20.2494 7.79015 18.8378 9.17734 17.1063 9.17734C15.3748 9.17734 13.9631 7.78906 13.9631 6.08759C13.9631 4.38611 15.3759 3 17.1063 3ZM6.89262 3C8.62302 3 10.0358 4.38502 10.0358 6.08759C10.0358 7.79015 8.62412 9.17734 6.89262 9.17734C5.16112 9.17734 3.74945 7.78906 3.74945 6.08759C3.74945 4.38611 5.16222 3 6.89262 3ZM8.68919 10.1527C7.32384 10.1527 6.20774 11.2505 6.20774 12.5922C6.20774 13.9339 7.32384 15.0296 8.68919 15.0296C10.0545 15.0296 11.1706 13.935 11.1706 12.5922C11.1706 11.2495 10.0545 10.1527 8.68919 10.1527ZM8.85573 16.4514C6.25075 16.4514 4.14317 18.5246 4.14317 21.0844V21.4692C4.14317 21.5721 4.18398 21.6697 4.25677 21.7423C4.32956 21.8149 4.42992 21.8561 4.53469 21.8561H13.1779C13.2826 21.8561 13.383 21.816 13.4569 21.7433C13.5308 21.6707 13.5727 21.5721 13.5716 21.4692V21.0844C13.5716 18.5257 11.4607 16.4514 8.85573 16.4514ZM15.3097 10.1527C13.9433 10.1527 12.8272 11.2505 12.8272 12.5922C12.8272 13.9339 13.9444 15.0296 15.3097 15.0296C16.6751 15.0296 17.7901 13.935 17.7901 12.5922C17.7901 11.2495 16.6762 10.1527 15.3097 10.1527Z" stroke="#5D53C0" stroke-width="2" stroke-miterlimit="10"/>
</svg>
