<svg width="1440" height="900" viewBox="0 0 1440 900" fill="none" xmlns="http://www.w3.org/2000/svg">
<path opacity="0.15" d="M757.426 1101L719.5 380.5L681.574 1101H757.426ZM443.108 1101L719.5 380.5L352.195 1101H443.108ZM251.775 1101L719.5 380.5L135.745 1101H251.775ZM-1 657.292L719.5 380.5L-1 573.384V657.242V657.292ZM-1 1101H-0.899931L719.5 380.5L-1 963.505V1101ZM-1 848.525L719.5 380.5L-1 747.355V848.525ZM1440 418.076L719.5 380.5L1440 494.729V418.076ZM1440 573.434L719.5 380.55L1440 657.342V573.484V573.434ZM1440 747.355L719.5 380.5L1440 848.525V747.355ZM912.834 1101L719.5 380.5L833.529 1101H912.834ZM-1 494.729L719.5 380.5L-1 418.076V494.729ZM1086.8 1101L719.5 380.5L995.892 1101H1086.8ZM1303.26 1101L719.5 380.5L1187.22 1101H1303.26ZM1440 1101V963.505L719.5 380.5L1439.9 1101H1440ZM605.471 1101L719.5 380.5L526.166 1101H605.471ZM1187.22 -340L719.5 380.5L1303.26 -340H1187.22ZM833.529 -340L719.5 380.5L912.834 -340H833.529ZM995.892 -340L719.5 380.5L1086.8 -340H995.892ZM-1 342.924L719.5 380.5L-1 266.271V342.924ZM1440 266.271L719.5 380.5L1440 342.924V266.271ZM1440 -87.5248L719.5 380.5L1440 13.6955V-87.4747V-87.5248ZM1440 103.708L719.5 380.5L1440 187.616V103.758V103.708ZM1440 -340H1439.9L719.5 380.5L1440 -202.505V-340V-340ZM681.574 -340L719.5 380.5L757.426 -340H681.574ZM-1 -340V-202.505L719.5 380.5L-0.899931 -340H-1ZM-1 187.616L719.5 380.5L-1 103.708V187.566V187.616ZM-1 13.6955L719.5 380.5L-1 -87.5248V13.6454V13.6955ZM526.166 -340L719.5 380.5L605.471 -340H526.166ZM352.195 -340L719.5 380.5L443.108 -340H352.195ZM135.745 -340L719.5 380.5L251.775 -340H135.745Z" fill="url(#paint0_radial_902_1811)"/>
<defs>
<radialGradient id="paint0_radial_902_1811" cx="0" cy="0" r="1" gradientUnits="userSpaceOnUse" gradientTransform="translate(719.5 380.5) rotate(90) scale(720.5)">
<stop stop-color="white"/>
<stop offset="1" stop-color="white" stop-opacity="0"/>
</radialGradient>
</defs>
</svg>
