<svg width="24" height="24" viewBox="0 0 24 24" fill="none" xmlns="http://www.w3.org/2000/svg">
<path d="M19.6575 9.20252C19.386 9.13323 19.152 8.96111 19.005 8.72252L17.76 6.63752C17.5182 6.23633 17.1816 5.90055 16.7799 5.65961C16.3782 5.41867 15.9235 5.27991 15.4557 5.25548C14.9879 5.23105 14.5212 5.32171 14.0966 5.5195C13.672 5.71729 13.3023 6.01619 13.02 6.39002L11.9025 7.89002C11.6576 8.22354 11.3254 8.48305 10.9425 8.64002L9 9.39002V3.84002C9 3.21941 8.75347 2.62422 8.31463 2.18539C7.8758 1.74655 7.28061 1.50002 6.66 1.50002C6.35224 1.49802 6.04717 1.55735 5.76259 1.67453C5.47801 1.79171 5.21962 1.9644 5.0025 2.18252L4.095 3.09752L3.435 3.31502C2.87129 3.50254 2.38096 3.86286 2.03362 4.34483C1.68627 4.8268 1.49957 5.40593 1.5 6.00002C1.5 6.19893 1.57902 6.3897 1.71967 6.53035C1.86032 6.671 2.05109 6.75002 2.25 6.75002H4.5V12.06C4.49855 12.6246 4.62459 13.1822 4.86874 13.6913C5.11288 14.2004 5.46882 14.6477 5.91 15L8.535 17.1C8.60553 17.1583 8.68718 17.2017 8.775 17.2275L8.925 18.2925C8.96245 18.5804 8.9472 18.8726 8.88 19.155L8.25 21.57C8.22191 21.6807 8.21947 21.7964 8.24287 21.9081C8.26626 22.0199 8.31488 22.1249 8.385 22.215C8.45794 22.3075 8.55162 22.3814 8.65847 22.431C8.76531 22.4805 8.88231 22.5041 9 22.5H11.25C11.4343 22.5014 11.6126 22.4348 11.7509 22.3131C11.8892 22.1913 11.9779 22.023 12 21.84L12.66 16.5H14.7525C15.5639 16.5 16.3534 16.2369 17.0025 15.75L18.1875 14.8575L18.675 18.2775C18.7124 18.5654 18.6972 18.8576 18.63 19.14L18 21.57C17.9719 21.6807 17.9695 21.7964 17.9929 21.9081C18.0163 22.0199 18.0649 22.1249 18.135 22.215C18.2079 22.3075 18.3016 22.3814 18.4085 22.431C18.5153 22.4805 18.6323 22.5041 18.75 22.5H21C21.1798 22.5023 21.3544 22.44 21.492 22.3244C21.6297 22.2087 21.7213 22.0475 21.75 21.87L22.5 17.37C22.504 17.3301 22.504 17.2899 22.5 17.25V12.84C22.4998 12.0035 22.2199 11.1911 21.7048 10.532C21.1898 9.87293 20.4691 9.40495 19.6575 9.20252ZM21 17.19L20.3625 21H19.71L20.085 19.5C20.2029 19.0294 20.2284 18.5403 20.16 18.06L19.5 13.395C19.5 13.395 19.5 13.395 19.5 13.3575C19.5 13.32 19.5 13.2675 19.455 13.215C19.4371 13.1703 19.4144 13.1275 19.3875 13.0875C19.3875 13.0875 19.3875 13.0875 19.3875 13.05C19.3644 13.0255 19.3393 13.0029 19.3125 12.9825C19.2806 12.9441 19.2426 12.9112 19.2 12.885C19.1564 12.8551 19.1083 12.8323 19.0575 12.8175C19.0087 12.7872 18.9556 12.7645 18.9 12.75H18.75C18.75 12.75 18.69 12.75 18.66 12.75H18.6225L18.48 12.795L18.345 12.8625L16.1475 14.5125C15.758 14.8046 15.2843 14.9625 14.7975 14.9625H12C11.8157 14.9612 11.6374 15.0277 11.4991 15.1495C11.3608 15.2712 11.2721 15.4396 11.25 15.6225L10.59 21H9.96L10.335 19.5C10.4529 19.0294 10.4784 18.5403 10.41 18.06L9.75 13.395C9.73621 13.2965 9.70316 13.2017 9.65273 13.116C9.6023 13.0303 9.53548 12.9553 9.45608 12.8954C9.37669 12.8355 9.28628 12.7919 9.19001 12.7669C9.09374 12.742 8.99349 12.7362 8.895 12.75C8.79651 12.7638 8.7017 12.7969 8.61598 12.8473C8.53026 12.8977 8.45532 12.9645 8.39542 13.0439C8.33553 13.1233 8.29186 13.2137 8.26691 13.31C8.24196 13.4063 8.23621 13.5065 8.25 13.605L8.4675 15.105L6.8475 13.815C6.58371 13.6047 6.37057 13.3378 6.22387 13.034C6.07717 12.7303 6.00066 12.3974 6 12.06V6.00002C6 5.80111 5.92098 5.61034 5.78033 5.46969C5.63968 5.32904 5.44891 5.25002 5.25 5.25002H3.2325C3.39545 5.01057 3.63264 4.83136 3.9075 4.74002L4.74 4.50002C4.84945 4.46205 4.94928 4.40061 5.0325 4.32002L6.0675 3.24752C6.18496 3.13063 6.33437 3.0511 6.49693 3.01893C6.65949 2.98676 6.82793 3.00339 6.98106 3.06673C7.13419 3.13006 7.26517 3.23727 7.35751 3.37487C7.44984 3.51247 7.49942 3.67431 7.5 3.84002V10.5C7.49982 10.6229 7.52981 10.7439 7.58735 10.8524C7.6449 10.961 7.72822 11.0537 7.83 11.1225C7.93134 11.1909 8.04787 11.2335 8.16944 11.2466C8.29101 11.2597 8.41393 11.2428 8.5275 11.1975L11.5275 10.0125C12.1659 9.75515 12.7212 9.32701 13.1325 8.77502L14.25 7.27502C14.3839 7.09716 14.5594 6.95494 14.7611 6.8609C14.9629 6.76685 15.1847 6.72387 15.407 6.73572C15.6292 6.74758 15.8452 6.81391 16.0358 6.92888C16.2264 7.04385 16.3858 7.20393 16.5 7.39502L17.7525 9.48002C17.9249 9.76851 18.1529 10.0199 18.4233 10.2194C18.6937 10.419 19.001 10.5628 19.3275 10.6425C19.8108 10.7709 20.2377 11.0566 20.5405 11.4545C20.8434 11.8524 21.0051 12.34 21 12.84V17.19Z" fill="#E1DEFD"/>
<path fill-rule="evenodd" clip-rule="evenodd" d="M21 12.84C21.0051 12.34 20.8434 11.8524 20.5405 11.4545C20.2377 11.0566 19.8108 10.7709 19.3275 10.6425C19.001 10.5628 18.6937 10.419 18.4233 10.2194C18.1529 10.0199 17.9249 9.76851 17.7525 9.48002L16.5 7.39502C16.3858 7.20393 16.2264 7.04385 16.0358 6.92888C15.8452 6.81391 15.6292 6.74758 15.407 6.73572C15.1847 6.72387 14.9629 6.76685 14.7611 6.8609C14.5594 6.95494 14.3839 7.09716 14.25 7.27502L13.1325 8.77502C12.7212 9.32701 12.1659 9.75515 11.5275 10.0125L8.5275 11.1975C8.41393 11.2428 8.29101 11.2597 8.16944 11.2466C8.04787 11.2335 7.93134 11.1909 7.83 11.1225C7.72822 11.0537 7.6449 10.961 7.58735 10.8524C7.52981 10.7439 7.49982 10.6229 7.5 10.5V3.84002C7.49942 3.67431 7.44985 3.51247 7.35751 3.37487C7.26517 3.23727 7.13419 3.13006 6.98106 3.06673C6.82793 3.00339 6.65949 2.98676 6.49693 3.01893C6.33438 3.0511 6.18497 3.13063 6.0675 3.24752L5.0325 4.32002C4.94928 4.40061 4.84945 4.46205 4.74 4.50002L3.9075 4.74002C3.63264 4.83136 3.39545 5.01057 3.2325 5.25002H5.25C5.31103 5.25002 5.3713 5.25746 5.42959 5.27183C5.56126 5.30431 5.68284 5.37219 5.78033 5.46969C5.92098 5.61034 6 5.80111 6 6.00002V12.06C6.00066 12.3974 6.07717 12.7303 6.22387 13.034C6.37057 13.3378 6.58371 13.6047 6.8475 13.815L8.4675 15.105L8.25 13.605C8.23621 13.5065 8.24196 13.4063 8.26691 13.31C8.29186 13.2137 8.33553 13.1233 8.39543 13.0439C8.45532 12.9645 8.53026 12.8977 8.61598 12.8473C8.7017 12.7969 8.79651 12.7638 8.895 12.75C8.99349 12.7362 9.09374 12.742 9.19001 12.7669C9.28628 12.7919 9.37669 12.8355 9.45609 12.8954C9.53548 12.9553 9.6023 13.0303 9.65273 13.116C9.70316 13.2017 9.73621 13.2965 9.75 13.395L10.41 18.06C10.4784 18.5403 10.4529 19.0294 10.335 19.5L9.96 21H10.59L10.761 19.6068L11.25 15.6225C11.2721 15.4396 11.3608 15.2712 11.4991 15.1495C11.6374 15.0277 11.8157 14.9612 12 14.9625H14.7975C15.2843 14.9625 15.758 14.8046 16.1475 14.5125L18.345 12.8625L18.48 12.795L18.6225 12.75H18.9C18.9556 12.7645 19.0087 12.7872 19.0575 12.8175C19.1083 12.8323 19.1564 12.8551 19.2 12.885C19.2426 12.9112 19.2806 12.9441 19.3125 12.9825C19.3393 13.0029 19.3644 13.0255 19.3875 13.05V13.0875C19.4144 13.1275 19.4371 13.1703 19.455 13.215C19.5 13.2675 19.5 13.32 19.5 13.3575V13.395L20.16 18.06C20.2284 18.5403 20.2029 19.0294 20.085 19.5L19.71 21H20.3625L20.5922 19.6271L20.8713 17.9594L21 17.19V12.84ZM13.02 6.39002C13.3023 6.01619 13.672 5.71729 14.0966 5.5195C14.5212 5.32171 14.9879 5.23105 15.4557 5.25548C15.9235 5.27991 16.3782 5.41867 16.7799 5.65961C17.1816 5.90055 17.5182 6.23633 17.76 6.63752L19.005 8.72252C19.152 8.96111 19.386 9.13323 19.6575 9.20252C20.4691 9.40495 21.1898 9.87293 21.7048 10.532C22.2199 11.1911 22.4998 12.0035 22.5 12.84V17.25C22.504 17.2899 22.504 17.3301 22.5 17.37L21.75 21.87C21.7213 22.0475 21.6297 22.2087 21.492 22.3244C21.3544 22.44 21.1798 22.5023 21 22.5H18.75C18.6323 22.5041 18.5153 22.4805 18.4085 22.431C18.3016 22.3814 18.2079 22.3075 18.135 22.215C18.0649 22.1249 18.0163 22.0199 17.9929 21.9081C17.9695 21.7964 17.9719 21.6807 18 21.57L18.63 19.14C18.6972 18.8576 18.7124 18.5654 18.675 18.2775L18.1875 14.8575L17.0025 15.75C16.3534 16.2369 15.5639 16.5 14.7525 16.5H12.66L12 21.84C11.9779 22.023 11.8892 22.1913 11.7509 22.3131C11.6126 22.4348 11.4343 22.5014 11.25 22.5H9C8.88231 22.5041 8.76531 22.4805 8.65847 22.431C8.55162 22.3814 8.45794 22.3075 8.385 22.215C8.31488 22.1249 8.26626 22.0199 8.24287 21.9081C8.21947 21.7964 8.22191 21.6807 8.25 21.57L8.88 19.155C8.9472 18.8726 8.96245 18.5804 8.925 18.2925L8.775 17.2275C8.68718 17.2017 8.60553 17.1583 8.535 17.1L5.91 15C5.46882 14.6477 5.11288 14.2004 4.86874 13.6913C4.6246 13.1822 4.49855 12.6246 4.5 12.06V6.75002H2.25C2.05109 6.75002 1.86032 6.671 1.71967 6.53035C1.63982 6.4505 1.57983 6.35449 1.54289 6.25002C1.51674 6.17604 1.50214 6.09782 1.50022 6.01808C1.50007 6.01207 1.5 6.00605 1.5 6.00002C1.49957 5.40593 1.68628 4.8268 2.03362 4.34483C2.38096 3.86286 2.87129 3.50254 3.435 3.31502L4.095 3.09752L5.0025 2.18252C5.21962 1.9644 5.47801 1.79171 5.76259 1.67453C6.04718 1.55735 6.35225 1.49802 6.66 1.50002C7.28061 1.50002 7.8758 1.74655 8.31463 2.18539C8.75347 2.62422 9 3.21941 9 3.84002V9.39002L10.9425 8.64002C11.3254 8.48305 11.6576 8.22354 11.9025 7.89002L13.02 6.39002Z" fill="#E1DEFD"/>
</svg>
