<svg width="103" height="105" viewBox="0 0 103 105" fill="none" xmlns="http://www.w3.org/2000/svg">
<path d="M68.9102 62.4082C68.9102 62.4082 72.5355 71.8604 78.5098 73.3971C78.5098 73.3971 76.7661 69.8345 75.9131 68.5613C75.0616 67.288 69.6315 61.8312 69.6315 61.8312L68.9102 62.4098V62.4082Z" fill="#98C03D"/>
<path d="M92.7661 47.4866C92.7582 47.5038 92.7488 47.5117 92.7488 47.5117L92.7739 47.4866C92.8742 47.3862 93.2788 46.9315 93.8684 46.3341L93.928 46.2745C94.3074 45.8793 94.77 45.4246 95.2749 44.9777C96.2267 44.1027 97.3197 43.2278 98.3138 42.7307C98.9614 42.403 99.5683 42.243 100.064 42.3434C102.453 42.8154 96.9998 46.8123 96.4196 50.9034C95.8394 55.0101 98.1288 57.9565 96.6972 58.8989C95.5776 59.6562 93.0452 55.8851 91.8832 53.9172L91.4379 53.1347L91.4301 53.1096L91.3705 52.992C91.3626 52.9669 91.3454 52.9497 91.3376 52.9324L91.3626 52.992C91.3799 53.0344 91.405 53.1018 91.4473 53.1943C91.4552 53.2116 91.4552 53.2272 91.4646 53.2445C91.9271 54.3217 93.6787 57.9157 94.3184 61.2902C95.0758 65.3044 96.095 69.513 94.1757 70.8255C93.7132 71.1454 93.1063 71.3806 92.3913 71.5499C87.662 72.6695 78.0922 70.7173 72.9333 68.1159L72.9255 68.108C72.3281 67.8132 71.7981 67.5028 71.3261 67.1829C69.6091 66.0131 60.2243 64.0358 57.5319 55.8035C55.597 49.903 51.0606 49.3322 49.9237 48.2283C48.7791 47.1259 48.1644 44.4414 50.2358 44.4163C51.9026 44.3913 55.8917 43.8111 58.374 39.4676C59.7789 36.9932 61.3956 29.9652 66.5467 26.5735C66.7662 26.4308 66.9841 26.2881 67.2194 26.1611C71.1755 23.9392 90.4234 24.9835 97.9391 27.5582C99.2013 27.9785 100.136 28.4583 100.606 28.9632C102.828 31.3623 103.553 33.3396 102.568 35.7387C100.793 40.0556 94.7669 44.4242 92.9229 47.2435C92.8476 47.3706 92.7958 47.4537 92.7708 47.4882L92.7661 47.4866Z" fill="#DEF978"/>
<path d="M102.564 35.7373C100.789 40.0541 94.7632 44.4227 92.9192 47.2421C92.0018 48.5216 90.2096 47.3597 90.1076 45.8951C90.0073 44.4133 90.1077 36.2171 87.2632 31.7889C84.4266 27.3795 74.3268 24.6182 66.543 26.5704C66.7625 26.4277 66.9805 26.285 67.2157 26.158C71.1719 23.9361 90.4197 24.9804 97.9354 27.5552C99.1976 27.9754 100.132 28.4552 100.603 28.9601C102.825 31.3593 103.549 33.3366 102.564 35.7357V35.7373Z" fill="#98C03D"/>
<path d="M94.1721 70.8238C93.7095 71.1436 93.1027 71.3788 92.3876 71.5482C87.6584 72.6678 78.0886 70.7156 72.9297 68.1142C75.7412 68.5015 79.3007 68.3164 82.2126 65.9847C88.0285 61.3386 88.2135 53.8904 88.7435 52.9307C89.2656 51.9711 90.1061 51.786 91.3355 52.9307L91.3606 52.9903C91.3778 53.0326 91.4029 53.1001 91.4452 53.1926C91.4531 53.2098 91.4531 53.2255 91.4625 53.2428C91.9251 54.32 93.6766 57.914 94.3163 61.2884C95.0737 65.3026 96.0929 69.5113 94.1736 70.8238H94.1721Z" fill="#98C03D"/>
<path d="M66.541 60.4025C66.541 60.4025 67.601 70.471 72.9747 73.4989C72.9747 73.4989 72.2111 69.607 71.7172 68.1565C71.2232 66.7061 67.3878 60.0309 67.3878 60.0309L66.541 60.4025V60.4025Z" fill="#B9E249"/>
<path d="M65.3555 60.0296C65.3555 60.0296 63.6087 53.0094 65.3555 49.6428C67.1023 46.2762 69.1862 43.7375 69.757 42.3419C70.3278 40.9464 66.403 32.3817 64.5793 32.9462C62.7541 33.5122 55.0095 48.0308 65.3555 60.0296Z" fill="#378255"/>
<path d="M62.8047 40.9824C62.8047 42.3905 63.9462 43.5336 65.3559 43.5336C66.7656 43.5336 67.9071 42.3921 67.9071 40.9824C67.9071 39.5727 66.7656 38.4312 65.3559 38.4312C63.9462 38.4312 62.8047 39.5727 62.8047 40.9824Z" fill="#98C03D"/>
<path d="M63.9961 40.9822C63.9961 41.7333 64.6045 42.3432 65.3572 42.3432C66.1098 42.3432 66.7182 41.7348 66.7182 40.9822C66.7182 40.2295 66.1083 39.6211 65.3572 39.6211C64.6061 39.6211 63.9961 40.2295 63.9961 40.9822Z" fill="#44261B"/>
<path d="M70.8891 46.1367C71.7687 46.2465 76.0793 40.1044 79.1652 40.3851C82.2512 40.6658 80.4275 53.7104 76.4996 54.5525C72.5716 55.3945 72.432 51.0463 70.8891 50.0631C69.3461 49.0815 68.6452 45.8545 70.8891 46.1352V46.1367Z" fill="#98C03D"/>
<path d="M94.3152 61.2887C95.0725 65.3029 96.0918 69.5115 94.1725 70.824C93.7099 71.1439 93.1031 71.3791 92.388 71.5484C93.1705 69.7389 94.0878 66.9697 93.7522 64.5126C93.2395 60.7759 91.7075 54.2622 91.4629 53.243C91.9255 54.3202 93.677 57.9142 94.3167 61.2887H94.3152Z" fill="#378255"/>
<path d="M96.4198 50.9035C95.8396 55.0102 98.129 57.9566 96.6973 58.899C92.6235 50.5585 97.2446 45.3573 100.064 42.3435C102.454 42.8155 97 46.8125 96.4198 50.9035Z" fill="#378255"/>
<path d="M102.563 35.7373C100.788 40.0541 94.762 44.4227 92.918 47.2421C93.8023 45.7775 98.1114 38.7746 100.543 35.8627C103.27 32.6137 101.763 30.3745 97.9342 27.5552C99.1965 27.9754 100.131 28.4552 100.601 28.9602C102.823 31.3593 103.548 33.3366 102.563 35.7357V35.7373Z" fill="#378255"/>
<path d="M30.1281 36.6471C30.0231 36.8416 29.584 36.887 29.0038 36.7757C28.4284 36.6659 27.7102 36.3978 27.0422 35.9682C25.7 35.1057 24.9222 34.8784 24.9222 34.8784L25.5228 37.3073C25.5228 37.3073 22.429 37.6162 18.5073 36.2755C15.1815 35.1402 13.1775 32.9559 12.6334 31.7595C12.5362 31.5447 12.486 31.3612 12.4844 31.2232C12.475 30.7873 13.8235 29.7399 15.5249 29.1832V29.1801H15.528C15.8542 29.0734 16.1929 28.9841 16.5394 28.9198C19.238 28.4258 21.6763 28.937 22.8916 29.2867C23.1644 29.3635 23.3745 29.4341 23.5125 29.4827C23.5204 29.4843 23.5266 29.4905 23.5345 29.4921C23.5423 29.4937 23.5486 29.4999 23.5549 29.4984C23.5674 29.5047 23.58 29.5078 23.5925 29.5125C23.6192 29.5266 23.6474 29.5376 23.674 29.5423C23.6834 29.5486 23.6913 29.5501 23.7023 29.5533C23.9045 29.467 24.3389 29.4529 24.8407 29.4796C25.9116 29.5344 27.2806 29.7571 27.359 29.7712C27.3166 29.8324 26.6675 30.7073 26.1986 31.4506C26.1406 31.54 26.0873 31.6262 26.0371 31.7109V31.714C25.8427 32.0402 25.7078 32.313 25.7172 32.4369C25.7172 32.44 25.7188 32.44 25.7188 32.44C25.7172 32.4557 25.7219 32.4683 25.7298 32.4792V32.4824C25.8944 32.6737 28.223 31.7062 29.5683 31.6309C29.5762 31.6309 29.5825 31.6309 29.5887 31.6309C29.5919 31.6309 29.595 31.6309 29.595 31.6309C29.9713 31.6152 30.2693 31.6717 30.4135 31.8458C30.9639 32.5231 27.7886 33.7478 27.671 34.1492C27.5534 34.5491 30.3367 36.2582 30.1297 36.6456L30.1281 36.6471Z" fill="#FF9628"/>
<path d="M29.0048 36.7756C28.4294 36.6658 27.7112 36.3977 27.0432 35.968C25.701 35.1056 24.9232 34.8783 24.9232 34.8783C24.9232 34.8783 25.632 32.5058 25.5708 32.1357C25.5112 31.7657 24.4497 30.3764 24.4497 30.3764L22.8926 29.2881C23.1654 29.365 23.3755 29.4355 23.5135 29.4842C23.5214 29.4857 23.5276 29.492 23.5355 29.4936C23.5433 29.4951 23.5496 29.5014 23.5559 29.4998C23.5684 29.5061 23.581 29.5092 23.5935 29.5139C23.6202 29.5281 23.6484 29.539 23.675 29.5437C23.6844 29.55 23.6923 29.5516 23.7033 29.5547C23.9055 29.4685 24.3399 29.4544 24.8417 29.481C24.873 29.7695 24.9875 30.1255 25.3184 30.3497C25.8389 30.6963 25.7809 31.2482 26.1996 31.4536C26.1416 31.543 26.0883 31.6292 26.0381 31.7139V31.7171C25.8437 32.0432 25.7088 32.3161 25.7182 32.4399C25.7182 32.4431 25.7198 32.4431 25.7198 32.4431C25.7182 32.4587 25.7229 32.4713 25.7308 32.4823V32.4854C25.8954 32.6767 28.224 31.7092 29.5693 31.634C29.5772 31.634 29.5835 31.634 29.5897 31.634C29.4345 31.6951 26.6622 32.7661 26.4677 32.8915C26.2764 33.0185 28.5846 32.5089 28.7195 32.4776L26.3407 33.3243L27.5199 33.3902L26.1745 33.8872C26.1745 33.8872 27.5262 35.0335 28.4168 35.6466C28.4168 35.6466 27.3145 35.1621 26.405 34.3326C26.4709 34.4251 27.4399 35.7422 29.0048 36.7772V36.7756Z" fill="#E68122"/>
<path d="M25.5242 37.3073C25.5242 37.3073 22.4304 37.6163 18.5087 36.2756C15.1829 35.1403 13.1789 32.956 12.6348 31.7596C15.1044 34.4974 16.5361 34.7012 19.2551 35.6499C22.6578 36.8385 24.2148 35.697 24.9236 34.8784L25.5242 37.3073Z" fill="#E68122"/>
<path d="M15.3233 31.0728C15.2151 31.4413 14.8278 31.653 14.4593 31.5448C14.0908 31.4366 13.8791 31.0493 13.9873 30.6808C14.0955 30.3123 14.4828 30.1006 14.8513 30.2088C15.2198 30.317 15.4315 30.7043 15.3233 31.0728Z" fill="#E68122"/>
<path d="M14.9981 30.9785C14.9417 31.1682 14.7425 31.278 14.5528 31.2215C14.3631 31.1651 14.2533 30.9659 14.3098 30.7762C14.3662 30.5865 14.5653 30.4767 14.7551 30.5331C14.9448 30.5896 15.0546 30.7887 14.9981 30.9785Z" fill="#3A4062"/>
<path d="M15.5254 29.1821H15.5295L15.5254 29.1862V29.1821Z" fill="#F4F5FF"/>
<path d="M26.038 31.7141V31.7172L25.7322 32.4855V32.4824C25.7322 32.4824 25.7275 32.4652 25.7197 32.4432C25.7197 32.4432 25.7165 32.4432 25.7181 32.4401C25.646 32.2362 25.2493 31.3534 23.3927 29.95C21.2899 28.3616 15.6747 29.166 15.5273 29.1848C15.8535 29.0782 16.1922 28.9888 16.5387 28.9245C19.8411 28.3208 22.7545 29.2193 23.5119 29.4874C23.5197 29.489 23.526 29.4953 23.5338 29.4968C23.5417 29.4984 23.5479 29.5047 23.5542 29.5031C23.5667 29.5094 23.5793 29.5125 23.5918 29.5172C23.6185 29.5313 23.6467 29.5423 23.6734 29.547C23.6828 29.5533 23.6906 29.5549 23.7016 29.558C25.1379 29.9876 25.37 30.8846 25.5049 31.3832C25.5676 31.6184 25.8059 31.6999 26.038 31.7172V31.7141Z" fill="#E68122"/>
<path d="M23.7188 35.7942C23.7188 35.7942 24.4714 35.4508 24.9214 34.8785C25.3715 34.3062 25.7306 32.4809 25.7306 32.4809L25.0939 31.1152C25.0939 31.1152 25.3793 33.9863 23.7188 35.7942V35.7942Z" fill="#E68122"/>
<path d="M17.5343 31.9305C17.7052 32.1265 20.5998 33.0281 20.8648 33.6851C21.1298 34.3421 21.7335 35.1026 21.3086 35.4664C20.8836 35.8302 17.4261 32.9324 17.0403 32.807C16.6546 32.6816 17.0058 31.3283 17.5327 31.9289L17.5343 31.9305Z" fill="#E68122"/>
<path d="M14.584 33.5864C14.584 33.5864 15.9451 32.8667 16.0924 30.9254C16.0924 30.9254 16.6319 32.7553 15.2677 34.0505C15.2677 34.0505 14.7643 34.1681 14.584 33.5864V33.5864Z" fill="#E68122"/>
<path d="M21.1991 35.0543L17.8105 32.7885C17.8105 32.7885 20.7271 34.297 21.1991 35.0543Z" fill="#FF9628"/>
<path d="M18.4688 32.983L20.8004 34.1041C20.8004 34.1041 20.2579 33.5224 18.4688 32.983Z" fill="#FF9628"/>
<path d="M17.3281 32.3886L20.0095 33.4361C20.0095 33.4361 19.7304 32.9547 17.3281 32.3886Z" fill="#FF9628"/>
<path d="M24.6523 29.6851L26.8649 29.9125L24.7511 30.0865L24.6523 29.6851Z" fill="#E68122"/>
<path d="M18.2252 71.9821C18.1483 72.1891 17.7203 72.2941 17.1291 72.2644C16.5442 72.2346 15.7963 72.0684 15.075 71.7359C13.6261 71.0679 12.8248 70.9488 12.8248 70.9488L13.7547 73.271C13.7547 73.271 10.733 74.0049 6.66393 73.2162C3.21422 72.5497 0.928 70.6634 0.223945 69.5532C0.0985006 69.3541 0.0232341 69.18 0.00284941 69.042C-0.0661449 68.6108 1.12557 67.3877 2.73283 66.6021V66.599H2.73596C3.04487 66.4485 3.36789 66.3136 3.70188 66.2023C6.30642 65.3414 8.79335 65.5123 10.0447 65.6895C10.3253 65.7287 10.5433 65.7695 10.686 65.7993C10.6938 65.7993 10.7017 65.804 10.7095 65.8055C10.7173 65.8055 10.7252 65.8103 10.7315 65.8087C10.744 65.8134 10.7581 65.815 10.7707 65.8181C10.7989 65.8275 10.8287 65.8353 10.8553 65.8353C10.8663 65.84 10.8742 65.84 10.8836 65.8432C11.0717 65.7287 11.5014 65.6566 12.0016 65.6127C13.0694 65.5202 14.4571 65.5515 14.5356 65.5547C14.5011 65.6205 13.9789 66.5786 13.6167 67.3783C13.5728 67.4755 13.5304 67.568 13.4928 67.6574V67.6606C13.3454 68.0102 13.2497 68.2987 13.2764 68.4195C13.2764 68.4226 13.278 68.4226 13.278 68.4226C13.278 68.4383 13.2842 68.4509 13.2937 68.4603V68.4634C13.4834 68.6312 15.6567 67.3501 16.9786 67.0913C16.9864 67.0913 16.9927 67.0882 16.9974 67.0882C17.0005 67.0882 17.0037 67.0866 17.0037 67.0866C17.3737 67.0192 17.6779 67.0333 17.8426 67.187C18.4808 67.7813 15.5046 69.434 15.4435 69.848C15.3823 70.2588 18.3741 71.5697 18.222 71.9805L18.2252 71.9821Z" fill="#FF9628"/>
<path d="M17.1286 72.2646C16.5437 72.2348 15.7958 72.0686 15.0745 71.7362C13.6256 71.0682 12.8243 70.949 12.8243 70.949C12.8243 70.949 13.1991 68.5013 13.0877 68.1438C12.9764 67.7863 11.7345 66.5554 11.7345 66.5554L10.041 65.6929C10.3217 65.7321 10.5397 65.7729 10.6823 65.8027C10.6902 65.8027 10.698 65.8074 10.7059 65.809C10.7137 65.809 10.7215 65.8137 10.7278 65.8121C10.7404 65.8168 10.7545 65.8184 10.767 65.8215C10.7952 65.8309 10.825 65.8387 10.8517 65.8387C10.8627 65.8435 10.8705 65.8435 10.8799 65.8466C11.0681 65.7321 11.4977 65.66 11.9979 65.6161C12.0685 65.8968 12.2316 66.2355 12.5891 66.4111C13.152 66.6824 13.1708 67.2375 13.613 67.3817C13.5691 67.4789 13.5268 67.5714 13.4892 67.6608V67.664C13.3418 68.0136 13.2461 68.3022 13.2728 68.4229C13.2728 68.426 13.2743 68.426 13.2743 68.426C13.2743 68.4417 13.2806 68.4543 13.29 68.4637V68.4668C13.4798 68.6346 15.6531 67.3535 16.9749 67.0948C16.9828 67.0948 16.9891 67.0916 16.9938 67.0916C16.8479 67.1732 14.2497 68.6173 14.074 68.7679C13.9016 68.92 16.1172 68.0967 16.2474 68.0481L14.0066 69.2148L15.1842 69.116L13.9204 69.7934C13.9204 69.7934 15.4179 70.742 16.3838 71.2266C16.3838 71.2266 15.225 70.8989 14.2105 70.2011C14.2889 70.2842 15.4304 71.4555 17.1223 72.2631L17.1286 72.2646Z" fill="#E68122"/>
<path d="M13.7553 73.2695C13.7553 73.2695 10.7337 74.0033 6.6646 73.2146C3.21488 72.5482 0.928665 70.6618 0.224609 69.5516C3.04867 71.9225 4.49441 71.9272 7.31848 72.4917C10.8529 73.2005 12.2375 71.8551 12.8255 70.9456L13.7553 73.2679V73.2695Z" fill="#E68122"/>
<path d="M2.79027 68.5008C2.73382 68.8818 2.37944 69.1437 1.9984 69.0872C1.61736 69.0308 1.3555 68.6764 1.41195 68.2969C1.4684 67.9159 1.82278 67.654 2.20225 67.7105C2.58328 67.7669 2.84515 68.1213 2.7887 68.5008H2.79027Z" fill="#E68122"/>
<path d="M2.45625 68.4509C2.42645 68.6469 2.24456 68.7817 2.04855 68.7535C1.85255 68.7237 1.7177 68.5418 1.74592 68.3458C1.77571 68.1498 1.95761 68.0149 2.15361 68.0432C2.34962 68.073 2.48447 68.2548 2.45625 68.4509Z" fill="#3A4062"/>
<path d="M2.73242 66.6006H2.73656L2.73242 66.6048V66.6006Z" fill="#F4F5FF"/>
<path d="M13.4947 67.6588V67.6619L13.2987 68.4663V68.4632C13.2987 68.4632 13.2909 68.4459 13.2799 68.4256C13.2799 68.4256 13.2768 68.4256 13.2783 68.4224C13.178 68.2296 12.6637 67.411 10.6315 66.2758C8.32957 64.9915 2.87902 66.5627 2.73633 66.6019C3.04523 66.4514 3.36825 66.3165 3.70225 66.2052C6.88853 65.153 9.89919 65.6407 10.6863 65.8006C10.6942 65.8006 10.702 65.8053 10.7099 65.8069C10.7177 65.8069 10.7256 65.8116 10.7318 65.81C10.7444 65.8148 10.7585 65.8163 10.771 65.8195C10.7992 65.8289 10.829 65.8367 10.8557 65.8367C10.8667 65.8414 10.8745 65.8414 10.8839 65.8445C12.3657 66.0735 12.7185 66.9281 12.9208 67.4032C13.0165 67.6274 13.2627 67.6745 13.4947 67.6603V67.6588Z" fill="#E68122"/>
<path d="M11.7578 72.0196C11.7578 72.0196 12.4556 71.5758 12.8225 70.947C13.1894 70.3182 13.2929 68.4616 13.2929 68.4616L12.4744 67.1962C12.4744 67.1962 13.1534 69.9999 11.7578 72.0196V72.0196Z" fill="#E68122"/>
<path d="M5.09915 69.0465C5.29515 69.2174 8.287 69.7114 8.63981 70.326C8.99262 70.9407 9.69511 71.6103 9.32505 72.0289C8.95499 72.4476 5.13051 70.0548 4.73222 69.9826C4.33394 69.9121 4.49388 68.5228 5.09915 69.0465V69.0465Z" fill="#E68122"/>
<path d="M2.40586 71.0929C2.40586 71.0929 3.65403 70.1912 3.53329 68.2484C3.53329 68.2484 4.32046 69.9858 3.14599 71.4567C3.14599 71.4567 2.66459 71.6417 2.4043 71.0913L2.40586 71.0929Z" fill="#E68122"/>
<path d="M9.16143 71.6338L5.49219 69.8572C5.49219 69.8572 8.58909 70.9485 9.16143 71.6338Z" fill="#FF9628"/>
<path d="M6.17188 69.9596L8.63528 70.7483C8.63528 70.7483 8.01904 70.2465 6.17188 69.9596Z" fill="#FF9628"/>
<path d="M4.95898 69.5281L7.75952 70.1961C7.75952 70.1961 7.41612 69.757 4.95898 69.5281V69.5281Z" fill="#FF9628"/>
<path d="M11.8418 65.8402L14.0637 65.7618L11.9955 66.2244L11.8418 65.8402Z" fill="#E68122"/>
<path d="M69.1035 103.532C69.0204 103.736 68.5892 103.83 67.9996 103.782C67.4147 103.735 66.6731 103.546 65.9627 103.192C64.5342 102.48 63.7377 102.337 63.7377 102.337L64.5985 104.686C64.5985 104.686 61.5565 105.329 57.5125 104.421C54.0832 103.653 51.855 101.698 51.1854 100.569C51.0647 100.366 50.9957 100.189 50.9784 100.051C50.922 99.6184 52.1498 98.4314 53.779 97.6944V97.6913H53.7821C54.0957 97.5501 54.4219 97.4247 54.759 97.3228C57.3871 96.5403 59.8677 96.7849 61.1143 96.9997C61.3934 97.0468 61.6098 97.0938 61.7525 97.1283C61.7604 97.1283 61.7682 97.133 61.776 97.1346C61.7839 97.1346 61.7917 97.1409 61.798 97.1377C61.8105 97.1424 61.8246 97.1456 61.8372 97.1471C61.8654 97.1581 61.8936 97.166 61.9219 97.1675C61.9313 97.1722 61.9407 97.1738 61.9501 97.1754C62.143 97.0672 62.5726 97.0076 63.0744 96.9794C64.1438 96.9182 65.53 96.9919 65.6084 96.9966C65.5723 97.0609 65.0219 98.0033 64.6362 98.792C64.5891 98.8877 64.5452 98.9786 64.5044 99.068V99.0711C64.3461 99.4161 64.2426 99.7015 64.2645 99.8238C64.2645 99.8269 64.2661 99.8269 64.2661 99.8269C64.2661 99.8426 64.2724 99.8552 64.2818 99.8646V99.8677C64.4668 100.04 66.6762 98.8265 68.0059 98.6054C68.0137 98.6054 68.02 98.6023 68.0247 98.6039C68.0279 98.6039 68.031 98.6023 68.031 98.6023C68.4026 98.5458 68.7068 98.5694 68.8668 98.7277C69.4861 99.3408 66.4629 100.904 66.3892 101.315C66.3155 101.724 69.2666 103.123 69.1035 103.531V103.532Z" fill="#FF9628"/>
<path d="M68.0005 103.782C67.4157 103.735 66.674 103.546 65.9637 103.192C64.5352 102.48 63.7386 102.337 63.7386 102.337C63.7386 102.337 64.1855 99.9023 64.0867 99.5401C63.9863 99.1794 62.7821 97.9124 62.7821 97.9124L61.1152 96.9998C61.3943 97.0469 61.6107 97.0939 61.7534 97.1284C61.7613 97.1284 61.7691 97.1331 61.777 97.1347C61.7848 97.1347 61.7926 97.1409 61.7989 97.1378C61.8115 97.1425 61.8256 97.1456 61.8381 97.1472C61.8663 97.1582 61.8946 97.166 61.9228 97.1676C61.9322 97.1723 61.9416 97.1739 61.951 97.1754C62.1439 97.0672 62.5735 97.0077 63.0753 96.9794C63.1365 97.2617 63.2901 97.6051 63.6429 97.7917C64.198 98.0802 64.1996 98.6353 64.6371 98.7937C64.59 98.8893 64.5461 98.9803 64.5054 99.0696V99.0728C64.347 99.4178 64.2435 99.7031 64.2655 99.8254C64.2655 99.8286 64.267 99.8286 64.267 99.8286C64.267 99.8443 64.2733 99.8568 64.2827 99.8662V99.8693C64.4677 100.042 66.6771 98.8282 68.0068 98.6071C68.0147 98.6071 68.0209 98.6039 68.0256 98.6055C67.8767 98.6839 65.2376 100.048 65.0573 100.194C64.8801 100.34 67.1193 99.584 67.251 99.5385L64.9773 100.638L66.1581 100.575L64.8739 101.215C64.8739 101.215 66.3416 102.207 67.2934 102.722C67.2934 102.722 66.1455 102.359 65.1514 101.632C65.2267 101.717 66.3337 102.922 68.0005 103.78V103.782Z" fill="#E68122"/>
<path d="M64.5967 104.686C64.5967 104.686 61.5547 105.329 57.5107 104.421C54.0814 103.653 51.8532 101.698 51.1836 100.569C53.9355 103.023 55.3797 103.071 58.1865 103.719C61.6974 104.533 63.1227 103.23 63.7374 102.337L64.5983 104.686H64.5967Z" fill="#E68122"/>
<path d="M53.7798 99.593C53.7124 99.9709 53.3502 100.223 52.9723 100.156C52.5944 100.089 52.3419 99.7263 52.4093 99.3484C52.4768 98.9705 52.839 98.7181 53.2169 98.7855C53.5948 98.8529 53.8472 99.2151 53.7798 99.593Z" fill="#E68122"/>
<path d="M53.4491 99.5337C53.4146 99.7282 53.228 99.8583 53.032 99.8238C52.8375 99.7893 52.7074 99.6027 52.7419 99.4067C52.7764 99.2123 52.963 99.0821 53.159 99.1166C53.3534 99.1511 53.4836 99.3377 53.4491 99.5337Z" fill="#3A4062"/>
<path d="M53.7793 97.6913H53.7834L53.7793 97.6954V97.6913Z" fill="#F4F5FF"/>
<path d="M64.504 99.0712V99.0744L64.2844 99.8725V99.8694C64.2844 99.8694 64.2766 99.8521 64.2672 99.8317C64.2672 99.8317 64.2641 99.8317 64.2656 99.8286C64.1715 99.6342 63.6823 98.8 61.6846 97.6051C59.4219 96.2535 53.9259 97.66 53.7832 97.6961C54.0968 97.5549 54.423 97.4295 54.7601 97.3276C57.9777 96.3711 60.9712 96.9481 61.7536 97.1316C61.7615 97.1316 61.7693 97.1363 61.7771 97.1378C61.785 97.1378 61.7928 97.1441 61.7991 97.141C61.8116 97.1457 61.8257 97.1488 61.8383 97.1504C61.8665 97.1614 61.8947 97.1692 61.923 97.1708C61.9324 97.1755 61.9418 97.177 61.9512 97.1786C63.4252 97.4514 63.7529 98.317 63.941 98.7968C64.0289 99.0242 64.275 99.0791 64.5071 99.0712H64.504Z" fill="#E68122"/>
<path d="M62.6387 103.378C62.6387 103.378 63.349 102.955 63.7363 102.337C64.122 101.719 64.2804 99.866 64.2804 99.866L63.4995 98.5771C63.4995 98.5771 64.0938 101.4 62.6387 103.377V103.378Z" fill="#E68122"/>
<path d="M56.0714 100.208C56.2627 100.384 59.2388 100.969 59.5728 101.593C59.9068 102.217 60.5889 102.907 60.2063 103.316C59.8237 103.724 56.0729 101.216 55.6762 101.135C55.2795 101.052 55.4818 99.6688 56.0714 100.21V100.208Z" fill="#E68122"/>
<path d="M53.3203 102.173C53.3203 102.173 54.5951 101.309 54.5324 99.3647C54.5324 99.3647 55.2678 101.126 54.051 102.56C54.051 102.56 53.5634 102.731 53.3203 102.173Z" fill="#E68122"/>
<path d="M60.0538 102.914L56.4395 101.03C56.4395 101.03 59.5019 102.213 60.0538 102.914Z" fill="#FF9628"/>
<path d="M57.1152 101.152L59.5551 102.013C59.5551 102.013 58.953 101.494 57.1152 101.152Z" fill="#FF9628"/>
<path d="M55.918 100.685L58.6966 101.436C58.6966 101.436 58.3673 100.987 55.918 100.685V100.685Z" fill="#FF9628"/>
<path d="M62.9062 97.2034L65.1297 97.1909L63.0474 97.5923L62.9062 97.2034Z" fill="#E68122"/>
<path d="M101.113 3.583C101.093 3.72569 100.834 3.85427 100.453 3.91699C100.075 3.97972 99.5735 3.97972 99.067 3.86838C98.0478 3.64572 97.5194 3.68179 97.5194 3.68179L98.4398 5.03501C98.4398 5.03501 96.613 5.9288 93.9034 5.9978C91.6062 6.05738 89.8814 5.173 89.2761 4.5646C89.1679 4.45483 89.0958 4.35448 89.0629 4.2698C88.9578 4.0048 89.5474 3.05613 90.4631 2.32856L90.4647 2.32699C90.6403 2.18743 90.8285 2.05572 91.0261 1.93811C92.569 1.02237 94.181 0.78089 95.0042 0.718168C95.1892 0.704055 95.3335 0.699351 95.4291 0.697783C95.4339 0.697783 95.4401 0.697783 95.4448 0.697783C95.4495 0.697783 95.4558 0.697783 95.4589 0.697783C95.4683 0.697783 95.4762 0.697783 95.4856 0.697783C95.506 0.699351 95.5248 0.700919 95.5421 0.697783C95.5499 0.697783 95.5546 0.697783 95.5609 0.697783C95.6659 0.598996 95.9294 0.492368 96.243 0.393581C96.9125 0.18503 97.8032 0.00940831 97.8534 0C97.8408 0.0470416 97.6417 0.73228 97.5241 1.29364C97.51 1.36264 97.4958 1.42693 97.4849 1.48965C97.4394 1.73583 97.4206 1.93341 97.4535 2.00711C97.4535 2.00867 97.4551 2.00867 97.4551 2.00867C97.4582 2.01965 97.4629 2.02592 97.4708 2.03063H97.4723C97.6166 2.11217 98.824 0.989441 99.6315 0.638197C99.6362 0.636629 99.6394 0.633493 99.6441 0.633493C99.6456 0.633493 99.6472 0.631925 99.6472 0.631925C99.8746 0.536274 100.071 0.503345 100.198 0.578611C100.688 0.868701 99.02 2.34267 99.0388 2.61551C99.0576 2.88678 101.153 3.30232 101.113 3.5877V3.583Z" fill="#FF9628"/>
<path d="M100.453 3.91668C100.075 3.97941 99.5732 3.97941 99.0667 3.86808C98.0475 3.64541 97.5191 3.68148 97.5191 3.68148C97.5191 3.68148 97.414 2.06482 97.2933 1.85313C97.1725 1.63987 96.2066 1.02833 96.2066 1.02833L95.0039 0.714723C95.1889 0.700611 95.3332 0.695907 95.4288 0.694339C95.4335 0.694339 95.4398 0.694339 95.4445 0.694339C95.4492 0.694339 95.4555 0.694339 95.4586 0.694339C95.468 0.694339 95.4759 0.694339 95.4853 0.694339C95.5057 0.695907 95.5245 0.697475 95.5417 0.694339C95.5496 0.694339 95.5543 0.694339 95.5606 0.694339C95.6656 0.595551 95.9291 0.488924 96.2427 0.390137C96.3273 0.559486 96.4779 0.752357 96.7319 0.815079C97.1302 0.909162 97.2196 1.26041 97.5222 1.29177C97.5081 1.36076 97.494 1.42505 97.483 1.48777C97.4375 1.73396 97.4187 1.93153 97.4516 2.00523C97.4516 2.0068 97.4532 2.0068 97.4532 2.0068C97.4563 2.01777 97.461 2.02405 97.4689 2.02875H97.4704C97.6147 2.11029 98.8221 0.987564 99.6297 0.636321C99.6344 0.634753 99.6375 0.631617 99.6422 0.631617C99.5607 0.705315 98.1039 1.99112 98.013 2.11343C97.9236 2.23417 99.2235 1.39683 99.3004 1.34822L98.0334 2.40822L98.7719 2.17928L98.06 2.78926C98.06 2.78926 99.1498 3.1844 99.8351 3.35846C99.8351 3.35846 99.0495 3.31142 98.3031 3.01035C98.3642 3.05269 99.258 3.63914 100.453 3.91825V3.91668Z" fill="#E68122"/>
<path d="M98.4391 5.03373C98.4391 5.03373 96.6123 5.92752 93.9027 5.99651C91.6055 6.0561 89.8807 5.17172 89.2754 4.56331C91.4126 5.68133 92.3362 5.48062 94.2195 5.44456C96.5762 5.40065 97.2709 4.34692 97.5202 3.68207L98.4407 5.0353L98.4391 5.03373Z" fill="#E68122"/>
<path d="M90.768 3.52981C90.7852 3.7807 90.5955 3.99866 90.3446 4.01591C90.0937 4.03315 89.8758 3.84342 89.8585 3.59253C89.8413 3.34164 90.031 3.12368 90.2819 3.10644C90.5328 3.08919 90.7507 3.27892 90.768 3.52981Z" fill="#E68122"/>
<path d="M90.5476 3.5453C90.557 3.67388 90.4582 3.78678 90.3296 3.79619C90.2011 3.8056 90.0882 3.70681 90.0787 3.57823C90.0693 3.44965 90.1681 3.33675 90.2967 3.32734C90.4253 3.31793 90.5382 3.41672 90.5476 3.5453Z" fill="#3A4062"/>
<path d="M97.485 1.48613L97.4725 2.02867H97.4709C97.4709 2.02867 97.4646 2.01613 97.4552 2.00515C97.4552 2.00515 97.4537 2.00515 97.4537 2.00358C97.3627 1.89539 96.9189 1.44379 95.4622 1.00473C93.8111 0.507662 90.5511 2.27799 90.4648 2.32347C90.6405 2.18391 90.8286 2.05219 91.0262 1.93459C92.9141 0.813432 94.904 0.7021 95.4293 0.69426C95.434 0.69426 95.4403 0.69426 95.445 0.69426C95.4497 0.69426 95.4559 0.69426 95.4591 0.69426C95.4685 0.69426 95.4763 0.69426 95.4857 0.69426C95.5061 0.695828 95.5249 0.697396 95.5422 0.69426C95.55 0.69426 95.5547 0.69426 95.561 0.69426C96.5395 0.631538 96.886 1.12861 97.082 1.40302C97.1745 1.53317 97.3392 1.52846 97.485 1.48613V1.48613Z" fill="#E68122"/>
<path d="M96.991 4.51573C96.991 4.51573 97.3752 4.13469 97.521 3.67995C97.6668 3.22679 97.4724 2.02566 97.4724 2.02566L96.7715 1.33258C96.7715 1.33258 97.5994 3.02764 96.9926 4.51416L96.991 4.51573Z" fill="#E68122"/>
<path d="M92.3187 3.5529C92.4677 3.63444 94.4481 3.52938 94.7602 3.87279C95.0722 4.21462 95.6148 4.54391 95.4376 4.86379C95.2604 5.18368 92.4818 4.19267 92.2168 4.20364C91.9518 4.21462 91.8593 3.30358 92.3187 3.55447V3.5529Z" fill="#E68122"/>
<path d="M90.8863 5.23864C90.8863 5.23864 91.5575 4.48755 91.2062 3.26447C91.2062 3.26447 91.9526 4.26331 91.4101 5.36879C91.4101 5.36879 91.1278 5.55539 90.8848 5.24021L90.8863 5.23864Z" fill="#E68122"/>
<path d="M95.2752 4.63488L92.6816 4.0155C92.6816 4.0155 94.8126 4.27737 95.2752 4.63488Z" fill="#FF9628"/>
<path d="M93.1309 3.98408L94.8149 4.14088C94.8149 4.14088 94.3508 3.90724 93.1309 3.98408Z" fill="#FF9628"/>
<path d="M92.2969 3.87929L94.1785 3.91222C94.1785 3.91222 93.8979 3.68015 92.2969 3.87929Z" fill="#FF9628"/>
<path d="M96.1738 0.558246L97.5819 0.194458L96.3259 0.780909L96.1738 0.558246Z" fill="#E68122"/>
</svg>
