<svg width="1440" height="354" viewBox="0 0 1440 354" fill="none" xmlns="http://www.w3.org/2000/svg">
<path fill-rule="evenodd" clip-rule="evenodd" d="M25.2596 23.2967C25.2596 24.7232 24.1032 25.8796 22.6767 25.8796C21.2501 25.8796 20.0938 24.7232 20.0938 23.2967C20.0938 21.8701 21.2501 20.7137 22.6767 20.7137C24.1032 20.7137 25.2596 21.8701 25.2596 23.2967Z" fill="#869FFB"/>
<path fill-rule="evenodd" clip-rule="evenodd" d="M52.1834 126.858C52.1834 128.285 51.027 129.441 49.6005 129.441C48.1739 129.441 47.0176 128.285 47.0176 126.858C47.0176 125.432 48.1739 124.275 49.6005 124.275C51.027 124.275 52.1834 125.432 52.1834 126.858Z" fill="#869FFB"/>
<path fill-rule="evenodd" clip-rule="evenodd" d="M347.335 18.1164C347.335 18.8008 347.061 19.46 346.578 19.9428C346.096 20.4255 345.436 20.6993 344.752 20.6993C344.067 20.6993 343.408 20.4255 342.925 19.9428C342.443 19.46 342.169 18.8008 342.169 18.1164C342.169 17.4319 342.443 16.7727 342.925 16.2899C343.408 15.8072 344.067 15.5334 344.752 15.5334C345.436 15.5334 346.096 15.8072 346.578 16.2899C347.061 16.7727 347.335 17.4319 347.335 18.1164Z" fill="#869FFB"/>
<path fill-rule="evenodd" clip-rule="evenodd" d="M516.142 70.9346C516.142 71.619 515.869 72.2783 515.386 72.761C514.9 73.2473 514.244 73.5175 513.559 73.5175C512.133 73.5175 510.977 72.3611 510.977 70.9346C510.977 69.5081 512.133 68.3517 513.559 68.3517C514.244 68.3517 514.903 68.6255 515.386 69.1082C515.869 69.5909 516.142 70.2501 516.142 70.9346Z" fill="#869FFB"/>
<path fill-rule="evenodd" clip-rule="evenodd" d="M411.544 158.963C411.544 159.647 411.27 160.306 410.787 160.789C410.301 161.275 409.645 161.545 408.961 161.545C408.276 161.545 407.617 161.272 407.134 160.789C406.648 160.303 406.378 159.647 406.378 158.963C406.378 158.278 406.652 157.619 407.134 157.136C407.617 156.653 408.276 156.38 408.961 156.38C409.645 156.38 410.305 156.653 410.787 157.136C411.27 157.619 411.544 158.278 411.544 158.963Z" fill="#869FFB"/>
<path fill-rule="evenodd" clip-rule="evenodd" d="M695.39 2.58291C695.39 3.26736 695.117 3.9266 694.634 4.40932C694.148 4.89564 693.492 5.16582 692.807 5.16582C691.381 5.16582 690.225 4.00946 690.225 2.58291C690.225 1.15637 691.381 0 692.807 0C693.492 0 694.151 0.273781 694.634 0.756501C695.117 1.23922 695.39 1.89846 695.39 2.58291Z" fill="#869FFB"/>
<path fill-rule="evenodd" clip-rule="evenodd" d="M891.122 38.8301C891.122 39.5146 890.848 40.1738 890.365 40.6565C889.879 41.1428 889.223 41.413 888.539 41.413C887.112 41.413 885.956 40.2566 885.956 38.8301C885.956 37.4036 887.112 36.2472 888.539 36.2472C889.223 36.2472 889.883 36.521 890.365 37.0037C890.852 37.49 891.122 38.1456 891.122 38.8301Z" fill="#869FFB"/>
<path fill-rule="evenodd" clip-rule="evenodd" d="M786.523 126.858C786.523 127.543 786.249 128.202 785.767 128.684C785.28 129.171 784.625 129.441 783.94 129.441C782.514 129.441 781.357 128.285 781.357 126.858C781.357 125.432 782.514 124.275 783.94 124.275C784.625 124.275 785.284 124.549 785.767 125.032C786.249 125.514 786.523 126.174 786.523 126.858Z" fill="#869FFB"/>
<path fill-rule="evenodd" clip-rule="evenodd" d="M1081.67 18.1164C1081.67 18.8008 1081.4 19.46 1080.92 19.9428C1080.43 20.4255 1079.78 20.6993 1079.09 20.6993C1078.41 20.6993 1077.75 20.4255 1077.26 19.9428C1076.78 19.46 1076.51 18.8008 1076.51 18.1164C1076.51 17.4319 1076.78 16.7727 1077.26 16.2899C1077.75 15.8072 1078.41 15.5334 1079.09 15.5334C1079.78 15.5334 1080.43 15.8072 1080.92 16.2899C1081.4 16.7727 1081.67 17.4319 1081.67 18.1164Z" fill="#869FFB"/>
<path fill-rule="evenodd" clip-rule="evenodd" d="M1250.48 70.9346C1250.48 71.619 1250.21 72.2783 1249.73 72.761C1249.24 73.2473 1248.58 73.5175 1247.9 73.5175C1246.47 73.5175 1245.32 72.3611 1245.32 70.9346C1245.32 69.5081 1246.47 68.3517 1247.9 68.3517C1248.58 68.3517 1249.24 68.6255 1249.73 69.1082C1250.21 69.5909 1250.48 70.2501 1250.48 70.9346Z" fill="#869FFB"/>
<path fill-rule="evenodd" clip-rule="evenodd" d="M1145.88 158.963C1145.88 159.647 1145.61 160.306 1145.13 160.789C1144.64 161.275 1143.98 161.545 1143.3 161.545C1142.62 161.545 1141.96 161.272 1141.47 160.789C1140.99 160.303 1140.72 159.647 1140.72 158.963C1140.72 158.278 1140.99 157.619 1141.47 157.136C1141.96 156.653 1142.62 156.38 1143.3 156.38C1143.98 156.38 1144.64 156.653 1145.13 157.136C1145.61 157.619 1145.88 158.278 1145.88 158.963Z" fill="#869FFB"/>
<path fill-rule="evenodd" clip-rule="evenodd" d="M1375.79 18.1164C1375.79 18.8008 1375.52 19.46 1375.03 19.9428C1374.55 20.4255 1373.89 20.6993 1373.21 20.6993C1372.52 20.6993 1371.86 20.4255 1371.38 19.9428C1370.9 19.46 1370.62 18.8008 1370.62 18.1164C1370.62 17.4319 1370.9 16.7727 1371.38 16.2899C1371.86 15.8072 1372.52 15.5334 1373.21 15.5334C1373.89 15.5334 1374.55 15.8072 1375.03 16.2899C1375.52 16.7727 1375.79 17.4319 1375.79 18.1164Z" fill="#869FFB"/>
<path fill-rule="evenodd" clip-rule="evenodd" d="M1440 158.963C1440 159.647 1439.73 160.306 1439.24 160.789C1438.76 161.275 1438.1 161.545 1437.42 161.545C1436.73 161.545 1436.07 161.272 1435.59 160.789C1435.1 160.303 1434.83 159.647 1434.83 158.963C1434.83 158.278 1435.11 157.619 1435.59 157.136C1436.07 156.653 1436.73 156.38 1437.42 156.38C1438.1 156.38 1438.76 156.653 1439.24 157.136C1439.73 157.619 1440 158.278 1440 158.963Z" fill="#869FFB"/>
<path fill-rule="evenodd" clip-rule="evenodd" d="M1222.09 237.862C1222.09 238.528 1222.63 239.069 1223.29 239.069C1223.96 239.069 1224.5 238.528 1224.5 237.862C1224.5 237.196 1223.96 236.655 1223.29 236.655C1222.97 236.655 1222.67 236.781 1222.44 237.008C1222.21 237.235 1222.09 237.541 1222.09 237.862Z" fill="#869FFB"/>
<path d="M975.317 143.389C975.984 143.389 976.524 142.849 976.524 142.183C976.524 141.516 975.984 140.976 975.317 140.976C974.651 140.976 974.11 141.516 974.11 142.183C974.11 142.849 974.651 143.389 975.317 143.389Z" fill="#869FFB"/>
<path fill-rule="evenodd" clip-rule="evenodd" d="M1033.59 333.61C1033.59 333.931 1033.72 334.237 1033.95 334.464C1034.17 334.691 1034.48 334.817 1034.8 334.817C1035.12 334.817 1035.43 334.691 1035.65 334.464C1035.88 334.237 1036.01 333.931 1036.01 333.61C1036.01 333.289 1035.88 332.983 1035.65 332.756C1035.43 332.529 1035.12 332.403 1034.8 332.403C1034.48 332.403 1034.17 332.529 1033.95 332.756C1033.72 332.983 1033.59 333.289 1033.59 333.61Z" fill="#869FFB"/>
<path fill-rule="evenodd" clip-rule="evenodd" d="M1194.51 349.475C1194.51 349.795 1194.63 350.102 1194.86 350.328C1195.09 350.555 1195.39 350.682 1195.71 350.682C1196.04 350.682 1196.34 350.555 1196.57 350.328C1196.8 350.102 1196.92 349.795 1196.92 349.475C1196.92 348.808 1196.38 348.268 1195.71 348.268C1195.05 348.268 1194.51 348.808 1194.51 349.475Z" fill="#869FFB"/>
<path fill-rule="evenodd" clip-rule="evenodd" d="M1016.33 260.672C1016.33 261.339 1016.87 261.879 1017.54 261.879C1018.2 261.879 1018.74 261.339 1018.74 260.672C1018.74 260.006 1018.2 259.465 1017.54 259.465C1017.22 259.465 1016.91 259.592 1016.68 259.818C1016.46 260.045 1016.33 260.352 1016.33 260.672Z" fill="#869FFB"/>
<path fill-rule="evenodd" clip-rule="evenodd" d="M787.507 128.854C787.507 129.174 787.633 129.481 787.86 129.708C788.087 129.934 788.393 130.061 788.714 130.061C789.034 130.061 789.34 129.934 789.567 129.708C789.794 129.481 789.92 129.174 789.92 128.854C789.92 128.533 789.794 128.227 789.567 128C789.34 127.773 789.034 127.647 788.714 127.647C788.393 127.647 788.087 127.773 787.86 128C787.633 128.227 787.507 128.533 787.507 128.854Z" fill="#869FFB"/>
<path fill-rule="evenodd" clip-rule="evenodd" d="M1388.41 153.13C1388.41 153.451 1388.53 153.757 1388.76 153.984C1388.99 154.211 1389.29 154.337 1389.61 154.337C1390.28 154.337 1390.82 153.797 1390.82 153.13C1390.82 152.464 1390.28 151.923 1389.61 151.923C1389.29 151.923 1388.99 152.05 1388.76 152.276C1388.53 152.503 1388.41 152.81 1388.41 153.13Z" fill="#869FFB"/>
<path fill-rule="evenodd" clip-rule="evenodd" d="M568.464 122.398C568.464 122.719 568.59 123.025 568.817 123.252C569.044 123.479 569.35 123.605 569.671 123.605C570.337 123.605 570.877 123.065 570.877 122.398C570.877 121.732 570.337 121.192 569.671 121.192C569.35 121.192 569.044 121.318 568.817 121.545C568.59 121.772 568.464 122.078 568.464 122.398Z" fill="#869FFB"/>
<path fill-rule="evenodd" clip-rule="evenodd" d="M658.635 168.451C658.635 168.772 658.761 169.078 658.988 169.305C659.215 169.532 659.521 169.658 659.842 169.658C660.508 169.658 661.048 169.118 661.048 168.451C661.048 167.785 660.508 167.244 659.842 167.244C659.521 167.244 659.215 167.37 658.988 167.597C658.761 167.824 658.635 168.131 658.635 168.451Z" fill="#869FFB"/>
<path fill-rule="evenodd" clip-rule="evenodd" d="M479.373 112.715C479.373 113.036 479.499 113.342 479.726 113.569C479.953 113.796 480.259 113.922 480.58 113.922C480.9 113.922 481.207 113.796 481.434 113.569C481.661 113.342 481.787 113.036 481.787 112.715C481.787 112.394 481.661 112.088 481.434 111.861C481.207 111.634 480.9 111.508 480.58 111.508C480.259 111.508 479.953 111.634 479.726 111.861C479.499 112.088 479.373 112.394 479.373 112.715Z" fill="#869FFB"/>
<path fill-rule="evenodd" clip-rule="evenodd" d="M337.277 186.081C337.277 186.402 337.403 186.708 337.63 186.935C337.857 187.162 338.164 187.288 338.484 187.288C339.151 187.288 339.691 186.748 339.691 186.081C339.691 185.415 339.151 184.875 338.484 184.875C338.164 184.875 337.857 185.001 337.63 185.228C337.403 185.454 337.277 185.761 337.277 186.081Z" fill="#869FFB"/>
<path fill-rule="evenodd" clip-rule="evenodd" d="M489.744 261.414C489.744 261.735 489.87 262.041 490.097 262.268C490.324 262.495 490.63 262.621 490.951 262.621C491.272 262.621 491.578 262.495 491.805 262.268C492.032 262.041 492.158 261.735 492.158 261.414C492.158 260.748 491.617 260.208 490.951 260.208C490.284 260.208 489.744 260.748 489.744 261.414Z" fill="#869FFB"/>
<path fill-rule="evenodd" clip-rule="evenodd" d="M276.62 351.942C276.62 352.263 276.746 352.569 276.973 352.796C277.2 353.023 277.506 353.149 277.827 353.149C278.148 353.149 278.454 353.023 278.681 352.796C278.908 352.569 279.034 352.263 279.034 351.942C279.034 351.276 278.493 350.736 277.827 350.736C277.16 350.736 276.62 351.276 276.62 351.942Z" fill="#869FFB"/>
<path fill-rule="evenodd" clip-rule="evenodd" d="M114.952 210.199C114.952 210.52 115.078 210.826 115.305 211.053C115.532 211.28 115.838 211.406 116.159 211.406C116.48 211.406 116.786 211.28 117.013 211.053C117.24 210.826 117.366 210.52 117.366 210.199C117.366 209.879 117.24 209.572 117.013 209.345C116.786 209.119 116.48 208.992 116.159 208.992C115.838 208.992 115.532 209.119 115.305 209.345C115.078 209.572 114.952 209.879 114.952 210.199Z" fill="#869FFB"/>
<path fill-rule="evenodd" clip-rule="evenodd" d="M1225.84 76.9722C1225.84 77.2928 1225.96 77.599 1226.19 77.8259C1226.42 78.0529 1226.72 78.179 1227.04 78.179C1227.71 78.179 1228.25 77.6386 1228.25 76.9722C1228.25 76.3057 1227.71 75.7654 1227.04 75.7654C1226.72 75.7654 1226.42 75.8915 1226.19 76.1184C1225.96 76.3454 1225.84 76.6516 1225.84 76.9722Z" fill="#869FFB"/>
<path fill-rule="evenodd" clip-rule="evenodd" d="M0 161.524C0 161.844 0.126084 162.151 0.353034 162.378C0.579984 162.605 0.886187 162.731 1.2068 162.731C1.52741 162.731 1.83361 162.605 2.06056 162.378C2.28752 162.151 2.4136 161.844 2.4136 161.524C2.4136 161.203 2.28752 160.897 2.06056 160.67C1.83361 160.443 1.52741 160.317 1.2068 160.317C0.886187 160.317 0.579984 160.443 0.353034 160.67C0.126084 160.897 0 161.203 0 161.524H0Z" fill="#869FFB"/>
</svg>
