<svg width="1425" height="350" viewBox="0 0 1425 350" fill="none" xmlns="http://www.w3.org/2000/svg">
<path fill-rule="evenodd" clip-rule="evenodd" d="M24.9865 23.0444C24.9865 24.4555 23.8426 25.5993 22.4315 25.5993C21.0204 25.5993 19.8766 24.4555 19.8766 23.0444C19.8766 21.6333 21.0204 20.4894 22.4315 20.4894C23.8426 20.4894 24.9865 21.6333 24.9865 23.0444Z" fill="#A684B6"/>
<path fill-rule="evenodd" clip-rule="evenodd" d="M51.6192 125.484C51.6192 126.895 50.4753 128.039 49.0642 128.039C47.6532 128.039 46.5093 126.895 46.5093 125.484C46.5093 124.073 47.6532 122.929 49.0642 122.929C50.4753 122.929 51.6192 124.073 51.6192 125.484Z" fill="#A684B6"/>
<path fill-rule="evenodd" clip-rule="evenodd" d="M343.574 17.9202C343.574 18.5973 343.303 19.2493 342.826 19.7268C342.348 20.2043 341.696 20.4752 341.019 20.4752C340.342 20.4752 339.69 20.2043 339.212 19.7268C338.735 19.2493 338.464 18.5973 338.464 17.9202C338.464 17.2432 338.735 16.5911 339.212 16.1136C339.69 15.6361 340.342 15.3653 341.019 15.3653C341.696 15.3653 342.348 15.6361 342.826 16.1136C343.303 16.5911 343.574 17.2432 343.574 17.9202Z" fill="#A684B6"/>
<path fill-rule="evenodd" clip-rule="evenodd" d="M510.554 70.1664C510.554 70.8434 510.283 71.4955 509.806 71.973C509.325 72.4541 508.676 72.7213 507.999 72.7213C506.588 72.7213 505.444 71.5775 505.444 70.1664C505.444 68.7553 506.588 67.6115 507.999 67.6115C508.676 67.6115 509.328 67.8823 509.806 68.3598C510.283 68.8372 510.554 69.4894 510.554 70.1664Z" fill="#A684B6"/>
<path fill-rule="evenodd" clip-rule="evenodd" d="M407.088 157.241C407.088 157.918 406.817 158.57 406.339 159.048C405.858 159.529 405.21 159.796 404.533 159.796C403.856 159.796 403.204 159.525 402.726 159.048C402.245 158.567 401.978 157.918 401.978 157.241C401.978 156.564 402.249 155.912 402.726 155.435C403.204 154.957 403.856 154.686 404.533 154.686C405.21 154.686 405.862 154.957 406.339 155.435C406.817 155.912 407.088 156.564 407.088 157.241Z" fill="#A684B6"/>
<path fill-rule="evenodd" clip-rule="evenodd" d="M687.86 2.55494C687.86 3.23198 687.59 3.88408 687.112 4.36158C686.631 4.84263 685.983 5.10989 685.306 5.10989C683.894 5.10989 682.751 3.96604 682.751 2.55494C682.751 1.14384 683.894 0 685.306 0C685.983 0 686.635 0.270817 687.112 0.74831C687.59 1.2258 687.86 1.8779 687.86 2.55494Z" fill="#A684B6"/>
<path fill-rule="evenodd" clip-rule="evenodd" d="M881.473 38.4096C881.473 39.0867 881.202 39.7388 880.725 40.2163C880.244 40.6973 879.595 40.9646 878.918 40.9646C877.507 40.9646 876.363 39.8207 876.363 38.4096C876.363 36.9985 877.507 35.8547 878.918 35.8547C879.595 35.8547 880.247 36.1255 880.725 36.603C881.206 37.0841 881.473 37.7326 881.473 38.4096Z" fill="#A684B6"/>
<path fill-rule="evenodd" clip-rule="evenodd" d="M778.007 125.484C778.007 126.161 777.736 126.814 777.259 127.291C776.778 127.772 776.129 128.039 775.452 128.039C774.041 128.039 772.897 126.895 772.897 125.484C772.897 124.073 774.041 122.929 775.452 122.929C776.129 122.929 776.781 123.2 777.259 123.678C777.736 124.155 778.007 124.807 778.007 125.484Z" fill="#A684B6"/>
<path fill-rule="evenodd" clip-rule="evenodd" d="M1069.96 17.9202C1069.96 18.5973 1069.69 19.2493 1069.21 19.7268C1068.74 20.2043 1068.08 20.4752 1067.41 20.4752C1066.73 20.4752 1066.08 20.2043 1065.6 19.7268C1065.12 19.2493 1064.85 18.5973 1064.85 17.9202C1064.85 17.2432 1065.12 16.5911 1065.6 16.1136C1066.08 15.6361 1066.73 15.3653 1067.41 15.3653C1068.08 15.3653 1068.74 15.6361 1069.21 16.1136C1069.69 16.5911 1069.96 17.2432 1069.96 17.9202Z" fill="#A684B6"/>
<path fill-rule="evenodd" clip-rule="evenodd" d="M1236.94 70.1664C1236.94 70.8434 1236.67 71.4955 1236.19 71.973C1235.71 72.4541 1235.06 72.7213 1234.39 72.7213C1232.98 72.7213 1231.83 71.5775 1231.83 70.1664C1231.83 68.7553 1232.98 67.6115 1234.39 67.6115C1235.06 67.6115 1235.72 67.8823 1236.19 68.3598C1236.67 68.8372 1236.94 69.4894 1236.94 70.1664Z" fill="#A684B6"/>
<path fill-rule="evenodd" clip-rule="evenodd" d="M1133.48 157.241C1133.48 157.918 1133.2 158.57 1132.73 159.048C1132.25 159.529 1131.6 159.796 1130.92 159.796C1130.24 159.796 1129.59 159.525 1129.11 159.048C1128.63 158.567 1128.37 157.918 1128.37 157.241C1128.37 156.564 1128.64 155.912 1129.11 155.435C1129.59 154.957 1130.24 154.686 1130.92 154.686C1131.6 154.686 1132.25 154.957 1132.73 155.435C1133.2 155.912 1133.48 156.564 1133.48 157.241Z" fill="#A684B6"/>
<path fill-rule="evenodd" clip-rule="evenodd" d="M1360.89 17.9202C1360.89 18.5973 1360.62 19.2493 1360.15 19.7268C1359.67 20.2043 1359.02 20.4752 1358.34 20.4752C1357.66 20.4752 1357.01 20.2043 1356.53 19.7268C1356.05 19.2493 1355.78 18.5973 1355.78 17.9202C1355.78 17.2432 1356.05 16.5911 1356.53 16.1136C1357.01 15.6361 1357.66 15.3653 1358.34 15.3653C1359.02 15.3653 1359.67 15.6361 1360.15 16.1136C1360.62 16.5911 1360.89 17.2432 1360.89 17.9202Z" fill="#A684B6"/>
<path fill-rule="evenodd" clip-rule="evenodd" d="M1424.41 157.241C1424.41 157.918 1424.14 158.57 1423.66 159.048C1423.18 159.529 1422.53 159.796 1421.85 159.796C1421.18 159.796 1420.52 159.525 1420.05 159.048C1419.56 158.567 1419.3 157.918 1419.3 157.241C1419.3 156.564 1419.57 155.912 1420.05 155.435C1420.52 154.957 1421.18 154.686 1421.85 154.686C1422.53 154.686 1423.18 154.957 1423.66 155.435C1424.14 155.912 1424.41 156.564 1424.41 157.241Z" fill="#A684B6"/>
<path fill-rule="evenodd" clip-rule="evenodd" d="M1208.85 235.286C1208.85 235.946 1209.39 236.48 1210.05 236.48C1210.71 236.48 1211.24 235.946 1211.24 235.286C1211.24 234.627 1210.71 234.093 1210.05 234.093C1209.73 234.093 1209.43 234.217 1209.2 234.442C1208.98 234.666 1208.85 234.969 1208.85 235.286Z" fill="#A46FAF"/>
<path d="M964.756 141.837C965.416 141.837 965.95 141.302 965.95 140.643C965.95 139.984 965.416 139.449 964.756 139.449C964.097 139.449 963.563 139.984 963.563 140.643C963.563 141.302 964.097 141.837 964.756 141.837Z" fill="#A46FAF"/>
<path fill-rule="evenodd" clip-rule="evenodd" d="M1022.4 329.998C1022.4 330.315 1022.53 330.618 1022.75 330.842C1022.97 331.067 1023.28 331.191 1023.59 331.191C1023.91 331.191 1024.21 331.067 1024.44 330.842C1024.66 330.618 1024.79 330.315 1024.79 329.998C1024.79 329.68 1024.66 329.378 1024.44 329.153C1024.21 328.929 1023.91 328.804 1023.59 328.804C1023.28 328.804 1022.97 328.929 1022.75 329.153C1022.53 329.378 1022.4 329.68 1022.4 329.998Z" fill="#A46FAF"/>
<path fill-rule="evenodd" clip-rule="evenodd" d="M1181.57 345.69C1181.57 346.008 1181.7 346.31 1181.92 346.535C1182.15 346.759 1182.45 346.884 1182.77 346.884C1183.08 346.884 1183.39 346.759 1183.61 346.535C1183.84 346.31 1183.96 346.008 1183.96 345.69C1183.96 345.031 1183.43 344.497 1182.77 344.497C1182.11 344.497 1181.57 345.031 1181.57 345.69Z" fill="#A46FAF"/>
<path fill-rule="evenodd" clip-rule="evenodd" d="M1005.33 257.85C1005.33 258.509 1005.86 259.044 1006.52 259.044C1007.18 259.044 1007.71 258.509 1007.71 257.85C1007.71 257.191 1007.18 256.656 1006.52 256.656C1006.2 256.656 1005.9 256.781 1005.67 257.005C1005.45 257.23 1005.33 257.533 1005.33 257.85Z" fill="#A46FAF"/>
<path fill-rule="evenodd" clip-rule="evenodd" d="M778.98 127.459C778.98 127.776 779.104 128.079 779.329 128.303C779.553 128.528 779.856 128.652 780.173 128.652C780.49 128.652 780.793 128.528 781.018 128.303C781.242 128.079 781.367 127.776 781.367 127.459C781.367 127.141 781.242 126.839 781.018 126.614C780.793 126.39 780.49 126.265 780.173 126.265C779.856 126.265 779.553 126.39 779.329 126.614C779.104 126.839 778.98 127.141 778.98 127.459Z" fill="#A46FAF"/>
<path fill-rule="evenodd" clip-rule="evenodd" d="M1373.37 151.472C1373.37 151.789 1373.5 152.092 1373.72 152.317C1373.95 152.541 1374.25 152.666 1374.57 152.666C1375.23 152.666 1375.76 152.131 1375.76 151.472C1375.76 150.813 1375.23 150.278 1374.57 150.278C1374.25 150.278 1373.95 150.403 1373.72 150.628C1373.5 150.852 1373.37 151.155 1373.37 151.472Z" fill="#A46FAF"/>
<path fill-rule="evenodd" clip-rule="evenodd" d="M562.308 121.073C562.308 121.39 562.433 121.693 562.658 121.917C562.882 122.142 563.185 122.267 563.502 122.267C564.161 122.267 564.696 121.732 564.696 121.073C564.696 120.414 564.161 119.879 563.502 119.879C563.185 119.879 562.882 120.004 562.658 120.228C562.433 120.453 562.308 120.756 562.308 121.073Z" fill="#A46FAF"/>
<path fill-rule="evenodd" clip-rule="evenodd" d="M651.503 166.627C651.503 166.944 651.628 167.247 651.852 167.472C652.077 167.696 652.38 167.821 652.697 167.821C653.356 167.821 653.891 167.286 653.891 166.627C653.891 165.968 653.356 165.433 652.697 165.433C652.38 165.433 652.077 165.558 651.852 165.783C651.628 166.007 651.503 166.31 651.503 166.627Z" fill="#A46FAF"/>
<path fill-rule="evenodd" clip-rule="evenodd" d="M474.182 111.495C474.182 111.812 474.307 112.115 474.532 112.339C474.756 112.564 475.059 112.688 475.376 112.688C475.693 112.688 475.996 112.564 476.221 112.339C476.445 112.115 476.57 111.812 476.57 111.495C476.57 111.178 476.445 110.875 476.221 110.65C475.996 110.426 475.693 110.301 475.376 110.301C475.059 110.301 474.756 110.426 474.532 110.65C474.307 110.875 474.182 111.178 474.182 111.495Z" fill="#A46FAF"/>
<path fill-rule="evenodd" clip-rule="evenodd" d="M333.625 184.066C333.625 184.384 333.75 184.686 333.974 184.911C334.199 185.135 334.502 185.26 334.819 185.26C335.478 185.26 336.012 184.726 336.012 184.066C336.012 183.407 335.478 182.873 334.819 182.873C334.502 182.873 334.199 182.997 333.974 183.222C333.75 183.446 333.625 183.749 333.625 184.066Z" fill="#A46FAF"/>
<path fill-rule="evenodd" clip-rule="evenodd" d="M484.441 258.584C484.441 258.901 484.566 259.204 484.791 259.428C485.015 259.653 485.318 259.777 485.635 259.777C485.952 259.777 486.255 259.653 486.48 259.428C486.704 259.204 486.829 258.901 486.829 258.584C486.829 257.924 486.294 257.39 485.635 257.39C484.976 257.39 484.441 257.924 484.441 258.584Z" fill="#A46FAF"/>
<path fill-rule="evenodd" clip-rule="evenodd" d="M273.625 348.132C273.625 348.449 273.749 348.752 273.974 348.976C274.198 349.201 274.501 349.325 274.818 349.325C275.136 349.325 275.438 349.201 275.663 348.976C275.887 348.752 276.012 348.449 276.012 348.132C276.012 347.472 275.478 346.938 274.818 346.938C274.159 346.938 273.625 347.472 273.625 348.132Z" fill="#A46FAF"/>
<path fill-rule="evenodd" clip-rule="evenodd" d="M113.707 207.923C113.707 208.24 113.832 208.543 114.057 208.768C114.281 208.992 114.584 209.117 114.901 209.117C115.218 209.117 115.521 208.992 115.746 208.768C115.97 208.543 116.095 208.24 116.095 207.923C116.095 207.606 115.97 207.303 115.746 207.079C115.521 206.854 115.218 206.729 114.901 206.729C114.584 206.729 114.281 206.854 114.057 207.079C113.832 207.303 113.707 207.606 113.707 207.923Z" fill="#A46FAF"/>
<path fill-rule="evenodd" clip-rule="evenodd" d="M1212.56 76.1388C1212.56 76.4559 1212.69 76.7588 1212.91 76.9833C1213.14 77.2078 1213.44 77.3325 1213.76 77.3325C1214.42 77.3325 1214.95 76.798 1214.95 76.1388C1214.95 75.4795 1214.42 74.945 1213.76 74.945C1213.44 74.945 1213.14 75.0698 1212.91 75.2942C1212.69 75.5187 1212.56 75.8216 1212.56 76.1388Z" fill="#A46FAF"/>
<path fill-rule="evenodd" clip-rule="evenodd" d="M0 159.775C0 160.092 0.124718 160.395 0.349211 160.619C0.573704 160.844 0.876591 160.968 1.19373 160.968C1.51087 160.968 1.81376 160.844 2.03825 160.619C2.26275 160.395 2.38746 160.092 2.38746 159.775C2.38746 159.458 2.26275 159.155 2.03825 158.93C1.81376 158.706 1.51087 158.581 1.19373 158.581C0.876591 158.581 0.573704 158.706 0.349211 158.93C0.124718 159.155 0 159.458 0 159.775H0Z" fill="#A46FAF"/>
</svg>
