<svg width="180" height="180" viewBox="0 0 180 180" fill="none" xmlns="http://www.w3.org/2000/svg">
<rect width="180" height="180" rx="90" fill="#F8F7FF"/>
<rect x="2.5" y="2.5" width="175" height="175" rx="87.5" stroke="#5D53C0" stroke-opacity="0.05" stroke-width="5"/>
<mask id="mask0_3340_889" style="mask-type:alpha" maskUnits="userSpaceOnUse" x="4" y="4" width="172" height="172">
<rect x="4.28564" y="4.28564" width="171.429" height="171.429" rx="85.7143" fill="#F8F7FF"/>
<rect x="6.78564" y="6.78564" width="166.429" height="166.429" rx="83.2143" stroke="#5D53C0" stroke-opacity="0.05" stroke-width="5"/>
</mask>
<g mask="url(#mask0_3340_889)">
<rect y="-4.28564" width="180" height="188.571" fill="#F8F7FF"/>
<mask id="mask1_3340_889" style="mask-type:alpha" maskUnits="userSpaceOnUse" x="13" y="34" width="154" height="153">
<rect x="13.7144" y="34.2856" width="152.571" height="152.571" fill="#D9D9D9"/>
</mask>
<g mask="url(#mask1_3340_889)">
<path d="M141.652 156.36C157.675 121.257 136.708 66.5241 136.708 66.5241C136.534 65.8524 44.3451 69.5191 44.3451 69.5191C32.9396 107.267 32.1004 133.219 34.7694 149.109C33.7834 140.644 32.9625 115.345 42.4373 81.2321C33.9394 124.294 34.0999 149.095 42.6253 156.364C37.2046 147.122 38.8281 120.167 40.1672 116.933C40.1718 126.157 39.1766 144.601 44.5331 157.754C65.9132 173.998 118.694 162.442 131.782 159.64C132.351 158.54 132.979 143.763 133.337 140.184C134.08 141.417 134.332 157.887 134.621 159.06C142.523 151.644 148.017 129.764 140.372 88.4275C149.058 116.532 145.843 138.16 141.642 156.36H141.652Z" fill="#772400"/>
<path d="M39.4155 235.353C37.63 234.752 30.6739 231.156 30.0093 230.252C38.8927 212.018 44.9221 183.159 55.4943 164.975C57.24 164.81 67.1745 170.543 69.2967 170.819C68.7473 178.004 48.9591 220.757 39.4155 235.358L39.4155 235.353Z" fill="#FFC19F"/>
<path d="M53.3804 168.78C59.3311 155.776 72.9437 152.699 79.584 151.315H90.1759L90.1659 224.704H63.0553L64.4243 185.332L53.3804 168.78Z" fill="#FFC19F"/>
<path d="M140.931 235.353C142.717 234.752 149.673 231.156 150.337 230.252C141.454 212.018 135.425 183.159 124.852 164.975C123.107 164.81 113.172 170.543 111.05 170.819C111.599 178.004 131.388 220.757 140.931 235.358L140.931 235.353Z" fill="#FFC19F"/>
<path d="M126.967 168.78C121.017 155.776 107.404 152.699 100.764 151.315H90.1718L90.1818 224.704H117.292L115.923 185.332L126.967 168.78Z" fill="#FFC19F"/>
<path d="M53.3804 168.78C59.3311 155.776 72.9437 152.699 79.584 151.315H90.1759L90.1659 224.704H63.0553L64.4243 185.332L53.3804 168.78Z" fill="#FFC19F"/>
<path d="M126.967 168.78C121.017 155.776 107.404 152.699 100.764 151.315H90.1718L90.1818 224.704H117.292L115.923 185.332L126.967 168.78Z" fill="#FFC19F"/>
<g clip-path="url(#clip0_3340_889)">
<path d="M119.773 215.78C119.365 210.481 116.319 188.017 116.663 185.815C116.692 185.64 115.213 182.498 115.469 172.13C115.65 164.649 117.931 157.197 117.931 157.197C115.306 155.524 112.584 154.351 110.225 153.562C110.225 153.562 105.955 162.741 90.594 162.791C75.2328 162.736 70.9626 153.557 70.9626 153.557C68.6039 154.346 65.8864 155.519 63.2574 157.192C63.2574 157.192 65.5375 164.644 65.7194 172.125C65.97 182.498 64.4958 185.635 64.5253 185.81C64.8692 188.017 61.8226 210.481 61.4147 215.78C61.3656 216.414 73.3459 221.219 90.594 221.219C107.842 221.219 119.822 216.414 119.773 215.78Z" fill="#FF9AB0"/>
</g>
<path d="M79.7329 134.437V150.69C79.7329 154.183 84.5176 157.02 90.4164 157.02C96.3152 157.02 101.1 154.183 101.1 150.69V134.437H79.7329Z" fill="#EBAE8C"/>
<path d="M37.5313 115.449C39.9725 125.143 49.3289 131.295 56.4083 130.403C63.4878 129.515 64.9081 121.583 63.7363 112.253C62.5646 102.924 55.8713 96.0573 48.7918 96.9672C39.1203 98.2144 35.2366 106.332 37.5269 115.445L37.5313 115.449Z" fill="#FFC19F"/>
<path d="M46.0225 117.61C46.5374 121.702 49.8796 124.649 53.4881 124.197C57.0966 123.744 59.6044 120.06 59.0895 115.968C58.5747 111.875 55.2325 108.928 51.6284 109.381C48.0199 109.834 45.5121 113.518 46.027 117.61H46.0225Z" fill="#E0956C"/>
<path d="M142.392 116.869C139.693 126.492 130.168 132.386 123.115 131.308C116.063 130.225 114.855 122.262 116.28 112.968C117.705 103.673 124.58 96.9889 131.633 98.0941C141.269 99.6032 144.931 107.823 142.392 116.869Z" fill="#FFC19F"/>
<path d="M133.323 118.795C132.697 122.87 129.28 125.728 125.685 125.178C122.089 124.628 119.684 120.877 120.309 116.798C120.935 112.724 124.353 109.865 127.948 110.416C131.543 110.966 133.949 114.716 133.328 118.791L133.323 118.795Z" fill="#E0956C"/>
<path d="M136.839 79.3013C139.941 110.868 116.692 131.449 90.1677 131.09C63.6432 130.73 42.103 107.473 45.21 76.8202C46.9321 59.794 64.9791 46.6649 90.3186 47.1709C116.843 47.7035 134.633 56.8513 136.839 79.3013Z" fill="#772400"/>
<path d="M128.792 73.2251C131.118 78.7466 127.518 127.619 122.005 134.295C116.16 141.379 102.081 147.726 90.3187 147.73C79.5109 147.73 61.9299 141.05 57.5891 133.118C52.4537 123.735 49.8794 80.4288 51.6282 75.3246C57.5358 58.0854 72.1385 57.6992 91.2286 57.9566C109.089 58.1963 122.755 58.8932 128.792 73.2251Z" fill="#FFC19F"/>
<path d="M104.792 126.611C104.814 132.581 98.2854 137.446 90.2073 137.477C82.1337 137.508 75.5691 132.688 75.5469 126.718C75.5247 120.748 82.3911 121.844 90.4692 121.418C98.534 120.992 104.775 120.641 104.792 126.616V126.611Z" fill="#630900"/>
<path d="M91.055 131.822C86.692 131.836 82.866 133.141 80.6733 135.094C83.261 136.678 86.581 137.628 90.2073 137.615C94.2907 137.601 97.9791 136.367 100.66 134.392C98.3875 132.812 94.9298 131.809 91.055 131.822Z" fill="#D36553"/>
<path d="M100.661 121.454C98.0597 120.881 94.4912 121.068 90.4743 121.281C85.9382 121.521 81.7837 121.29 78.9741 122.058C80.137 124.454 84.5134 126.23 89.7375 126.212C95.3389 126.194 99.9461 124.117 100.665 121.449L100.661 121.454Z" fill="white"/>
<path d="M93.7231 118.502C93.5145 118.502 93.3281 118.347 93.297 118.13C93.0662 116.603 91.8767 115.604 90.2655 115.582C88.6454 115.56 87.4026 116.545 87.1674 118.036C87.1274 118.276 86.9055 118.44 86.6658 118.4C86.4262 118.365 86.2619 118.138 86.3019 117.899C86.6037 115.99 88.2371 114.676 90.2788 114.703C92.3072 114.73 93.8696 116.052 94.1669 117.996C94.2024 118.236 94.0382 118.458 93.7985 118.498H93.7275L93.7231 118.502Z" fill="#C4735B"/>
<path d="M120.718 88.3207C120.425 88.303 120.137 88.1787 119.915 87.9523C117.074 85.0717 111.406 83.9532 106.715 85.3647C106.062 85.5644 105.37 85.1916 105.17 84.5347C104.975 83.8778 105.343 83.1898 106 82.9901C111.597 81.3079 118.197 82.6661 121.686 86.2169C122.165 86.7051 122.161 87.4907 121.668 87.9701C121.406 88.2275 121.06 88.3474 120.718 88.3252V88.3207Z" fill="#772400"/>
<path d="M60.5722 87.8096C60.2304 87.814 59.8886 87.6809 59.6401 87.4101C59.174 86.9086 59.2051 86.123 59.7111 85.6569C63.3684 82.2792 70.0262 81.245 75.5344 83.1935C76.1824 83.4243 76.5197 84.1345 76.2889 84.7781C76.0581 85.4261 75.348 85.7634 74.7044 85.5326C70.0883 83.8948 64.3671 84.7293 61.3933 87.4767C61.1625 87.6942 60.8651 87.8007 60.5722 87.8052V87.8096Z" fill="#772400"/>
<path d="M79.8525 101.316C82.773 105.711 82.4002 110.526 79.8347 112.337C75.9688 115.067 66.8343 115.782 63.4344 111.774C60.141 107.885 61.7522 100.864 67.1406 97.8766C71.8543 95.2623 77.0296 97.0688 79.8525 101.321V101.316Z" fill="#F9FEFF"/>
<path d="M62.844 99.9631C67.0473 93.2166 77.1183 95.5912 79.9501 101.463C77.034 97.0692 71.6279 95.6977 67.2692 98.1122C64.5751 99.608 62.6576 102.289 62.1383 105.285C61.7255 107.673 62.2582 110.363 63.6252 111.978C62.0495 110.922 59.7548 104.921 62.8485 99.9631H62.844Z" fill="#772400"/>
<path d="M78.7698 104.224C79.9638 107.26 78.539 110.7 75.5874 111.903C72.6358 113.105 69.2759 111.619 68.0819 108.583C66.8879 105.547 68.3127 102.107 71.2643 100.904C74.2159 99.7012 77.5759 101.188 78.7698 104.224Z" fill="#772400"/>
<path d="M78.2988 103.696C78.6317 104.539 78.2367 105.493 77.4156 105.826C76.5944 106.159 75.6623 105.746 75.3339 104.903C75.001 104.06 75.396 103.105 76.2172 102.772C77.0383 102.44 77.9704 102.852 78.2988 103.696Z" fill="#FEFFFE"/>
<path d="M100.541 101.352C97.6691 105.737 98.0952 110.553 100.678 112.373C104.575 115.116 113.719 115.861 117.074 111.862C120.323 107.987 118.637 100.957 113.217 97.9519C108.472 95.3198 103.319 97.1086 100.541 101.352Z" fill="#F9FEFF"/>
<path d="M117.536 100.056C113.257 93.2965 103.212 95.6356 100.447 101.499C103.319 97.118 108.707 95.7643 113.093 98.1922C115.805 99.6968 117.749 102.387 118.303 105.383C118.743 107.775 118.241 110.46 116.892 112.071C118.454 111.019 120.682 105.027 117.54 100.056H117.536Z" fill="#772400"/>
<path d="M112.369 104.281C113.563 107.317 112.138 110.757 109.187 111.96C106.235 113.163 102.875 111.676 101.681 108.64C100.487 105.604 101.912 102.164 104.863 100.961C107.815 99.7583 111.175 101.245 112.369 104.281Z" fill="#772400"/>
<path d="M111.899 103.753C112.232 104.596 111.837 105.55 111.016 105.883C110.195 106.216 109.262 105.803 108.934 104.96C108.601 104.117 108.996 103.162 109.817 102.83C110.638 102.497 111.57 102.909 111.899 103.753Z" fill="#FEFFFE"/>
<path d="M139.462 77.8459C142.843 77.0393 144.432 76.0056 147.684 74.8374C133.207 73.5533 136.321 53.6662 119.533 46.4484C92.0582 36.769 67.412 44.9418 60.3557 49.2808C47.3579 57.2727 44.2673 60.7495 42.8579 77.6744C41.9735 88.3133 53.0231 107.946 55.3307 113.805C57.8455 111.334 54.8747 75.4261 55.9663 72.501C56.6019 70.809 62.433 60.9859 64.9755 60.8515C70.5164 60.5594 77.0568 79.7141 96.6734 78.9353C88.6545 74.8513 84.1867 68.9083 79.6223 60.3926C81.1837 61.278 82.7543 62.3535 84.3111 63.6746C100.75 77.5863 115.691 80.8221 129.5 79.3016C130.393 93.4682 129.96 103.759 129.96 109.067C136.625 105.396 140.024 87.4511 139.458 77.8459H139.462Z" fill="#772400"/>
<path d="M121.702 231.365C121.702 231.365 121.702 231.365 121.702 231.365V231.369C121.702 231.369 121.702 231.368 121.702 231.365C100.459 240.748 59.9179 236.562 56.3271 233.047C56.3271 233.047 60.5881 167.823 61.9774 151.152C66.5861 149.97 72.4404 149.259 78.7533 148.938C80.022 150.759 83.9126 154.402 89.3255 154.402C94.7385 154.402 98.911 150.924 100.321 149.185C105.457 149.537 110.326 150.083 114.512 150.779C115.89 169.64 121.646 230.776 121.702 231.365Z" fill="#F46483"/>
<path d="M117.907 189.31C123.233 187.144 134.907 180.282 139.123 177.1C134.032 170.469 123.549 156.789 118.285 151.028C114.698 150.58 113.225 150.455 110.069 150.074C112.892 161.654 112.803 175.773 114.241 178.911C115.937 182.617 116.367 186.567 117.907 189.31Z" fill="#F46483"/>
<path d="M60.0707 189.405C55.144 188.22 44.5626 180.75 40.2705 177.856C45.7033 168.957 53.484 158.065 58.2065 151.86C61.7396 151.092 63.3826 150.835 66.4896 150.173C64.7186 161.962 67.0925 175.357 65.9074 178.602C64.3761 182.801 61.2247 187.466 60.0663 189.41L60.0707 189.405Z" fill="#F46483"/>
</g>
</g>
<defs>
<clipPath id="clip0_3340_889">
<rect width="58.3586" height="70.1994" fill="white" transform="translate(61.415 153.557)"/>
</clipPath>
</defs>
</svg>
