<svg width="24" height="24" viewBox="0 0 24 24" fill="none" xmlns="http://www.w3.org/2000/svg">
<path d="M7.63636 10.1818V6.54545C7.63636 5.33993 8.11526 4.18377 8.9677 3.33133C9.82013 2.47889 10.9763 2 12.1818 2C13.3873 2 14.5435 2.47889 15.3959 3.33133C16.2484 4.18377 16.7273 5.33993 16.7273 6.54545V10.1818M5.81818 10.1818H18.5455C19.5496 10.1818 20.3636 10.9958 20.3636 12V20.1818C20.3636 21.186 19.5496 22 18.5455 22H5.81818C4.81403 22 4 21.186 4 20.1818V12C4 10.9958 4.81403 10.1818 5.81818 10.1818Z" stroke="#5D53C0" stroke-width="2" stroke-linecap="round" stroke-linejoin="round"/>
</svg>
