<svg width="180" height="180" viewBox="0 0 180 180" fill="none" xmlns="http://www.w3.org/2000/svg">
<rect width="180" height="180" rx="90" fill="#F8F7FF"/>
<rect x="2.5" y="2.5" width="175" height="175" rx="87.5" stroke="#5D53C0" stroke-opacity="0.05" stroke-width="5"/>
<mask id="mask0_3340_754" style="mask-type:alpha" maskUnits="userSpaceOnUse" x="4" y="4" width="172" height="172">
<rect x="4.28564" y="4.28564" width="171.429" height="171.429" rx="85.7143" fill="#F8F7FF"/>
<rect x="6.78564" y="6.78564" width="166.429" height="166.429" rx="83.2143" stroke="#5D53C0" stroke-opacity="0.05" stroke-width="5"/>
</mask>
<g mask="url(#mask0_3340_754)">
<rect y="-4.28564" width="180" height="188.571" fill="#F8F7FF"/>
<path d="M77.9014 128.849V145.466C77.9014 149.037 82.7717 151.937 88.776 151.937C94.7803 151.937 99.6506 149.037 99.6506 145.466V128.849H77.9014Z" fill="#EBAE8C"/>
<path d="M34.9447 109.436C37.4296 119.346 46.9533 125.636 54.1594 124.724C61.3655 123.816 62.8112 115.707 61.6185 106.169C60.4257 96.6301 53.6127 89.61 46.4067 90.5403C36.5621 91.8154 32.6089 100.115 34.9402 109.431L34.9447 109.436Z" fill="#FFC19F"/>
<path d="M43.5876 111.646C44.1117 115.83 47.5137 118.843 51.1868 118.38C54.8598 117.917 57.4124 114.151 56.8884 109.967C56.3643 105.783 52.9623 102.77 49.2937 103.232C45.6207 103.695 43.0681 107.462 43.5921 111.646H43.5876Z" fill="#E0956C"/>
<path d="M141.68 110.888C138.934 120.726 129.238 126.752 122.059 125.65C114.88 124.542 113.651 116.402 115.102 106.899C116.552 97.3971 123.55 90.5631 130.729 91.693C140.537 93.2359 144.265 101.64 141.68 110.888Z" fill="#FFC19F"/>
<path d="M132.451 112.858C131.814 117.023 128.335 119.946 124.676 119.383C121.016 118.82 118.567 114.986 119.204 110.815C119.841 106.65 123.32 103.727 126.98 104.29C130.639 104.853 133.088 108.687 132.455 112.853L132.451 112.858Z" fill="#E0956C"/>
<path d="M136.029 72.4796C139.187 104.753 115.522 125.795 88.5232 125.427C61.5241 125.06 39.5987 101.281 42.7612 69.9429C44.5142 52.5358 62.884 39.1129 88.6768 39.6302C115.676 40.1747 133.784 49.5272 136.029 72.4796Z" fill="#772400"/>
<path d="M127.838 66.2675C130.205 71.9125 126.541 121.879 120.93 128.704C114.98 135.946 100.649 142.435 88.6764 142.44C77.6752 142.44 59.7798 135.61 55.3612 127.501C50.134 117.908 47.5136 73.6324 49.2937 68.4139C55.307 50.7889 70.171 50.3941 89.6025 50.6573C107.783 50.9023 121.693 51.6148 127.838 66.2675Z" fill="#FFC19F"/>
<path d="M103.409 120.848C103.431 126.952 96.7855 131.925 88.5629 131.957C80.3448 131.989 73.6628 127.061 73.6402 120.957C73.6176 114.854 80.6068 115.975 88.8294 115.539C97.0385 115.103 103.391 114.745 103.409 120.853V120.848Z" fill="#630900"/>
<path d="M89.4263 126.176C84.9852 126.19 81.0907 127.524 78.8589 129.521C81.4928 131.141 84.8722 132.112 88.5634 132.098C92.7199 132.085 96.4742 130.823 99.2031 128.804C96.8899 127.188 93.3704 126.163 89.4263 126.176Z" fill="#D36553"/>
<path d="M99.203 115.575C96.5555 114.99 92.9231 115.18 88.8343 115.398C84.217 115.643 79.9883 115.407 77.1284 116.192C78.3121 118.643 82.7668 120.458 88.0844 120.44C93.786 120.422 98.4756 118.298 99.2075 115.571L99.203 115.575Z" fill="white"/>
<path d="M92.1416 112.558C91.9292 112.558 91.7395 112.399 91.7079 112.176C91.4729 110.615 90.2621 109.594 88.6221 109.572C86.9731 109.549 85.7081 110.556 85.4686 112.081C85.428 112.326 85.2021 112.494 84.9581 112.453C84.7141 112.417 84.547 112.186 84.5876 111.941C84.8949 109.989 86.5574 108.646 88.6357 108.673C90.7004 108.7 92.2907 110.053 92.5934 112.04C92.6295 112.285 92.4624 112.512 92.2184 112.553H92.1461L92.1416 112.558Z" fill="#C4735B"/>
<path d="M119.62 81.7002C119.322 81.6821 119.028 81.555 118.802 81.3236C115.91 78.3785 110.141 77.235 105.366 78.678C104.702 78.8822 103.997 78.501 103.793 77.8294C103.595 77.1578 103.97 76.4545 104.638 76.2503C110.335 74.5304 117.054 75.919 120.605 79.5493C121.093 80.0484 121.088 80.8516 120.587 81.3417C120.32 81.6049 119.968 81.7274 119.62 81.7047V81.7002Z" fill="#772400"/>
<path d="M58.3975 81.178C58.0496 81.1825 57.7017 81.0464 57.4487 80.7695C56.9743 80.2568 57.006 79.4536 57.521 78.9771C61.2438 75.5238 68.0206 74.4665 73.6274 76.4586C74.287 76.6946 74.6303 77.4206 74.3954 78.0786C74.1605 78.7411 73.4376 79.086 72.7825 78.85C68.0839 77.1756 62.2603 78.0287 59.2333 80.8376C58.9983 81.06 58.6957 81.1689 58.3975 81.1734V81.178Z" fill="#772400"/>
<path d="M78.0229 94.9865C80.9957 99.479 80.6162 104.403 78.0048 106.254C74.0697 109.045 64.7718 109.775 61.3111 105.678C57.9588 101.703 59.5988 94.5237 65.0836 91.4697C69.8816 88.7969 75.1495 90.6438 78.0229 94.9911V94.9865Z" fill="#F9FEFF"/>
<path d="M60.7102 93.603C64.9887 86.7055 75.2398 89.1332 78.1223 95.1368C75.154 90.6443 69.6512 89.2421 65.2146 91.7107C62.4722 93.24 60.5205 95.9808 59.9919 99.0439C59.5717 101.485 60.1139 104.235 61.5054 105.887C59.9015 104.807 57.5657 98.6718 60.7147 93.603H60.7102Z" fill="#772400"/>
<path d="M76.9207 97.959C78.1361 101.063 76.6858 104.58 73.6814 105.809C70.677 107.039 67.2569 105.519 66.0416 102.415C64.8263 99.3113 66.2765 95.7945 69.2809 94.5647C72.2854 93.3349 75.7054 94.8551 76.9207 97.959Z" fill="#772400"/>
<path d="M76.4414 97.4201C76.7802 98.2823 76.3781 99.2579 75.5423 99.5982C74.7065 99.9386 73.7577 99.5166 73.4234 98.6544C73.0846 97.7922 73.4867 96.8166 74.3225 96.4762C75.1583 96.1359 76.107 96.5579 76.4414 97.4201Z" fill="#FEFFFE"/>
<path d="M99.0807 95.0233C96.1576 99.5067 96.5913 104.43 99.2207 106.291C103.187 109.095 112.494 109.858 115.91 105.769C119.217 101.807 117.5 94.6195 111.984 91.5473C107.154 88.8564 101.909 90.6852 99.0807 95.0233Z" fill="#F9FEFF"/>
<path d="M116.38 93.6987C112.025 86.7876 101.801 89.1791 98.9858 95.1735C101.909 90.6947 107.394 89.3107 111.857 91.7928C114.618 93.3312 116.597 96.0811 117.161 99.1441C117.609 101.59 117.098 104.335 115.725 105.983C117.315 104.907 119.583 98.7811 116.384 93.6987H116.38Z" fill="#772400"/>
<path d="M111.121 98.0186C112.337 101.122 110.886 104.639 107.882 105.869C104.878 107.099 101.458 105.579 100.242 102.475C99.027 99.3709 100.477 95.854 103.482 94.6243C106.486 93.3945 109.906 94.9147 111.121 98.0186Z" fill="#772400"/>
<path d="M110.642 97.4787C110.981 98.3409 110.579 99.3165 109.743 99.6568C108.907 99.9972 107.958 99.5752 107.624 98.713C107.285 97.8508 107.687 96.8751 108.523 96.5348C109.359 96.1945 110.308 96.6165 110.642 97.4787Z" fill="#FEFFFE"/>
<path d="M146.521 89.2739C140.616 87.3135 136.875 83.5653 136.319 73.8906C139.681 73.0738 141.266 72.0346 144.501 70.8548C131.77 67.9143 133.206 49.536 116.508 42.2709C89.1793 32.5327 64.6606 40.7735 57.6397 45.1479C44.7049 53.2026 43.327 63.6714 42.6538 75.3836C41.0861 86.0157 38.8317 89.2058 33.4282 91.7515C39.3377 93.3353 42.7758 91.7016 44.714 89.5961C44.2848 96.2758 41.2804 98.4585 37.9732 101.494C47.1446 101.744 52.0285 96.5027 53.5239 89.7594C55.182 82.2675 52.1731 71.4856 53.2619 68.5405C53.8944 66.8343 59.6999 56.9418 62.2299 56.8056C67.7418 56.5107 74.2431 75.7965 93.756 75.0115C85.7773 70.9002 81.3407 64.9148 76.8002 56.3428C78.3544 57.2322 79.9131 58.3167 81.4672 59.6463C97.8176 73.6501 112.677 76.9037 126.416 75.3654C127.297 89.6324 123.651 97.138 141.176 102.139C139.55 100.196 137.11 94.3018 136.663 89.6051C138.551 90.726 141.989 91.6699 146.525 89.2739H146.521Z" fill="#772400"/>
<path d="M121.481 227.945C121.481 227.945 121.481 227.945 121.481 227.945V227.95C121.481 227.95 121.481 227.948 121.481 227.945C99.8581 237.538 58.592 233.259 54.937 229.665C54.937 229.665 59.2742 162.982 60.6883 145.937C65.3794 144.729 71.3385 144.002 77.7644 143.673C79.0557 145.536 83.0159 149.261 88.5257 149.261C94.0355 149.261 98.2826 145.704 99.7175 143.926C104.946 144.286 109.902 144.845 114.162 145.556C115.565 164.839 121.425 227.343 121.481 227.945Z" fill="#17AADD"/>
<path d="M117.618 184.949C123.04 182.735 134.922 175.72 139.214 172.466C134.032 165.686 123.361 151.701 118.002 145.811C114.352 145.352 112.852 145.225 109.64 144.835C112.513 156.674 112.423 171.109 113.886 174.317C115.612 178.106 116.051 182.145 117.618 184.949Z" fill="#17AADD"/>
<path d="M58.7477 185.047C53.7328 183.835 42.9621 176.198 38.5933 173.24C44.1232 164.141 52.0431 153.005 56.8502 146.661C60.4464 145.876 62.1188 145.613 65.2814 144.937C63.4787 156.99 65.895 170.685 64.6887 174.002C63.1301 178.295 59.9223 183.064 58.7432 185.052L58.7477 185.047Z" fill="#17AADD"/>
</g>
</svg>
