<svg width="44" height="50" viewBox="0 0 44 50" fill="none" xmlns="http://www.w3.org/2000/svg">
<g clip-path="url(#clip0_3301_6751)">
<g opacity="0.2">
<path d="M22.0551 9.0625C13.0506 9.0625 5.75098 16.3621 5.75098 25.3658C5.75098 34.3694 13.0515 41.6699 22.0551 41.6699C31.0587 41.6699 38.3592 34.3703 38.3592 25.3658C38.3592 16.3613 31.0587 9.0625 22.0551 9.0625Z" fill="#A3A3A3"/>
<path d="M3.87636 15.3406C4.05352 15.2557 4.34768 15.1602 4.52566 14.8948C4.66739 14.6847 4.70776 14.4293 4.27929 14.1409C3.45943 13.5896 1.86503 12.6635 1.20996 12.1765C1.39371 11.7571 2.35447 10.152 2.45417 10.1174C2.5102 10.0984 4.62207 11.4407 5.81766 12.2457C7.17888 13.162 7.49776 14.3271 6.56419 15.713C5.95609 16.6161 5.41309 16.9523 4.95413 17.0504C4.81076 16.9877 3.91179 15.6133 3.87636 15.3406Z" fill="#A3A3A3"/>
<path d="M11.1557 6.77527C12.1651 8.03349 12.2665 9.97479 10.4793 11.4077C8.86095 12.7055 7.00782 12.6008 5.63507 10.8902C4.61415 9.61801 4.54823 7.66023 6.30579 6.2504C7.90925 4.96416 9.82254 5.11413 11.1557 6.77527ZM7.61756 7.87034C7.17838 8.22301 7.13142 8.79485 7.64805 9.43838C8.10783 10.011 8.70604 10.1116 9.10897 9.78857C9.56298 9.42437 9.58441 8.8962 9.06859 8.25267C8.47286 7.51026 7.97764 7.58277 7.61839 7.87034H7.61756Z" fill="#A3A3A3"/>
<path d="M13.4051 2.46634C13.4966 2.50177 14.0116 4.54854 14.3502 5.53484C14.5892 6.22946 14.8075 6.37448 15.18 6.24676C15.5705 6.11245 15.5681 5.73012 15.3884 5.2069C15.1116 4.40104 14.4252 2.66244 14.2217 2.1285C14.3074 2.00326 16.5774 1.12737 16.6244 1.20729C16.7126 1.34902 17.5736 3.73774 17.8563 4.56007C18.4133 6.18002 18.26 7.58408 15.9611 8.37428C14.1681 8.99062 12.8399 8.65114 12.1453 6.62826C11.9187 5.96826 11.2323 3.76905 11.1532 3.27878C11.121 3.06949 13.34 2.42184 13.4051 2.46634Z" fill="#A3A3A3"/>
<path d="M19.0634 7.28188C19.0065 6.64824 18.9794 1.93507 19.0675 0.954528C19.8173 0.879546 20.8399 0.835875 21.5156 0.825163C23.4775 0.794676 24.6245 1.50165 24.6483 3.05156C24.6624 3.93075 24.3509 4.46139 23.709 4.79758C24.369 5.60343 24.9565 6.51805 24.9285 6.55513C24.7991 6.71086 23.2698 7.37004 22.8661 7.34862C22.8381 7.34862 22.1154 6.19093 21.3961 5.22357H21.3681C21.3747 6.23048 21.3681 6.99184 21.3425 7.2003C21.2214 7.23821 19.0634 7.36263 19.0626 7.28105L19.0634 7.28188ZM21.4356 3.52782C21.5106 3.54512 21.6425 3.55172 21.7273 3.55007C22.1121 3.5443 22.3074 3.43224 22.3033 3.15126C22.3 2.92467 22.0998 2.75575 21.715 2.76152C21.621 2.76317 21.4991 2.77388 21.4431 2.78377L21.4356 3.527V3.52782Z" fill="#A3A3A3"/>
<path d="M30.1065 5.04391C30.493 3.92082 30.8168 2.80598 30.9643 2.52088C31.4257 2.59339 33.1124 3.20231 33.1742 3.28141C33.236 3.36052 31.2049 8.97842 31.092 9.07318C30.98 9.25528 29.051 8.62987 28.9348 8.5038C28.8162 8.21376 28.667 7.11787 28.293 5.69485L28.2427 5.66766C27.9007 6.66221 27.6799 7.5348 27.5209 7.91136C27.0595 7.83885 25.2838 7.22828 25.3044 7.13929C25.334 6.88139 27.0875 1.66641 27.3034 1.32775C27.4006 1.13165 29.4515 1.83697 29.463 1.91772C29.5314 2.18057 29.8437 3.55333 30.0612 5.02743L30.1057 5.04308L30.1065 5.04391Z" fill="#A3A3A3"/>
<path d="M35.2671 12.4572C35.3264 12.5816 32.309 10.2835 31.3936 9.50239C31.705 9.0113 34.4019 5.56046 35.2852 4.51318C36.2905 5.19132 39.2115 7.38311 39.1505 7.41607C39.0483 7.64514 38.3389 8.63227 37.9936 8.95032C37.6418 8.73032 36.5813 7.90799 35.9304 7.38311L35.7434 7.66244C36.5879 8.28784 37.1581 8.76328 37.1655 8.84815C37.1828 8.99729 36.2147 10.1402 36.1817 10.1838C36.1438 10.2349 35.4986 9.74876 34.6606 9.08216L34.4258 9.39362C35.1171 9.8806 36.1586 10.6659 36.4437 10.9271C36.2105 11.33 35.4789 12.2998 35.2663 12.4572H35.2671Z" fill="#A3A3A3"/>
<path d="M39.6568 14.2773C39.0018 14.7791 37.8803 15.6097 37.7238 15.6419C37.5334 15.7341 36.2332 13.708 36.2785 13.6635C36.5652 13.3957 37.5285 12.762 38.2017 12.3171C38.42 11.8787 39.8175 8.90498 39.9263 8.83824C40.0416 8.76573 41.7555 10.1294 41.7654 10.2505C41.7637 10.3099 41.1837 11.2682 40.6827 12.0411L40.7156 12.0864C41.6822 11.9504 42.7855 11.6324 42.8176 11.6909C42.853 11.77 43.6721 13.7525 43.5674 13.8398C43.4834 13.9247 40.0762 14.2386 39.656 14.2782L39.6568 14.2773Z" fill="#A3A3A3"/>
<path d="M4.04468 38.7284L4.85548 39.8465C4.79862 40.0072 3.17455 41.019 3.13583 40.9432C3.02047 40.8172 0.819616 37.5344 0.823736 37.4421C0.830328 37.3704 1.82817 36.4789 2.08855 36.3635C3.20504 36.5283 4.77143 37.1282 5.21803 36.834C5.38447 36.7244 5.46934 36.5563 5.2996 36.2976C5.10926 36.0076 4.74012 35.9581 4.63547 35.9474C4.66349 35.6928 5.06477 34.3061 5.18836 34.2138C5.29136 34.1231 6.4128 34.1956 7.34637 35.6154C8.03769 36.6668 8.00556 37.8895 6.93768 38.5916C6.19527 39.0794 5.33915 39.0472 4.07269 38.6888L4.0455 38.7292L4.04468 38.7284Z" fill="#A3A3A3"/>
<path d="M6.88231 41.6129C6.94987 41.7975 7.01744 42.0991 7.26464 42.3018C7.46074 42.4625 7.71123 42.5276 8.03835 42.1279C8.66458 41.3641 9.7374 39.8636 10.2837 39.2563C10.6842 39.4788 12.192 40.5863 12.2168 40.6892C12.2299 40.7469 10.6949 42.7237 9.78107 43.8377C8.74121 45.1066 7.55056 45.3143 6.25855 44.2546C5.41645 43.5641 5.133 42.9923 5.07861 42.5251C5.15442 42.3883 6.60792 41.622 6.88231 41.6129Z" fill="#A3A3A3"/>
<path d="M13.1995 47.1875C13.1962 47.1957 12.097 46.6626 12.0319 46.6239C12.003 46.6906 11.3579 47.5262 11.3068 47.5031C11.2318 47.5097 9.18091 46.5077 9.06885 46.3199C9.452 45.8452 13.23 41.4073 13.3288 41.3908C13.4277 41.3751 15.9672 42.4331 16.1551 42.565C16.1773 42.5847 15.7909 47.822 15.4728 49.1272C15.1663 49.1016 13.1294 48.3238 13.1031 48.3122C13.0726 48.4276 13.164 47.3589 13.1986 47.1859L13.1995 47.1875ZM13.9452 43.9303C13.6428 44.292 13.0042 45.1605 12.9968 45.177C13.0437 45.1877 13.5035 45.4003 13.7235 45.5066C13.7392 45.4242 13.9452 44.3959 13.9913 43.941C13.974 43.9336 13.9616 43.9377 13.9443 43.9303H13.9452Z" fill="#A3A3A3"/>
<path d="M21.0497 46.2284C21.1494 45.0452 21.1906 43.8842 21.264 43.5719C21.7295 43.529 23.5134 43.7062 23.5934 43.768C23.6733 43.829 23.0792 49.774 22.9935 49.8943C22.9292 50.0978 20.9055 49.9643 20.763 49.8704C20.5768 49.6183 20.164 48.5924 19.4529 47.3045L19.3977 47.2905C19.3095 48.3386 19.3095 49.2384 19.2469 49.643C18.7813 49.6858 16.9109 49.5284 16.9092 49.4378C16.8746 49.1799 17.2981 43.6947 17.4242 43.314C17.4704 43.0997 19.6317 43.281 19.663 43.3568C19.794 43.595 20.4326 44.8499 21.0044 46.2259L21.0514 46.23L21.0497 46.2284Z" fill="#A3A3A3"/>
<path d="M28.4107 45.2682C28.0918 44.1245 27.726 43.022 27.6856 42.704C28.1066 42.5021 29.8411 42.0464 29.9375 42.0761C30.0331 42.1058 31.5476 47.8843 31.5097 48.0269C31.5204 48.2403 29.5774 48.8196 29.4102 48.7816C29.1482 48.6103 28.4033 47.792 27.2876 46.8329L27.2308 46.8395C27.5134 47.8522 27.8265 48.6968 27.9089 49.0972C27.4878 49.2991 25.6792 49.8042 25.6462 49.7193C25.5235 49.4903 24.009 44.2003 23.995 43.7999C23.9637 43.5831 26.0525 42.9998 26.1085 43.0599C26.3137 43.2379 27.3502 44.1912 28.3654 45.2814L28.4107 45.269V45.2682Z" fill="#A3A3A3"/>
<path d="M35.8622 44.4153C35.8672 44.4227 34.8388 45.0811 34.7721 45.1165C34.8133 45.1758 35.189 46.1621 35.1429 46.1943C35.1099 46.2618 33.1835 47.4871 32.9643 47.4846C32.7599 46.9095 30.9505 41.3699 30.9884 41.2768C31.0271 41.1837 33.256 39.5711 33.4669 39.4805C33.4949 39.4722 37.7582 42.5375 38.7058 43.4908C38.5237 43.7388 36.7958 45.0695 36.7727 45.0852C36.8551 45.1709 35.9916 44.5356 35.8622 44.4153ZM33.4752 42.0777C33.6251 42.5251 34.0322 43.5229 34.0421 43.5378C34.0758 43.5032 34.4969 43.2222 34.7029 43.0903C34.6411 43.0343 33.8723 42.3207 33.5081 42.0439C33.4925 42.0546 33.49 42.0678 33.4743 42.0785L33.4752 42.0777Z" fill="#A3A3A3"/>
<path d="M42.0721 39.3259C41.9691 39.2987 41.2721 38.8249 40.4398 38.2432C40.1383 38.6511 39.9875 38.8315 39.6694 39.2616C40.3632 39.756 40.9927 40.2158 41.2992 40.4572C41.099 40.8791 39.9825 42.4933 39.9034 42.448C39.6587 42.354 34.9241 39.096 34.6613 38.7936C34.5228 38.6601 35.9582 36.8012 36.0373 36.8004C35.9425 36.6982 36.8654 37.3096 37.9465 38.057C38.2604 37.6005 38.4005 37.4357 38.7128 37.0122C37.8913 36.4156 37.1546 35.8561 36.933 35.6518C37.1332 35.2299 38.225 33.7138 38.3181 33.6767C38.417 33.6322 43.3905 37.2099 43.4424 37.3393C43.5644 37.4958 42.1364 39.3597 42.0721 39.3251V39.3259Z" fill="#A3A3A3"/>
</g>
<path d="M3.05263 14.5164C3.22979 14.4315 3.52395 14.3359 3.70193 14.0706C3.84366 13.8605 3.88403 13.6051 3.45556 13.3167C2.6357 12.7654 1.0413 11.8393 0.38623 11.3523C0.569978 10.9329 1.53074 9.32777 1.63044 9.29317C1.68647 9.27422 3.79834 10.6165 4.99393 11.4215C6.35515 12.3378 6.67403 13.5029 5.74046 14.8888C5.13236 15.7919 4.58936 16.1281 4.1304 16.2261C3.98703 16.1635 3.08806 14.7891 3.05263 14.5164Z" fill="#5E59A5"/>
<path d="M10.332 5.95105C11.3414 7.20927 11.4427 9.15057 9.65552 10.5835C8.03722 11.8812 6.18409 11.7766 4.81133 10.066C3.79042 8.79379 3.7245 6.83601 5.48206 5.42618C7.08552 4.13994 8.99881 4.28991 10.332 5.95105ZM6.79383 7.04612C6.35465 7.39879 6.30768 7.97063 6.82432 8.61416C7.2841 9.18683 7.88231 9.28735 8.28524 8.96435C8.73925 8.60015 8.76068 8.07198 8.24486 7.42845C7.64913 6.68604 7.15391 6.75855 6.79466 7.04612H6.79383Z" fill="#5E59A5"/>
<path d="M12.5814 1.64212C12.6728 1.67755 13.1878 3.72432 13.5265 4.71062C13.7654 5.40524 13.9838 5.55026 14.3562 5.42254C14.7468 5.28823 14.7443 4.90591 14.5647 4.38268C14.2879 3.57682 13.6015 1.83823 13.398 1.30429C13.4836 1.17904 15.7537 0.303148 15.8007 0.383075C15.8888 0.524799 16.7499 2.91352 17.0325 3.73585C17.5895 5.3558 17.4363 6.75986 15.1374 7.55006C13.3444 8.1664 12.0161 7.82692 11.3215 5.80405C11.0949 5.14404 10.4085 2.94483 10.3294 2.45456C10.2973 2.24527 12.5163 1.59762 12.5814 1.64212Z" fill="#5E59A5"/>
<path d="M18.2397 6.45766C18.1828 5.82402 18.1556 1.11085 18.2438 0.130309C18.9936 0.0553271 20.0162 0.0116561 20.6918 0.000944347C22.6537 -0.029543 23.8007 0.677433 23.8246 2.22734C23.8386 3.10653 23.5272 3.63717 22.8853 3.97336C23.5453 4.77921 24.1328 5.69383 24.1048 5.73091C23.9754 5.88664 22.4461 6.54583 22.0423 6.5244C22.0143 6.5244 21.2917 5.36671 20.5724 4.39936H20.5443C20.5509 5.40626 20.5443 6.16762 20.5188 6.37609C20.3977 6.41399 18.2397 6.53841 18.2388 6.45684L18.2397 6.45766ZM20.6119 2.7036C20.6869 2.72091 20.8187 2.7275 20.9036 2.72585C21.2884 2.72008 21.4837 2.60802 21.4796 2.32704C21.4763 2.10045 21.276 1.93153 20.8912 1.9373C20.7973 1.93895 20.6754 1.94966 20.6193 1.95955L20.6119 2.70278V2.7036Z" fill="#5E59A5"/>
<path d="M29.2828 4.21969C29.6693 3.0966 29.9931 1.98176 30.1406 1.69666C30.602 1.76917 32.2887 2.37809 32.3505 2.45719C32.4123 2.5363 30.3812 8.1542 30.2683 8.24896C30.1562 8.43106 28.2273 7.80566 28.1111 7.67959C27.9925 7.38954 27.8433 6.29365 27.4692 4.87064L27.419 4.84344C27.077 5.83799 26.8562 6.71059 26.6972 7.08714C26.2357 7.01463 24.46 6.40406 24.4806 6.31507C24.5103 6.05717 26.2637 0.842191 26.4796 0.503535C26.5769 0.307428 28.6277 1.01276 28.6393 1.09351C28.7077 1.35636 29.02 2.72911 29.2375 4.20321L29.282 4.21887L29.2828 4.21969Z" fill="#5E59A5"/>
<path d="M34.4434 11.633C34.5027 11.7574 31.4853 9.4593 30.5698 8.67817C30.8813 8.18708 33.5782 4.73624 34.4615 3.68896C35.4667 4.3671 38.3878 6.55889 38.3268 6.59185C38.2246 6.82092 37.5152 7.80805 37.1699 8.1261C36.8181 7.9061 35.7576 7.08377 35.1067 6.55889L34.9196 6.83822C35.7642 7.46362 36.3344 7.93906 36.3418 8.02393C36.3591 8.17307 35.3909 9.31593 35.358 9.3596C35.3201 9.41069 34.6749 8.92454 33.8369 8.25794L33.6021 8.56941C34.2934 9.05638 35.3349 9.84163 35.62 10.1028C35.3868 10.5058 34.6551 11.4756 34.4425 11.633H34.4434Z" fill="#5E59A5"/>
<path d="M38.8331 13.4531C38.178 13.9549 37.0566 14.7855 36.9 14.8176C36.7097 14.9099 35.4095 12.8837 35.4548 12.8393C35.7415 12.5715 36.7047 11.9378 37.3779 11.4929C37.5963 11.0545 38.9938 8.08076 39.1025 8.01402C39.2179 7.94151 40.9318 9.3052 40.9417 9.42632C40.94 9.48565 40.3599 10.4439 39.859 11.2168L39.8919 11.2622C40.8584 11.1262 41.9618 10.8081 41.9939 10.8666C42.0293 10.9457 42.8484 12.9282 42.7437 13.0156C42.6597 13.1005 39.2525 13.4144 38.8323 13.4539L38.8331 13.4531Z" fill="#5E59A5"/>
<path d="M3.22095 37.9041L4.03175 39.0223C3.97489 39.183 2.35082 40.1948 2.3121 40.119C2.19674 39.9929 -0.00411413 36.711 5.77691e-06 36.6179C0.00659763 36.5462 1.00444 35.6547 1.26482 35.5393C2.38131 35.7041 3.9477 36.304 4.3943 36.0098C4.56074 35.9002 4.64561 35.7321 4.47587 35.4734C4.28553 35.1834 3.91639 35.1339 3.81174 35.1232C3.83976 34.8686 4.24104 33.4818 4.36463 33.3895C4.46763 33.2989 5.58907 33.3714 6.52264 34.7911C7.21396 35.8425 7.18183 37.0653 6.11395 37.7674C5.37154 38.2552 4.51542 38.223 3.24896 37.8646L3.22177 37.905L3.22095 37.9041Z" fill="#76B9E3"/>
<path d="M6.05858 40.7887C6.12614 40.9733 6.19371 41.2749 6.4409 41.4776C6.63701 41.6382 6.8875 41.7033 7.21462 41.3037C7.84085 40.5399 8.91367 39.0394 9.45997 38.4321C9.86043 38.6546 11.3683 39.762 11.393 39.865C11.4062 39.9227 9.87114 41.8994 8.95734 43.0135C7.91748 44.2824 6.72683 44.49 5.43482 43.4304C4.59272 42.7399 4.30927 42.1681 4.25488 41.7009C4.33069 41.5641 5.78419 40.7978 6.05858 40.7887Z" fill="#5E59A5"/>
<path d="M12.3757 46.3633C12.3724 46.3715 11.2732 45.8384 11.2082 45.7997C11.1793 45.8664 10.5341 46.7019 10.4831 46.6789C10.4081 46.6855 8.35718 45.6835 8.24512 45.4956C8.62827 45.021 12.4062 40.5831 12.5051 40.5666C12.604 40.5509 15.1435 41.6089 15.3314 41.7408C15.3536 41.7605 14.9672 46.9978 14.6491 48.3029C14.3426 48.2774 12.3057 47.4996 12.2793 47.488C12.2488 47.6034 12.3403 46.5347 12.3749 46.3616L12.3757 46.3633ZM13.1214 43.1061C12.819 43.4678 12.1805 44.3363 12.173 44.3528C12.22 44.3635 12.6798 44.5761 12.8998 44.6824C12.9154 44.6 13.1214 43.5716 13.1676 43.1168C13.1503 43.1094 13.1379 43.1135 13.1206 43.1061H13.1214Z" fill="#5E59A5"/>
<path d="M20.226 45.4042C20.3257 44.2209 20.3669 43.0599 20.4402 42.7477C20.9058 42.7048 22.6897 42.882 22.7696 42.9438C22.8496 43.0047 22.2555 48.9498 22.1698 49.0701C22.1055 49.2736 20.0818 49.1401 19.9393 49.0462C19.753 48.794 19.3402 47.7682 18.6291 46.4803L18.5739 46.4663C18.4858 47.5144 18.4858 48.4142 18.4231 48.8188C17.9576 48.8616 16.0871 48.7042 16.0855 48.6136C16.0509 48.3557 16.4744 42.8704 16.6005 42.4898C16.6466 42.2755 18.8079 42.4568 18.8392 42.5326C18.9703 42.7707 19.6088 44.0257 20.1807 45.4017L20.2277 45.4058L20.226 45.4042Z" fill="#5E59A5"/>
<path d="M27.587 44.444C27.2681 43.3003 26.9022 42.1978 26.8619 41.8797C27.2829 41.6779 29.0174 41.2222 29.1138 41.2519C29.2094 41.2815 30.7239 47.0601 30.686 47.2027C30.6967 47.4161 28.7537 47.9953 28.5865 47.9574C28.3244 47.786 27.5795 46.9678 26.4639 46.0087L26.407 46.0153C26.6896 47.028 27.0028 47.8726 27.0852 48.273C26.6641 48.4749 24.8555 48.98 24.8225 48.8951C24.6997 48.6661 23.1853 43.3761 23.1712 42.9756C23.1399 42.7589 25.2287 42.1756 25.2848 42.2357C25.4899 42.4137 26.5265 43.367 27.5416 44.4572L27.587 44.4448V44.444Z" fill="#5E59A5"/>
<path d="M35.0385 43.5911C35.0434 43.5985 34.0151 44.2569 33.9484 44.2923C33.9896 44.3516 34.3653 45.3379 34.3192 45.3701C34.2862 45.4376 32.3597 46.6629 32.1406 46.6604C31.9362 46.0853 30.1267 40.5457 30.1646 40.4525C30.2034 40.3594 32.4322 38.7469 32.6432 38.6563C32.6712 38.648 36.9345 41.7132 37.8821 42.6666C37.7 42.9146 35.9721 44.2453 35.949 44.261C36.0314 44.3467 35.1679 43.7114 35.0385 43.5911ZM32.6514 41.2535C32.8014 41.7009 33.2084 42.6987 33.2183 42.7135C33.2521 42.6789 33.6732 42.398 33.8792 42.2661C33.8174 42.2101 33.0486 41.4965 32.6844 41.2197C32.6687 41.2304 32.6663 41.2436 32.6506 41.2543L32.6514 41.2535Z" fill="#5E59A5"/>
<path d="M41.2484 38.5017C41.1454 38.4745 40.4483 38.0007 39.6161 37.419C39.3145 37.8268 39.1637 38.0073 38.8457 38.4374C39.5395 38.9318 40.169 39.3916 40.4755 39.633C40.2753 40.0549 39.1588 41.6691 39.0797 41.6237C38.835 41.5298 34.1004 38.2718 33.8375 37.9694C33.6991 37.8359 35.1345 35.977 35.2136 35.9762C35.1188 35.874 36.0417 36.4854 37.1227 37.2327C37.4367 36.7763 37.5767 36.6115 37.889 36.1879C37.0675 35.5914 36.3309 35.0319 36.1092 34.8275C36.3095 34.4057 37.4012 32.8895 37.4944 32.8525C37.5932 32.808 42.5668 36.3857 42.6187 36.5151C42.7406 36.6716 41.3127 38.5355 41.2484 38.5009V38.5017Z" fill="#5E59A5"/>
<path d="M21.2314 8.23828C12.2269 8.23828 4.92725 15.5379 4.92725 24.5416C4.92725 33.5452 12.2277 40.8457 21.2314 40.8457C30.235 40.8457 37.5355 33.546 37.5355 24.5416C37.5355 15.5371 30.235 8.23828 21.2314 8.23828Z" fill="#F0A853"/>
<g style="mix-blend-mode:multiply">
<path d="M21.2312 9.72656C13.0491 9.72656 6.41602 16.3604 6.41602 24.5417C6.41602 32.7231 13.0499 39.3569 21.2312 39.3569C29.4125 39.3569 36.0464 32.7239 36.0464 24.5417C36.0464 16.3596 29.4125 9.72656 21.2312 9.72656ZM21.2312 37.54C14.0527 37.54 8.23372 31.7203 8.23372 24.5426C8.23372 17.3649 14.0535 11.5451 21.2312 11.5451C28.4089 11.5451 34.2287 17.3649 34.2287 24.5426C34.2287 31.7203 28.4089 37.54 21.2312 37.54Z" fill="#F0A853"/>
</g>
<path d="M21.2314 10.6846C13.5783 10.6846 7.37451 16.8891 7.37451 24.5415C7.37451 32.1938 13.5791 38.3984 21.2314 38.3984C28.8837 38.3984 35.0883 32.1938 35.0883 24.5415C35.0883 16.8891 28.8837 10.6846 21.2314 10.6846ZM21.2314 36.7982C14.4624 36.7982 8.97468 31.3105 8.97468 24.5415C8.97468 17.7725 14.4624 12.2847 21.2314 12.2847C28.0004 12.2847 33.4881 17.7725 33.4881 24.5415C33.4881 31.3105 28.0004 36.7982 21.2314 36.7982Z" fill="#F0A853"/>
<path d="M31.4232 32.6082C29.0427 35.6124 25.3628 37.5397 21.2314 37.5397C14.0528 37.5397 8.23389 31.7208 8.23389 24.5423C8.23389 20.4116 10.1612 16.7309 13.1646 14.3496C11.4079 16.5661 10.3589 19.3693 10.3589 22.4164C10.3589 29.5949 16.1779 35.4139 23.3564 35.4139C26.4043 35.4139 29.2059 34.3641 31.4224 32.6074L31.4232 32.6082Z" fill="#E6E7E8"/>
<path d="M34.2298 24.5414C34.2298 27.5893 33.18 30.3909 31.4233 32.6074C29.2068 34.3641 26.4044 35.4139 23.3573 35.4139C16.1788 35.4139 10.3599 29.5949 10.3599 22.4164C10.3599 19.3685 11.4088 16.5661 13.1655 14.3496C15.382 12.5929 18.1852 11.5439 21.2323 11.5439C28.4108 11.5439 34.2298 17.3629 34.2298 24.5414Z" fill="#F1F1F2"/>
<path d="M34.23 24.5416C34.23 26.2035 33.9177 27.793 33.3491 29.2539C33.2808 29.4303 33.2082 29.6049 33.1324 29.7772C32.6825 30.7956 32.1074 31.7465 31.4243 32.6075C31.1705 32.9272 30.9027 33.2346 30.6209 33.5296C30.4899 33.6655 30.3573 33.799 30.2213 33.93C29.1337 34.9707 27.8655 35.826 26.4681 36.4407C26.2959 36.5173 26.1212 36.589 25.9448 36.6582C24.4839 37.2268 22.8945 37.5391 21.2325 37.5391C19.5705 37.5391 17.9802 37.2276 16.5201 36.6582C16.3438 36.5898 16.1691 36.5173 15.9969 36.4415C14.6003 35.8252 13.3313 34.9715 12.2445 33.93C12.1077 33.7998 11.9751 33.6663 11.8441 33.5296C10.8025 32.4427 9.94807 31.1738 9.33338 29.7772C9.25758 29.6049 9.18507 29.4303 9.11668 29.2539C8.54813 27.793 8.23584 26.2044 8.23584 24.5416C8.23584 22.8788 8.5473 21.2901 9.11668 19.8284C9.18507 19.6521 9.25758 19.4774 9.33338 19.3052C9.9489 17.9077 10.8034 16.6404 11.8441 15.5528C11.9751 15.416 12.1077 15.2833 12.2445 15.1531C12.5395 14.8713 12.8468 14.6027 13.1657 14.3498C14.0276 13.6667 14.9777 13.0907 15.9977 12.6425C16.17 12.5658 16.3446 12.4941 16.521 12.4258C17.9819 11.8564 19.5713 11.5449 21.2333 11.5449C22.8953 11.5449 24.4856 11.8564 25.9465 12.4258C26.1228 12.4941 26.2975 12.5658 26.4697 12.6425C27.8672 13.258 29.1353 14.1124 30.2221 15.1531C30.3589 15.2841 30.4924 15.4168 30.6226 15.5536C31.6641 16.6404 32.5186 17.9094 33.1333 19.306C33.2099 19.4782 33.2816 19.6529 33.3508 19.8292C33.9193 21.2901 34.2316 22.8788 34.2316 24.5416H34.23Z" fill="#F1F1F2"/>
<path d="M33.4885 24.5414C33.4885 27.4154 32.4981 30.0579 30.8427 32.1484C28.5974 34.9804 25.1276 36.7989 21.2318 36.7989C18.3215 36.7989 15.6477 35.7846 13.5457 34.0897C10.759 31.8427 8.9751 28.4009 8.9751 24.5414C8.9751 20.6819 10.792 17.1758 13.6248 14.9305C15.7153 13.2743 18.3586 12.2847 21.2318 12.2847C25.0905 12.2847 28.5331 14.0678 30.7801 16.8553C32.475 18.9573 33.4894 21.6311 33.4894 24.5414H33.4885Z" fill="#76B9E3"/>
<g style="mix-blend-mode:screen" opacity="0.3">
<path d="M31.5987 21.4828C31.5987 24.6304 30.5143 27.5258 28.6999 29.8149C26.2411 32.918 22.4393 34.9087 18.1727 34.9087C16.547 34.9087 14.988 34.6195 13.5452 34.0897C10.7585 31.8427 8.97461 28.4009 8.97461 24.5414C8.97461 20.6819 10.7915 17.1758 13.6243 14.9305C15.7148 13.2743 18.3581 12.2847 21.2313 12.2847C25.09 12.2847 28.5326 14.0678 30.7796 16.8553C31.3094 18.2973 31.5987 19.8562 31.5987 21.4828Z" fill="#76B9E3"/>
</g>
<path d="M21.539 14.33C21.5134 14.2945 21.1006 13.6617 20.9202 13.389C20.9218 13.679 20.9251 14.1322 20.9235 14.3151C20.893 14.3308 20.7702 14.3357 20.7702 14.3184C20.7636 14.1668 20.7603 13.2885 20.7686 13.1253C20.7784 13.108 20.8996 13.1064 20.9119 13.1171C20.9202 13.1294 21.3775 13.8059 21.539 14.077C21.5456 13.7565 21.5357 13.2654 21.5406 13.1459C21.5695 13.1303 21.6856 13.1335 21.6906 13.1443C21.6955 13.155 21.7046 14.0993 21.6824 14.3176C21.6791 14.3415 21.553 14.3432 21.539 14.3316V14.33Z" fill="#F1F1F2"/>
<path d="M10.0445 24.5218C10.3568 24.6034 10.9839 24.7772 11.0028 24.7929C11.0168 24.8069 11.0218 24.9239 11.0127 24.9618C11.0094 24.97 9.9094 25.265 9.82453 25.2757C9.79404 25.2659 9.7891 25.1274 9.80064 25.1241C9.83277 25.1159 10.6271 24.8959 10.7878 24.872C10.7878 24.8703 10.7861 24.867 10.7861 24.8654C10.6329 24.8275 9.96626 24.647 9.81135 24.5976C9.79899 24.5737 9.79734 24.4476 9.8097 24.441C9.90858 24.4073 10.6452 24.2177 10.7828 24.1823C10.7828 24.1807 10.7812 24.1774 10.7812 24.1757C10.6296 24.1469 9.91517 23.9574 9.8064 23.9219C9.79981 23.8997 9.80805 23.7736 9.83195 23.772C9.95637 23.7975 10.9657 24.0653 10.9946 24.081C11.0119 24.0966 11.0185 24.2309 11.0086 24.2499C10.9798 24.2672 10.272 24.4649 10.0454 24.516V24.5243L10.0445 24.5218Z" fill="#F1F1F2"/>
<path d="M21.6362 34.913C21.6395 34.9468 21.5728 35.0473 21.5596 35.0341C21.5135 34.9896 21.4113 34.9015 21.2531 34.9015C21.1064 34.9015 20.9886 34.9558 20.9886 35.1009C20.9886 35.1948 21.0685 35.2615 21.2836 35.3102C21.5168 35.3645 21.6214 35.4725 21.6214 35.6496C21.6214 35.8268 21.478 35.9833 21.2259 35.9833C21.0586 35.9833 20.9342 35.9273 20.8675 35.8705C20.8518 35.8565 20.9202 35.7411 20.9342 35.7477C20.9902 35.7889 21.0891 35.84 21.2193 35.84C21.3775 35.84 21.4583 35.76 21.4583 35.6488C21.4583 35.5755 21.4294 35.5104 21.2193 35.4576C20.9581 35.3909 20.8188 35.292 20.8188 35.1066C20.8188 34.9006 20.9878 34.7622 21.2498 34.7622C21.4393 34.7622 21.586 34.8594 21.6371 34.9122L21.6362 34.913Z" fill="#F1F1F2"/>
<path d="M31.4535 24.9198C31.4502 24.9248 31.4378 24.2565 31.4518 24.2104C31.6175 24.2055 32.4489 24.2071 32.6507 24.2137C32.659 24.3002 32.6664 24.8992 32.6573 24.947C32.6474 24.961 32.5395 24.9553 32.5206 24.952C32.5156 24.9363 32.5107 24.4864 32.514 24.362L32.1201 24.3653C32.1217 24.4675 32.1185 24.8168 32.1152 24.8309C32.1069 24.8465 31.9858 24.8358 31.9825 24.8358C31.9776 24.8358 31.9792 24.493 31.9808 24.3653C31.8342 24.3653 31.6859 24.3653 31.5853 24.3637C31.5886 24.5169 31.5936 24.8902 31.5903 24.9141C31.568 24.9297 31.4659 24.9223 31.4535 24.919V24.9198Z" fill="#F1F1F2"/>
<path d="M25.1429 26.6245L30.4419 24.5415L25.1429 22.4585L26.5544 19.2186L23.3145 20.6301L21.2315 15.3311L19.1484 20.6301L15.9085 19.2186L17.32 22.4585L12.021 24.5415L17.32 26.6245L15.9085 29.8644L19.1484 28.453L21.2315 33.752L23.3145 28.453L26.5544 29.8644L25.1429 26.6245Z" fill="#F1F1F2"/>
<g style="mix-blend-mode:multiply">
<path d="M25.5718 16.8292L19.9745 21.9914C19.5996 22.3367 19.2741 22.7289 19.0055 23.1557C18.9709 23.2101 18.9379 23.2653 18.9049 23.3222C18.605 23.8355 18.385 24.3942 18.2548 24.9808L16.6085 32.4156C16.475 33.0163 17.196 33.4316 17.6484 33.0138L21.7469 29.2359L23.2465 27.8524C23.6708 27.461 24.0309 27.0095 24.3185 26.5159C24.6168 26.0042 24.8351 25.4472 24.9653 24.8622L26.6116 17.4274C26.7451 16.8267 26.025 16.4123 25.5718 16.83V16.8292ZM21.5079 26.6543C21.2294 26.6387 20.9707 26.5571 20.7457 26.4261C20.1928 26.1089 19.8369 25.4966 19.8781 24.8177C19.8937 24.54 19.9753 24.2821 20.1063 24.0555C20.1104 24.0489 20.1137 24.0423 20.1178 24.0365C20.4375 23.4944 21.0432 23.1466 21.7139 23.1878C21.9916 23.2052 22.2511 23.2859 22.4769 23.4153C23.0281 23.7333 23.3841 24.3439 23.3437 25.0237C23.3272 25.3014 23.2465 25.5601 23.1155 25.7859C23.113 25.7908 23.1097 25.7949 23.1072 25.7999C22.7875 26.3437 22.1819 26.6939 21.5079 26.6535V26.6543Z" fill="#76B9E3"/>
</g>
<path d="M17.2218 14.8606L15.9966 12.6425C16.1688 12.5659 16.3435 12.4942 16.5198 12.4258L17.2227 14.8606H17.2218Z" fill="#F1F1F2"/>
<path d="M11.5506 20.5313L9.11572 19.8284C9.18411 19.6521 9.25662 19.4774 9.33243 19.3052L11.5506 20.5313Z" fill="#F1F1F2"/>
<path d="M11.5504 28.5513L9.33145 29.7774C9.25565 29.6051 9.18314 29.4305 9.11475 29.2541L11.5504 28.5513Z" fill="#F1F1F2"/>
<path d="M17.2217 34.2227L16.5188 36.6583C16.3425 36.59 16.1678 36.5174 15.9956 36.4416L17.2217 34.2227Z" fill="#F1F1F2"/>
<path d="M26.4673 36.4416C26.2951 36.5183 26.1204 36.59 25.9441 36.6592L25.2412 34.2227L26.4673 36.4416Z" fill="#F1F1F2"/>
<path d="M33.3483 29.2546C33.2799 29.4309 33.2074 29.6056 33.1316 29.7778L30.9126 28.5518L33.3483 29.2546Z" fill="#F1F1F2"/>
<path d="M33.3491 19.8294L30.9126 20.5322L33.1316 19.3062C33.2082 19.4784 33.2799 19.653 33.3491 19.8294Z" fill="#F1F1F2"/>
<path d="M26.4683 12.6425L25.2422 14.8606L25.945 12.4258C26.1214 12.4942 26.2961 12.5659 26.4683 12.6425Z" fill="#F1F1F2"/>
<path d="M26.1393 17.1886L24.5243 24.4833C24.3966 25.0568 24.1824 25.6039 23.8898 26.1057L22.7008 25.4045C22.7033 25.3995 22.7066 25.3954 22.7091 25.3905C22.8376 25.1688 22.9175 24.915 22.9332 24.6423C22.9728 23.9749 22.6234 23.3758 22.082 23.0636C21.8604 22.9358 21.6058 22.8567 21.333 22.8403C20.6747 22.8007 20.0814 23.1418 19.7675 23.6733L18.5776 22.9713C18.6098 22.9152 18.6419 22.8617 18.6765 22.8081C18.9402 22.3895 19.2591 22.0047 19.6274 21.6661L25.12 16.6011C25.5642 16.1916 26.2711 16.5978 26.1401 17.1877L26.1393 17.1886Z" fill="#EF736F"/>
<path d="M22.6998 25.4049C22.3867 25.9388 21.7918 26.2816 21.1302 26.2421C20.8566 26.2264 20.6036 26.1465 20.382 26.0179C19.839 25.7065 19.4904 25.1058 19.53 24.44C19.5457 24.1673 19.6256 23.9143 19.7541 23.6918C19.7582 23.6852 19.7615 23.6795 19.7657 23.6737L18.5758 22.9717C18.2817 23.4751 18.0658 24.0239 17.9381 24.599L16.3231 31.8937C16.192 32.4837 16.899 32.8908 17.3431 32.4804L21.3642 28.7733L22.8358 27.4162C23.2527 27.0323 23.6054 26.589 23.888 26.1053L22.699 25.4041L22.6998 25.4049Z" fill="#76B9E3"/>
<g style="mix-blend-mode:multiply" opacity="0.3">
<path d="M21.3656 28.7744L17.3446 32.4815C16.9005 32.891 16.1935 32.4848 16.3245 31.894L17.9395 24.6001C18.0813 23.9615 18.3309 23.3559 18.6762 22.8096C18.8401 24.7921 19.4903 27.1132 21.3665 28.7744H21.3656Z" fill="#76B9E3"/>
</g>
<path d="M12.845 15.4004L14.2746 17.6532L12.021 16.2244L12.845 15.4004Z" fill="#F1F1F2"/>
<path d="M12.0894 32.9281L14.3429 31.4985L12.9133 33.7521L12.0894 32.9281Z" fill="#F1F1F2"/>
<path d="M29.6181 33.6838L28.1885 31.4302L30.4421 32.8598L29.6181 33.6838Z" fill="#F1F1F2"/>
<path d="M30.3737 16.155L28.1201 17.5846L29.5497 15.3311L30.3737 16.155Z" fill="#F1F1F2"/>
</g>
<defs>
<clipPath id="clip0_3301_6751">
<rect width="43.5762" height="50" fill="white"/>
</clipPath>
</defs>
</svg>
